{"glyphs":{"0":{"ha":777,"x_min":52,"x_max":783,"o":"m 52 321 q 63 471 52 393 q 99 626 75 550 q 160 772 123 703 q 247 893 197 841 q 359 976 296 945 q 500 1007 422 1007 q 611 988 559 1007 q 701 931 663 970 q 761 832 739 892 q 783 689 783 772 q 772 539 783 619 q 737 381 760 460 q 677 231 713 303 q 592 104 642 159 q 480 17 543 50 q 340 -16 417 -16 q 223 6 276 -16 q 132 71 170 28 q 73 176 94 113 q 52 321 52 239 m 241 261 q 271 124 241 168 q 349 79 300 79 q 424 112 389 79 q 486 197 458 144 q 535 319 514 251 q 571 461 557 388 q 593 605 585 534 q 600 734 600 676 q 572 870 600 826 q 493 914 544 914 q 420 882 454 914 q 358 798 386 850 q 309 676 330 745 q 272 535 287 608 q 249 391 257 463 q 241 261 241 320 z "},"1":{"ha":777,"x_min":56,"x_max":657,"o":"m 657 997 l 481 168 q 475 144 479 159 q 472 119 472 128 q 480 95 472 104 q 502 81 488 86 q 535 75 516 77 q 576 74 554 74 l 644 74 l 629 0 l 56 0 l 71 74 l 153 74 q 233 94 202 74 q 273 164 263 114 l 380 669 q 397 746 389 711 q 412 806 406 781 q 427 860 420 836 l 421 860 q 361 799 389 826 q 310 754 334 772 q 264 725 286 735 q 220 715 242 715 q 171 742 190 715 q 153 818 153 769 q 201 832 176 824 q 255 852 227 840 q 316 882 283 865 q 389 925 349 899 l 501 997 l 657 997 z "},"2":{"ha":777,"x_min":-20,"x_max":779,"o":"m -20 0 l 9 143 l 334 416 q 450 526 404 476 q 522 619 495 575 q 558 704 548 663 q 568 789 568 745 q 562 841 568 817 q 543 883 555 865 q 512 910 530 900 q 471 920 494 920 q 409 901 436 920 q 363 851 382 883 q 333 777 345 820 q 319 685 322 734 q 256 692 285 685 q 205 714 227 699 q 172 751 184 728 q 160 804 160 774 q 181 882 160 846 q 244 946 203 919 q 346 990 285 974 q 485 1006 406 1006 q 611 992 556 1006 q 703 954 666 979 q 760 893 741 929 q 779 812 779 857 q 760 722 779 766 q 704 631 741 677 q 610 533 666 584 q 479 421 553 481 l 146 153 l 469 153 q 526 162 503 153 q 566 188 549 172 q 593 224 582 204 q 614 267 604 245 l 624 292 l 705 292 l 637 0 l -20 0 z "},"3":{"ha":777,"x_min":-1,"x_max":778,"o":"m 310 85 q 377 98 345 85 q 435 139 410 112 q 475 208 460 167 q 490 302 490 248 q 439 426 490 382 q 294 469 387 469 l 235 469 l 249 555 l 293 555 q 401 573 351 555 q 487 623 450 591 q 543 701 523 656 q 564 802 564 747 q 558 849 564 827 q 541 887 552 871 q 511 912 529 903 q 468 921 493 921 q 403 904 430 921 q 358 859 376 887 q 328 792 340 830 q 310 714 317 755 q 248 719 277 714 q 198 733 219 723 q 165 760 177 743 q 153 803 153 777 q 179 883 153 846 q 252 947 206 920 q 360 990 298 975 q 493 1006 422 1006 q 609 992 557 1006 q 700 954 662 979 q 758 891 737 928 q 778 807 778 854 q 761 711 778 758 q 708 626 743 665 q 621 558 673 587 q 498 517 568 529 q 585 496 547 511 q 651 454 624 480 q 692 393 677 429 q 707 313 707 357 q 689 203 707 251 q 641 119 671 155 q 570 57 610 83 q 483 16 529 32 q 388 -6 437 1 q 292 -14 338 -14 q 154 2 210 -14 q 64 41 98 17 q 14 95 29 65 q -1 154 -1 125 q 39 240 -1 209 q 151 272 79 272 q 161 197 151 231 q 190 138 170 163 q 239 99 210 113 q 310 85 269 85 z "},"4":{"ha":777,"x_min":0,"x_max":753,"o":"m 457 593 q 470 653 463 621 q 486 722 477 686 q 504 792 494 757 q 524 860 513 827 q 489 808 509 836 q 449 750 469 779 q 408 696 428 722 q 374 652 389 670 l 127 350 l 406 350 l 457 593 m 179 0 l 193 74 l 233 74 q 275 76 254 74 q 314 89 296 79 q 347 118 332 98 q 368 174 361 138 l 386 258 l 0 258 l 20 345 l 551 991 l 746 991 l 608 350 l 753 350 l 733 258 l 589 258 l 571 172 q 567 150 569 164 q 566 129 566 136 q 572 100 566 111 q 590 84 578 90 q 619 76 602 78 q 657 74 636 74 l 682 74 l 667 0 l 179 0 z "},"5":{"ha":777,"x_min":14,"x_max":791,"o":"m 294 83 q 377 99 340 83 q 440 146 414 115 q 480 224 466 177 q 494 334 494 271 q 481 412 494 378 q 446 467 469 445 q 393 500 424 490 q 326 511 362 511 q 281 509 301 511 q 243 502 260 506 q 212 492 227 497 q 183 481 197 486 l 125 510 l 267 991 l 791 991 l 751 739 l 667 739 q 669 777 668 757 q 671 806 671 797 q 656 831 671 821 q 603 840 642 840 l 323 840 l 241 581 q 301 595 267 588 q 386 603 335 603 q 516 586 458 603 q 615 536 574 569 q 679 455 656 503 q 701 343 701 406 q 672 202 701 267 q 588 89 643 136 q 455 14 534 41 q 277 -14 376 -14 q 154 -1 204 -14 q 73 34 104 12 q 27 86 41 56 q 14 149 14 115 q 21 192 14 172 q 45 227 29 212 q 85 251 61 242 q 143 260 110 260 q 150 199 144 230 q 173 142 157 168 q 219 100 190 116 q 294 83 248 83 z "},"6":{"ha":777,"x_min":71,"x_max":818,"o":"m 562 924 q 406 828 473 924 q 296 539 338 733 q 332 564 311 551 q 377 586 352 576 q 433 602 403 595 q 498 608 463 608 q 603 589 559 608 q 676 535 648 569 q 719 457 705 502 q 733 363 733 412 q 710 222 733 290 q 641 102 688 154 q 525 18 595 50 q 359 -14 454 -14 q 247 7 300 -14 q 155 70 195 28 q 93 175 116 112 q 71 322 71 237 q 86 493 71 409 q 133 653 102 577 q 209 793 164 729 q 311 905 254 858 q 438 979 368 953 q 587 1006 507 1006 q 687 994 644 1006 q 760 963 730 983 q 803 917 789 943 q 818 863 818 891 q 772 776 818 807 q 644 745 727 745 q 642 811 644 779 q 631 868 640 843 q 606 908 623 893 q 562 924 590 924 m 435 524 q 390 517 412 524 q 348 500 368 511 q 310 477 328 490 q 278 452 292 465 q 261 278 261 351 q 293 125 261 173 q 379 77 325 77 q 444 98 414 77 q 494 156 473 119 q 526 243 515 193 q 538 351 538 293 q 512 479 538 435 q 435 524 486 524 z "},"7":{"ha":777,"x_min":136,"x_max":856,"o":"m 144 0 l 693 840 l 336 840 q 274 822 298 840 q 240 770 250 804 l 221 700 l 136 700 l 193 991 l 856 991 l 840 909 l 262 0 l 144 0 z "},"8":{"ha":777,"x_min":18,"x_max":787,"o":"m 343 -14 q 210 4 270 -14 q 108 54 151 22 q 42 129 65 85 q 18 225 18 173 q 39 326 18 283 q 97 399 60 368 q 183 456 134 431 q 292 503 233 480 q 237 552 262 525 q 195 611 213 580 q 168 677 178 642 q 158 749 158 711 q 177 848 158 801 q 239 929 197 895 q 348 985 281 964 q 510 1006 415 1006 q 627 990 576 1006 q 714 948 679 975 q 769 884 750 921 q 787 803 787 846 q 770 710 787 750 q 723 637 753 669 q 649 580 692 606 q 554 532 606 555 q 621 483 590 509 q 674 426 652 456 q 709 359 696 395 q 722 281 722 323 q 694 149 722 205 q 616 58 667 94 q 496 4 566 22 q 343 -14 427 -14 m 354 66 q 423 77 391 66 q 480 110 456 88 q 519 165 505 132 q 533 241 533 197 q 523 304 533 275 q 493 358 513 332 q 444 406 473 383 q 375 450 414 429 q 251 361 296 418 q 205 220 205 305 q 245 107 205 148 q 354 66 284 66 m 612 793 q 606 845 612 821 q 586 887 600 869 q 552 915 572 905 q 503 925 531 925 q 442 913 470 925 q 394 879 414 901 q 362 826 374 857 q 350 755 350 795 q 468 575 350 647 q 536 620 508 596 q 581 671 564 644 q 605 729 597 699 q 612 793 612 760 z "},"9":{"ha":777,"x_min":39,"x_max":772,"o":"m 265 74 q 357 100 316 74 q 432 178 398 127 q 495 303 467 229 q 550 476 524 378 q 511 441 532 458 q 463 411 489 424 q 407 390 437 397 q 340 382 376 382 q 241 399 285 382 q 169 447 198 416 q 124 520 139 477 q 109 612 109 562 q 140 772 109 699 q 225 896 172 844 q 350 977 279 948 q 500 1006 420 1006 q 613 987 562 1006 q 699 934 663 969 q 753 848 734 899 q 772 732 772 798 q 771 691 772 715 q 767 638 770 667 q 759 578 764 610 q 746 515 753 547 q 708 383 731 448 q 654 259 686 318 q 582 151 623 201 q 492 64 542 100 q 381 7 441 28 q 250 -14 321 -14 q 155 -2 195 -14 q 89 29 115 9 q 51 74 63 48 q 39 129 39 100 q 67 200 39 176 q 147 225 96 225 q 155 172 148 199 q 176 123 161 144 q 212 87 190 101 q 265 74 234 74 m 411 482 q 461 492 438 483 q 505 517 485 502 q 541 551 525 532 q 570 590 557 570 q 577 627 574 607 q 584 668 581 648 q 588 707 587 688 q 590 741 590 726 q 583 819 590 786 q 561 872 575 852 q 529 903 547 893 q 488 913 510 913 q 415 887 448 913 q 359 820 382 861 q 322 725 335 778 q 309 619 309 673 q 336 517 309 551 q 411 482 364 482 z "},"\u0000":{"ha":0,"x_min":0,"x_max":0,"o":""},"\r":{"ha":708,"x_min":0,"x_max":0,"o":""}," ":{"ha":361,"x_min":0,"x_max":0,"o":""},"!":{"ha":549,"x_min":107,"x_max":533,"o":"m 292 991 l 533 991 l 293 317 l 212 317 l 292 991 m 340 114 q 330 55 340 79 q 302 17 319 31 q 263 -4 285 2 q 220 -11 241 -11 q 138 14 169 -11 q 107 89 107 38 q 116 140 107 117 q 140 180 124 163 q 178 205 155 196 q 228 214 200 214 q 272 208 252 214 q 308 189 293 201 q 332 158 323 177 q 340 114 340 139 z "},"\"":{"ha":705,"x_min":211,"x_max":764,"o":"m 547 991 l 764 991 l 619 610 l 528 610 l 547 991 m 244 991 l 461 991 l 302 610 l 211 610 l 244 991 z "},"#":{"ha":777,"x_min":39,"x_max":785,"o":"m 703 374 l 693 278 l 519 278 l 439 0 l 340 0 l 421 278 l 277 278 l 195 0 l 96 0 l 178 278 l 39 278 l 49 374 l 205 374 l 281 625 l 119 625 l 131 722 l 310 722 l 386 991 l 486 991 l 408 722 l 553 722 l 632 991 l 730 991 l 652 722 l 785 722 l 774 625 l 623 625 l 549 374 l 703 374 m 304 374 l 450 374 l 525 625 l 379 625 l 304 374 z "},"$":{"ha":777,"x_min":35,"x_max":774,"o":"m 699 326 q 675 212 699 262 q 608 126 652 161 q 502 72 564 91 q 363 52 440 53 l 329 -110 l 252 -110 l 286 53 q 97 112 159 63 q 35 239 35 161 q 75 334 35 304 q 189 364 115 364 q 197 278 189 315 q 221 214 205 241 q 257 169 236 186 q 304 142 278 151 l 367 437 q 279 491 317 464 q 215 549 241 517 q 176 618 189 581 q 163 704 163 656 q 185 807 163 762 q 250 885 208 853 q 349 935 291 917 q 478 954 407 952 l 500 1055 l 578 1055 l 554 951 q 719 905 664 943 q 774 811 774 868 q 766 760 774 783 q 739 722 758 738 q 691 699 721 707 q 616 690 661 690 q 612 742 616 715 q 597 792 607 768 q 573 835 588 816 q 536 865 557 854 l 478 591 l 510 575 q 652 465 606 525 q 699 326 699 406 m 521 264 q 517 299 521 283 q 505 332 514 316 q 478 363 495 347 q 436 397 462 380 l 379 131 q 438 141 412 132 q 482 169 464 151 q 511 211 500 186 q 521 264 521 235 m 342 750 q 358 684 342 710 q 408 633 375 657 l 460 875 q 415 863 436 871 q 377 839 393 854 q 351 802 361 824 q 342 750 342 780 z "},"%":{"ha":1244,"x_min":100,"x_max":1197,"o":"m 357 0 l 249 0 l 937 991 l 1042 991 l 357 0 m 100 591 q 108 682 100 635 q 133 776 116 730 q 176 864 151 822 q 238 937 202 905 q 318 987 273 968 q 419 1006 363 1006 q 510 990 472 1006 q 572 947 548 975 q 609 881 597 919 q 621 799 621 843 q 612 713 621 759 q 587 621 604 667 q 543 534 570 576 q 480 459 517 492 q 398 408 444 427 q 296 389 352 389 q 215 402 251 389 q 153 441 178 415 q 114 504 127 467 q 100 591 100 542 m 415 933 q 365 915 388 933 q 324 866 342 896 q 292 798 306 836 q 269 721 278 760 q 255 645 260 682 q 250 581 250 608 q 264 493 250 526 q 311 460 277 460 q 361 478 338 460 q 402 527 384 497 q 434 595 420 557 q 457 673 448 633 q 471 749 467 712 q 476 814 476 786 q 463 901 476 869 q 415 933 450 932 m 676 189 q 684 280 676 233 q 710 374 692 328 q 753 461 727 420 q 814 534 779 503 q 895 584 850 566 q 996 603 940 603 q 1086 587 1048 603 q 1149 544 1124 572 q 1185 478 1173 516 q 1197 396 1197 440 q 1188 310 1197 356 q 1163 219 1180 264 q 1120 131 1146 173 q 1057 57 1093 90 q 975 6 1021 25 q 872 -14 928 -14 q 791 0 827 -14 q 729 38 755 13 q 690 102 704 64 q 676 189 676 140 m 991 530 q 942 512 964 530 q 901 463 919 493 q 868 395 882 433 q 845 318 854 357 q 831 242 836 279 q 827 178 827 205 q 840 90 827 123 q 888 57 854 57 q 938 76 915 57 q 979 124 960 94 q 1011 192 997 154 q 1034 270 1025 231 q 1048 346 1043 309 q 1053 411 1053 383 q 1039 498 1053 467 q 991 530 1026 529 z "},"&":{"ha":1112,"x_min":47,"x_max":1100,"o":"m 753 0 l 684 96 q 550 17 626 47 q 372 -14 473 -14 q 227 6 288 -14 q 126 61 166 26 q 67 144 86 96 q 47 248 47 191 q 72 366 47 317 q 138 451 96 415 q 234 513 179 487 q 350 561 289 538 q 302 666 319 614 q 285 766 285 718 q 306 871 285 826 q 367 945 327 916 q 464 990 406 975 q 596 1006 522 1006 q 706 992 660 1006 q 783 954 753 978 q 828 896 814 929 q 843 825 843 863 q 829 741 843 777 q 782 674 814 705 q 699 616 750 644 q 572 558 647 589 l 743 334 q 784 436 767 384 q 811 539 801 488 l 822 591 l 1100 591 l 1084 518 l 1072 518 q 1026 515 1048 518 q 982 503 1004 513 q 942 475 961 493 q 907 425 923 456 q 862 339 886 385 q 808 245 839 293 l 896 131 q 948 88 917 102 q 1025 74 980 74 l 1035 74 l 1019 0 l 753 0 m 252 258 q 262 187 252 220 q 294 130 273 154 q 346 93 315 106 q 415 79 376 79 q 533 104 480 79 q 629 171 587 129 l 403 485 q 333 437 361 462 q 286 386 304 413 q 260 327 268 358 q 252 258 252 295 m 685 806 q 660 891 685 861 q 586 922 635 922 q 541 913 562 922 q 504 885 519 903 q 480 840 489 867 q 472 778 472 812 q 486 702 472 738 q 526 625 499 666 q 599 662 569 644 q 648 701 629 680 q 676 748 667 722 q 685 806 685 773 z "},"'":{"ha":403,"x_min":211,"x_max":447,"o":"m 231 991 l 447 991 l 302 610 l 211 610 l 231 991 z "},"(":{"ha":555,"x_min":58,"x_max":640,"o":"m 272 193 q 278 108 272 151 q 298 26 284 65 q 336 -46 313 -13 q 393 -104 359 -80 l 375 -193 q 231 -118 291 -164 q 133 -13 171 -72 q 76 114 94 45 q 58 258 58 183 q 74 432 58 345 q 122 602 90 519 q 202 760 154 685 q 315 897 250 836 q 461 1004 380 959 q 640 1072 542 1049 l 627 985 q 533 919 574 956 q 460 840 492 882 q 405 752 429 798 q 364 662 381 707 q 335 575 347 617 q 314 497 323 533 q 280 318 288 393 q 272 193 272 243 z "},")":{"ha":555,"x_min":-61,"x_max":521,"o":"m 307 688 q 301 773 307 730 q 281 854 295 816 q 243 927 267 893 q 186 985 220 960 l 204 1074 q 348 998 288 1044 q 447 893 408 952 q 503 766 485 835 q 521 623 521 697 q 505 449 521 536 q 457 279 489 361 q 377 121 425 196 q 264 -16 329 45 q 118 -123 199 -78 q -61 -193 37 -169 l -47 -104 q 46 -39 5 -76 q 119 41 87 -1 q 174 128 151 83 q 215 218 198 174 q 244 305 233 263 q 265 383 256 347 q 299 563 291 488 q 307 688 307 637 z "},"*":{"ha":859,"x_min":204,"x_max":814,"o":"m 228 897 l 318 1022 l 489 832 l 492 1063 l 644 1031 l 549 822 l 782 921 l 814 772 l 591 764 l 791 664 l 701 543 l 528 728 l 529 497 l 378 529 l 469 742 l 237 640 l 204 787 l 428 799 l 228 897 z "},"+":{"ha":777,"x_min":113,"x_max":708,"o":"m 460 447 l 460 199 l 359 199 l 359 447 l 113 447 l 113 546 l 359 546 l 359 794 l 460 794 l 460 546 l 708 546 l 708 447 l 460 447 z "},",":{"ha":422,"x_min":-22,"x_max":283,"o":"m 283 86 q 264 -14 283 33 q 207 -100 245 -62 q 111 -167 168 -139 q -22 -210 54 -195 l -7 -136 q 136 -21 136 -102 q 131 4 136 -7 q 116 23 125 14 q 97 39 107 31 q 79 58 87 47 q 64 82 70 68 q 58 117 58 96 q 67 157 58 139 q 90 187 75 174 q 123 206 104 199 q 163 212 142 212 q 210 204 188 212 q 248 179 232 195 q 274 140 264 163 q 283 86 283 117 z "},"-":{"ha":431,"x_min":14,"x_max":407,"o":"m 14 306 l 46 452 l 407 452 l 375 306 l 14 306 z "},".":{"ha":422,"x_min":47,"x_max":281,"o":"m 281 114 q 270 55 281 79 q 242 17 260 31 q 203 -4 225 2 q 160 -11 182 -11 q 79 14 110 -11 q 47 89 47 38 q 56 140 47 117 q 80 180 64 163 q 118 205 96 196 q 168 214 140 214 q 213 208 192 214 q 249 189 233 201 q 272 158 264 177 q 281 114 281 139 z "},"/":{"ha":400,"x_min":-143,"x_max":557,"o":"m -35 -168 l -143 -168 l 449 1055 l 557 1055 l -35 -168 z "},":":{"ha":497,"x_min":61,"x_max":416,"o":"m 294 114 q 284 55 294 79 q 256 17 273 31 q 217 -4 239 2 q 174 -11 195 -11 q 92 14 123 -11 q 61 89 61 38 q 70 140 61 117 q 94 180 78 163 q 132 205 110 196 q 182 214 154 214 q 226 208 205 214 q 262 189 247 201 q 286 158 277 177 q 294 114 294 139 m 416 652 q 406 592 416 616 q 378 554 395 568 q 339 533 361 539 q 296 526 317 526 q 214 551 245 526 q 183 627 183 575 q 192 677 183 654 q 216 717 200 701 q 254 742 232 733 q 304 751 277 751 q 349 745 328 751 q 385 727 370 739 q 408 696 399 715 q 416 652 416 677 z "},";":{"ha":497,"x_min":-16,"x_max":416,"o":"m 290 86 q 271 -14 290 33 q 213 -100 252 -62 q 118 -167 175 -139 q -16 -210 60 -195 l 0 -136 q 143 -21 143 -102 q 137 4 143 -7 q 123 23 132 14 q 104 39 114 31 q 85 58 94 47 q 71 82 77 68 q 65 117 65 96 q 74 157 65 139 q 96 187 82 174 q 130 206 111 199 q 170 212 149 212 q 217 204 195 212 q 255 179 239 195 q 281 140 271 163 q 290 86 290 117 m 416 652 q 406 592 416 616 q 378 554 395 568 q 339 533 361 539 q 296 526 317 526 q 214 551 245 526 q 183 627 183 575 q 192 677 183 654 q 216 717 200 701 q 254 742 232 733 q 304 751 277 751 q 349 745 328 751 q 385 727 370 739 q 408 696 399 715 q 416 652 416 677 z "},"<":{"ha":777,"x_min":113,"x_max":708,"o":"m 113 468 l 113 525 l 708 850 l 708 741 l 261 496 l 708 254 l 708 144 l 113 468 z "},"=":{"ha":777,"x_min":113,"x_max":714,"o":"m 714 410 l 714 313 l 113 313 l 113 410 l 714 410 m 714 679 l 714 582 l 113 582 l 113 679 l 714 679 z "},">":{"ha":777,"x_min":113,"x_max":708,"o":"m 113 144 l 113 254 l 559 496 l 113 741 l 113 850 l 708 525 l 708 468 l 113 144 z "},"?":{"ha":743,"x_min":140,"x_max":761,"o":"m 761 775 q 734 665 761 715 q 662 574 708 615 q 552 500 616 533 q 415 440 489 467 l 366 317 l 277 317 l 273 489 q 385 538 335 511 q 470 599 435 565 q 525 677 506 633 q 545 778 545 721 q 537 839 545 812 q 516 884 529 865 q 484 911 503 902 q 444 921 465 921 q 388 904 412 921 q 349 859 365 887 q 325 794 334 831 q 311 718 316 758 q 140 825 140 718 q 163 896 140 863 q 227 953 185 928 q 328 991 269 977 q 461 1006 387 1006 q 586 992 530 1006 q 680 950 642 979 q 740 878 719 922 q 761 775 761 835 m 408 114 q 398 55 408 79 q 370 17 387 31 q 331 -4 353 2 q 288 -11 309 -11 q 206 14 237 -11 q 175 89 175 38 q 183 140 175 117 q 208 180 192 163 q 246 205 224 196 q 296 214 268 214 q 340 208 319 214 q 376 189 361 201 q 400 158 391 177 q 408 114 408 139 z "},"@":{"ha":1279,"x_min":60,"x_max":1214,"o":"m 1214 545 q 1189 359 1214 441 q 1123 222 1164 278 q 1031 137 1082 166 q 928 107 980 107 q 823 137 866 107 q 757 237 780 168 l 749 237 q 716 186 734 210 q 675 145 698 163 q 623 117 652 127 q 557 107 593 107 q 473 121 513 107 q 404 165 434 136 q 357 239 374 194 q 339 345 339 283 q 348 425 339 382 q 376 512 357 469 q 425 595 395 555 q 496 666 454 635 q 591 716 537 697 q 713 734 645 734 q 795 722 761 734 q 851 693 829 710 l 909 722 l 943 722 l 885 375 q 881 354 883 367 q 878 328 880 341 q 876 301 877 314 q 875 281 875 289 q 881 234 875 252 q 897 205 887 216 q 918 191 906 195 q 942 187 930 187 q 998 210 969 187 q 1049 278 1026 233 q 1087 388 1072 322 q 1101 539 1101 454 q 1073 706 1101 634 q 992 825 1044 777 q 870 897 941 873 q 715 921 799 921 q 586 903 650 921 q 464 849 522 884 q 357 763 406 814 q 272 646 308 711 q 216 501 236 581 q 196 330 196 422 q 233 121 196 208 q 332 -21 269 34 q 478 -101 395 -76 q 656 -126 562 -126 q 766 -116 712 -126 q 867 -90 819 -106 q 957 -52 916 -73 q 1031 -9 998 -31 l 1064 -62 q 981 -115 1027 -90 q 880 -157 934 -139 q 764 -186 825 -176 q 636 -197 702 -197 q 484 -183 557 -197 q 346 -138 410 -168 q 229 -64 282 -109 q 139 40 176 -20 q 80 174 101 100 q 60 339 60 249 q 82 517 60 432 q 147 674 105 602 q 248 805 189 746 q 382 905 308 863 q 542 969 456 947 q 725 991 629 991 q 937 957 845 991 q 1090 862 1028 922 q 1183 721 1152 802 q 1214 545 1214 639 m 510 330 q 534 224 510 261 q 599 187 559 187 q 649 201 628 187 q 686 239 671 216 q 710 292 701 262 q 725 351 720 321 l 781 635 q 769 651 777 644 q 751 664 761 659 q 729 671 741 669 q 707 673 718 673 q 643 656 671 673 q 593 609 615 638 q 556 544 572 581 q 530 469 540 507 q 515 394 519 431 q 510 330 510 358 z "},"A":{"ha":1046,"x_min":-68,"x_max":987,"o":"m 297 326 l 229 201 q 209 157 216 176 q 203 123 203 138 q 222 86 203 98 q 281 74 241 74 l 309 74 l 293 0 l -68 0 l -53 74 l -24 74 q 10 78 -5 74 q 38 95 24 83 q 66 128 52 107 q 100 182 81 149 l 571 991 l 761 991 l 878 174 q 887 134 881 152 q 902 102 892 115 q 926 81 911 89 q 962 74 941 74 l 987 74 l 972 0 l 514 0 l 529 74 l 561 74 q 632 88 606 74 q 659 132 659 102 q 658 155 659 144 q 656 176 657 166 l 635 326 l 297 326 m 600 644 q 594 702 597 675 q 588 753 591 728 q 584 802 586 779 q 582 851 583 826 q 562 805 572 826 q 540 761 551 783 q 514 714 528 739 q 482 657 500 690 l 345 411 l 625 411 l 600 644 z "},"B":{"ha":933,"x_min":-32,"x_max":932,"o":"m -17 74 l 1 74 q 44 77 23 74 q 81 88 64 79 q 111 113 98 97 q 129 157 123 130 l 271 825 q 277 852 274 839 q 279 871 279 865 q 272 895 279 886 q 251 910 264 905 q 219 917 238 915 q 179 918 201 918 l 161 918 l 176 991 l 607 991 q 850 939 768 991 q 932 783 932 886 q 915 683 932 726 q 867 608 897 640 q 795 556 836 576 q 705 525 753 536 l 704 519 q 772 496 741 513 q 826 455 804 480 q 861 395 848 429 q 873 317 873 360 q 848 182 873 241 q 772 82 822 123 q 647 21 722 42 q 473 0 572 0 l -32 0 l -17 74 m 332 85 l 428 85 q 528 100 487 85 q 595 146 569 116 q 632 222 621 177 q 644 326 644 267 q 610 439 644 402 q 503 476 575 476 l 415 476 l 332 85 m 433 562 l 511 562 q 653 613 610 562 q 697 760 697 665 q 664 870 697 833 q 567 907 631 907 l 505 907 l 433 562 z "},"C":{"ha":928,"x_min":87,"x_max":977,"o":"m 558 103 q 645 114 606 103 q 714 143 684 125 q 768 183 745 161 q 808 229 791 205 q 824 210 817 223 q 832 182 832 197 q 811 112 832 147 q 749 49 790 77 q 648 4 708 21 q 509 -14 587 -14 q 331 11 409 -14 q 198 84 252 36 q 116 201 144 132 q 87 359 87 271 q 107 524 87 443 q 164 677 127 604 q 255 810 201 749 q 377 916 309 871 q 527 986 446 961 q 701 1011 608 1011 q 822 999 770 1011 q 908 966 874 987 q 960 914 943 945 q 977 846 977 883 q 962 792 977 815 q 921 753 947 769 q 859 729 895 737 q 781 721 823 721 q 777 785 781 750 q 760 851 772 821 q 724 902 747 882 q 663 922 701 922 q 561 897 608 922 q 476 829 515 872 q 409 729 438 786 q 359 609 379 672 q 329 479 339 545 q 318 351 318 413 q 378 168 318 233 q 558 103 439 103 z "},"D":{"ha":1067,"x_min":-33,"x_max":1042,"o":"m -18 74 l 1 74 q 44 77 23 74 q 81 88 64 79 q 111 113 98 97 q 129 157 123 130 l 273 839 q 278 856 276 846 q 279 871 279 865 q 272 895 279 886 q 251 910 264 905 q 219 917 238 915 q 179 918 201 918 l 161 918 l 176 991 l 621 991 q 799 967 720 991 q 931 895 877 943 q 1013 777 985 847 q 1042 614 1042 706 q 1024 453 1042 531 q 974 308 1007 376 q 890 183 940 239 q 776 85 841 126 q 630 22 711 45 q 456 0 550 0 l -33 0 l -18 74 m 396 86 q 570 126 494 86 q 700 237 647 165 q 781 408 753 309 q 808 625 808 507 q 791 751 808 698 q 743 839 774 804 q 666 890 711 873 q 566 907 621 907 l 507 907 l 334 86 l 396 86 z "},"E":{"ha":879,"x_min":-32,"x_max":930,"o":"m -17 74 l 1 74 q 44 77 23 74 q 81 88 64 79 q 111 113 98 97 q 129 157 123 130 l 273 839 q 278 856 276 846 q 279 871 279 865 q 272 895 279 886 q 251 910 264 905 q 219 917 238 915 q 179 918 201 918 l 161 918 l 176 991 l 930 991 l 882 733 l 783 733 q 785 750 784 738 q 787 775 786 762 q 789 800 788 789 q 790 814 790 811 q 785 850 790 833 q 768 880 779 867 q 738 900 756 892 q 692 907 719 907 l 507 907 l 433 559 l 749 559 l 730 476 l 415 476 l 332 85 l 551 85 q 610 94 584 85 q 654 119 635 103 q 687 155 673 134 q 708 199 700 176 l 730 258 l 829 258 l 765 0 l -32 0 l -17 74 z "},"F":{"ha":863,"x_min":-32,"x_max":940,"o":"m 349 164 q 343 137 345 149 q 342 121 342 126 q 349 97 342 106 q 370 82 357 87 q 402 76 384 77 q 443 74 421 74 l 461 74 l 446 0 l -32 0 l -17 74 l 1 74 q 44 77 23 74 q 81 88 64 79 q 111 113 98 97 q 129 157 123 130 l 271 823 q 279 871 279 859 q 272 895 279 886 q 251 910 264 905 q 219 917 238 915 q 179 918 201 918 l 161 918 l 176 991 l 940 991 l 892 733 l 793 733 q 795 758 794 745 q 798 782 797 770 q 800 803 799 794 q 800 814 800 811 q 795 850 800 833 q 777 880 789 867 q 745 900 765 892 q 696 907 725 907 l 507 907 l 427 528 l 755 528 l 739 446 l 410 446 l 349 164 z "},"G":{"ha":1105,"x_min":87,"x_max":1063,"o":"m 1047 400 l 1046 400 q 1001 397 1023 400 q 963 385 980 394 q 932 359 945 376 q 914 315 920 342 l 861 50 q 779 22 819 34 q 697 2 739 10 q 611 -10 655 -6 q 518 -14 567 -14 q 331 12 411 -14 q 196 86 250 38 q 115 203 142 134 q 87 358 87 272 q 109 531 87 448 q 169 686 130 614 q 265 817 208 758 q 393 918 322 876 q 550 983 465 960 q 730 1006 635 1006 q 869 991 810 1006 q 968 954 928 977 q 1026 901 1007 931 q 1046 840 1046 871 q 1030 790 1046 813 q 987 749 1014 766 q 923 722 960 732 q 844 711 886 711 q 835 792 844 755 q 807 858 826 830 q 758 901 787 886 q 688 917 728 917 q 587 895 635 917 q 497 835 538 873 q 422 743 456 796 q 365 625 389 689 q 328 489 341 562 q 315 342 315 417 q 327 236 315 283 q 364 153 338 188 q 429 100 389 119 q 525 81 469 81 q 590 86 557 81 q 648 100 623 92 l 694 306 q 703 353 703 342 q 695 377 703 368 q 674 392 688 387 q 643 398 661 397 q 603 400 625 400 l 585 400 l 600 473 l 1063 473 l 1047 400 z "},"H":{"ha":1137,"x_min":-32,"x_max":1236,"o":"m 547 0 l 562 74 l 581 74 q 624 77 603 74 q 663 89 645 79 q 693 114 680 98 q 711 158 705 130 l 778 475 l 415 475 l 347 153 q 343 136 345 145 q 342 121 342 126 q 349 97 342 106 q 370 82 357 87 q 402 76 384 77 q 443 74 421 74 l 461 74 l 446 0 l -32 0 l -17 74 l 1 74 q 44 77 23 74 q 81 88 64 79 q 111 113 98 97 q 129 157 123 130 l 271 823 q 279 871 279 859 q 272 895 279 886 q 251 910 264 905 q 219 917 238 915 q 179 918 201 918 l 161 918 l 176 991 l 656 991 l 640 918 l 623 918 q 578 915 600 918 q 539 903 557 912 q 509 878 522 895 q 490 833 496 861 l 433 559 l 796 559 l 854 829 q 860 854 858 844 q 861 871 861 865 q 853 895 861 886 q 832 910 846 905 q 800 917 819 915 q 760 918 781 918 l 742 918 l 757 991 l 1236 991 l 1221 918 l 1203 918 q 1160 915 1181 918 q 1121 903 1139 912 q 1091 878 1103 895 q 1072 833 1078 861 l 929 153 q 925 136 927 145 q 924 121 924 126 q 931 97 924 106 q 952 82 939 87 q 983 76 965 77 q 1023 74 1002 74 l 1042 74 l 1026 0 l 547 0 z "},"I":{"ha":557,"x_min":-32,"x_max":656,"o":"m -32 0 l -17 74 l 1 74 q 44 77 23 74 q 81 88 64 79 q 111 113 98 97 q 129 157 123 130 l 273 839 q 278 856 276 846 q 279 871 279 865 q 272 895 279 886 q 251 910 264 905 q 219 917 238 915 q 179 918 201 918 l 161 918 l 176 991 l 656 991 l 640 918 l 623 918 q 578 915 600 918 q 539 903 557 912 q 509 878 522 895 q 490 833 496 861 l 347 153 q 344 136 346 145 q 342 121 342 126 q 349 97 342 106 q 370 82 357 87 q 402 76 384 77 q 443 74 421 74 l 461 74 l 446 0 l -32 0 z "},"J":{"ha":557,"x_min":-220,"x_max":656,"o":"m 314 -4 q 255 -151 296 -89 q 157 -254 214 -213 q 33 -314 101 -294 q -106 -334 -35 -334 q -169 -330 -143 -334 q -220 -318 -194 -326 l -200 -241 q -180 -247 -191 -245 q -157 -251 -169 -250 q -132 -254 -144 -253 q -110 -254 -120 -254 q -43 -241 -74 -254 q 13 -199 -12 -229 q 59 -122 39 -170 q 94 -4 79 -74 l 273 839 q 278 856 276 846 q 279 871 279 865 q 272 895 279 886 q 251 910 264 905 q 219 917 238 915 q 179 918 201 918 l 161 918 l 176 991 l 656 991 l 640 918 l 623 918 q 578 915 600 918 q 539 903 557 912 q 509 878 522 895 q 490 833 496 861 l 314 -4 z "},"K":{"ha":1029,"x_min":-32,"x_max":1125,"o":"m 703 753 q 749 798 731 778 q 778 834 767 818 q 792 862 788 850 q 796 884 796 874 q 783 910 796 901 q 734 920 769 920 l 750 991 l 1125 991 l 1109 920 q 1056 913 1082 920 q 1004 892 1030 906 q 948 856 977 878 q 886 804 920 834 l 661 606 l 823 215 q 854 149 840 176 q 883 105 868 122 q 915 81 897 89 q 956 74 932 74 l 960 74 l 946 0 l 873 0 q 759 8 804 0 q 681 39 713 17 q 628 97 650 60 q 583 192 606 134 l 481 457 l 399 399 l 347 153 q 344 136 346 145 q 342 121 342 126 q 349 97 342 106 q 370 82 357 87 q 402 76 384 77 q 443 74 421 74 l 461 74 l 446 0 l -32 0 l -17 74 l 1 74 q 44 77 23 74 q 81 88 64 79 q 111 113 98 97 q 129 157 123 130 l 271 823 q 279 871 279 859 q 272 895 279 886 q 251 910 264 905 q 219 917 238 915 q 179 918 201 918 l 161 918 l 176 991 l 656 991 l 640 918 l 623 918 q 578 915 600 918 q 539 903 557 912 q 509 878 522 895 q 490 833 496 861 l 421 504 l 703 753 z "},"L":{"ha":908,"x_min":-32,"x_max":859,"o":"m 566 85 q 631 94 604 85 q 680 122 659 104 q 716 170 701 141 q 745 236 732 198 l 770 310 l 859 310 l 782 0 l -32 0 l -17 74 l 1 74 q 44 77 23 74 q 81 88 64 79 q 111 113 98 97 q 129 157 123 130 l 271 823 q 279 871 279 859 q 272 895 279 886 q 251 910 264 905 q 219 917 238 915 q 179 918 201 918 l 161 918 l 176 991 l 656 991 l 640 918 l 623 918 q 578 915 600 918 q 539 903 557 912 q 509 878 522 895 q 490 833 496 861 l 334 85 l 566 85 z "},"M":{"ha":1322,"x_min":-32,"x_max":1422,"o":"m 1422 991 l 1407 918 l 1389 918 q 1345 915 1367 918 q 1307 903 1324 912 q 1277 878 1289 895 q 1258 833 1264 861 l 1116 153 q 1111 136 1113 145 q 1109 121 1109 126 q 1117 97 1109 106 q 1138 82 1124 87 q 1170 76 1151 77 q 1210 74 1188 74 l 1227 74 l 1213 0 l 739 0 l 754 74 l 772 74 q 816 77 795 74 q 854 89 837 79 q 884 114 871 98 q 903 158 897 130 l 1050 854 l 590 0 l 494 0 l 382 854 l 235 164 q 230 137 231 149 q 228 121 228 126 q 235 97 228 106 q 256 82 243 87 q 289 76 270 77 q 329 74 307 74 l 334 74 l 318 0 l -32 0 l -17 74 l 1 74 q 44 77 23 74 q 81 88 64 79 q 111 113 98 97 q 129 157 123 130 l 271 823 q 279 871 279 859 q 272 895 279 886 q 251 910 264 905 q 219 917 238 915 q 179 918 201 918 l 161 918 l 176 991 l 564 991 l 657 317 l 1021 991 l 1422 991 z "},"N":{"ha":1095,"x_min":-32,"x_max":1207,"o":"m 742 0 l 366 786 l 235 164 q 230 137 231 149 q 228 121 228 126 q 235 97 228 106 q 256 82 243 87 q 289 76 270 77 q 329 74 307 74 l 334 74 l 318 0 l -32 0 l -17 74 l 1 74 q 44 77 23 74 q 81 88 64 79 q 111 113 98 97 q 129 157 123 130 l 271 823 q 279 871 279 859 q 272 895 279 886 q 251 910 264 905 q 219 917 238 915 q 179 918 201 918 l 161 918 l 176 991 l 485 991 l 823 279 l 940 828 q 947 871 947 860 q 940 895 947 886 q 918 910 932 905 q 886 917 905 915 q 846 918 867 918 l 842 918 l 857 991 l 1207 991 l 1192 918 l 1174 918 q 1132 915 1152 918 q 1094 903 1111 912 q 1064 878 1077 895 q 1046 835 1052 862 l 869 0 l 742 0 z "},"O":{"ha":1100,"x_min":87,"x_max":1063,"o":"m 87 370 q 104 509 87 436 q 154 653 121 583 q 237 788 187 724 q 352 901 286 852 q 499 978 417 949 q 679 1007 581 1007 q 825 985 755 1007 q 947 916 895 962 q 1031 797 1000 869 q 1063 625 1063 725 q 1047 489 1063 562 q 999 345 1031 416 q 918 209 966 274 q 804 94 869 144 q 656 14 739 44 q 475 -16 574 -16 q 322 9 393 -16 q 199 83 251 34 q 117 203 147 132 q 87 370 87 275 m 314 336 q 329 219 314 268 q 369 138 343 170 q 429 92 394 106 q 503 77 463 77 q 607 104 560 77 q 692 179 654 132 q 756 285 729 225 q 802 410 784 345 q 829 538 820 474 q 838 657 838 602 q 823 774 838 725 q 784 854 809 823 q 725 902 760 886 q 650 917 690 917 q 545 889 592 917 q 460 815 498 861 q 395 708 423 768 q 350 584 368 648 q 323 455 332 519 q 314 336 314 391 z "},"P":{"ha":921,"x_min":-32,"x_max":928,"o":"m 414 460 l 472 460 q 579 479 535 460 q 650 532 623 498 q 689 613 677 566 q 701 717 701 661 q 689 806 701 769 q 656 865 677 842 q 606 899 635 888 q 542 909 576 909 l 511 909 l 414 460 m 347 153 q 343 136 345 145 q 342 121 342 126 q 349 97 342 106 q 370 82 357 87 q 402 76 384 77 q 443 74 421 74 l 489 74 l 473 0 l -32 0 l -17 74 l 1 74 q 44 77 23 74 q 81 88 64 79 q 111 113 98 97 q 129 157 123 130 l 271 823 q 279 871 279 859 q 272 895 279 886 q 251 910 264 905 q 219 917 238 915 q 179 918 201 918 l 161 918 l 176 991 l 574 991 q 721 974 655 991 q 832 923 787 957 q 903 838 878 888 q 928 721 928 787 q 921 646 928 686 q 897 569 914 607 q 849 497 880 531 q 771 436 819 463 q 658 395 724 410 q 503 379 592 379 l 397 379 l 347 153 z "},"Q":{"ha":1093,"x_min":86,"x_max":1061,"o":"m 86 370 q 103 509 86 436 q 153 653 119 583 q 235 788 186 724 q 350 901 285 852 q 498 978 416 949 q 677 1007 580 1007 q 824 985 754 1007 q 946 916 893 962 q 1030 797 999 869 q 1061 625 1061 725 q 1049 505 1061 568 q 1011 379 1036 442 q 949 255 987 315 q 860 145 911 195 q 746 56 810 94 q 606 0 682 18 q 620 -126 608 -77 q 653 -203 632 -175 q 702 -242 674 -231 q 765 -253 730 -253 l 787 -253 l 770 -334 l 669 -334 q 553 -315 607 -334 q 460 -257 500 -296 q 397 -155 420 -217 q 372 -4 374 -92 q 257 39 309 9 q 166 116 204 69 q 107 227 128 163 q 86 370 86 290 m 313 336 q 327 219 313 268 q 367 138 342 170 q 427 92 393 106 q 501 77 462 77 q 606 104 559 77 q 690 179 653 132 q 755 285 728 225 q 801 410 783 345 q 827 538 819 474 q 836 657 836 602 q 822 774 836 725 q 783 854 808 823 q 724 902 758 886 q 648 917 689 917 q 544 889 591 917 q 459 815 496 861 q 394 708 422 768 q 348 584 366 648 q 321 455 330 519 q 313 336 313 391 m 475 -16 z "},"R":{"ha":982,"x_min":-32,"x_max":953,"o":"m 421 511 l 507 511 q 590 524 551 511 q 656 565 628 537 q 701 636 684 592 q 717 742 717 680 q 709 821 717 789 q 684 872 701 852 q 641 901 667 892 q 581 909 615 909 l 510 909 l 421 511 m 623 991 q 871 934 789 991 q 953 760 953 876 q 930 640 953 689 q 872 556 907 590 q 792 503 836 523 q 705 473 748 484 l 802 215 q 829 149 816 176 q 858 105 843 121 q 891 81 873 88 q 933 74 909 74 l 939 74 l 924 0 l 909 0 q 784 6 837 0 q 692 30 730 12 q 629 78 654 47 q 589 158 604 109 l 501 431 l 406 431 l 351 176 q 344 139 346 151 q 342 121 342 126 q 349 97 342 106 q 370 82 357 87 q 402 76 384 77 q 443 74 421 74 l 489 74 l 473 0 l -32 0 l -17 74 l 1 74 q 44 77 23 74 q 81 88 64 79 q 111 113 98 97 q 129 157 123 130 l 271 823 q 279 871 279 859 q 272 895 279 886 q 251 910 264 905 q 219 917 238 915 q 179 918 201 918 l 161 918 l 176 991 l 623 991 z "},"S":{"ha":814,"x_min":20,"x_max":827,"o":"m 363 -14 q 212 2 277 -14 q 105 45 148 18 q 41 109 62 72 q 20 189 20 146 q 33 246 20 222 q 70 287 46 271 q 127 311 94 303 q 200 319 160 319 q 214 209 200 256 q 252 131 227 162 q 310 85 276 100 q 385 71 344 71 q 454 82 424 71 q 506 112 485 93 q 539 158 528 132 q 550 214 550 184 q 543 267 550 243 q 517 315 536 292 q 465 361 498 338 q 379 414 431 385 q 284 475 325 444 q 215 543 243 507 q 174 624 188 580 q 160 722 160 667 q 185 837 160 785 q 257 927 210 889 q 370 985 304 964 q 519 1006 437 1006 q 654 994 597 1006 q 750 960 712 981 q 808 911 789 939 q 827 850 827 882 q 784 761 827 793 q 644 729 741 729 q 638 794 644 760 q 616 856 632 828 q 574 903 601 884 q 507 921 548 921 q 452 912 479 921 q 403 886 425 903 q 368 841 381 868 q 354 778 354 814 q 366 715 354 741 q 400 668 377 690 q 458 625 423 646 q 539 579 492 604 q 694 453 644 522 q 745 296 745 385 q 718 164 745 222 q 641 67 691 106 q 521 7 591 28 q 363 -14 450 -14 z "},"T":{"ha":907,"x_min":94,"x_max":1022,"o":"m 144 0 l 160 74 l 178 74 q 220 77 199 74 q 258 88 241 79 q 287 113 275 97 q 306 157 300 130 l 463 907 l 351 907 q 296 899 319 907 q 257 874 273 890 q 229 836 240 859 q 207 782 217 812 l 187 722 l 94 722 l 158 991 l 1022 991 l 974 722 l 880 722 q 883 744 881 727 q 886 779 884 760 q 890 814 888 798 q 892 833 892 830 q 870 888 892 870 q 794 907 848 907 l 684 907 l 524 153 q 520 136 522 145 q 518 121 518 126 q 526 97 518 106 q 547 82 533 87 q 579 76 560 77 q 619 74 597 74 l 637 74 l 623 0 l 144 0 z "},"U":{"ha":1038,"x_min":138,"x_max":1153,"o":"m 524 85 q 630 103 587 85 q 703 154 673 121 q 749 230 732 186 q 778 328 767 275 l 885 829 q 889 853 887 841 q 890 871 890 865 q 883 895 890 886 q 862 910 876 905 q 830 917 849 915 q 790 918 812 918 l 772 918 l 787 991 l 1153 991 l 1137 918 l 1120 918 q 1076 915 1097 918 q 1038 903 1055 912 q 1007 878 1020 895 q 989 833 995 861 l 878 306 q 829 168 861 228 q 747 68 797 109 q 629 7 697 28 q 473 -14 562 -14 q 330 2 392 -14 q 224 49 267 18 q 160 125 182 80 q 138 227 138 170 q 139 254 138 237 q 142 287 140 270 q 147 321 144 304 q 153 350 150 338 l 254 823 q 262 871 262 861 q 255 895 262 886 q 234 910 248 905 q 203 917 221 915 q 163 918 184 918 l 144 918 l 160 991 l 640 991 l 625 918 l 607 918 q 563 915 584 918 q 524 904 541 912 q 493 879 506 895 q 475 836 481 863 l 370 347 q 364 320 367 335 q 358 289 361 305 q 354 257 356 273 q 353 227 353 241 q 396 121 353 157 q 524 85 439 85 z "},"V":{"ha":970,"x_min":118,"x_max":1108,"o":"m 447 863 q 448 838 447 851 q 450 815 449 825 l 494 449 q 499 392 497 425 q 503 327 502 360 q 505 265 504 294 q 505 216 505 235 q 523 256 513 235 q 540 297 532 277 q 556 334 549 317 q 570 361 564 351 l 819 810 q 839 851 833 833 q 844 884 844 869 q 824 911 844 904 q 764 918 804 918 l 732 918 l 746 991 l 1108 991 l 1093 918 l 1060 918 q 1025 915 1040 918 q 998 902 1010 911 q 972 873 985 892 q 942 825 959 855 l 479 0 l 340 0 l 224 851 q 213 885 220 872 q 194 906 205 899 q 168 916 182 913 q 136 918 153 918 l 118 918 l 134 991 l 591 991 l 576 918 l 545 918 q 473 907 500 918 q 447 863 447 896 z "},"W":{"ha":1482,"x_min":119,"x_max":1621,"o":"m 1605 918 l 1572 918 q 1536 914 1552 918 q 1507 899 1520 910 q 1481 868 1494 888 q 1453 817 1468 848 l 1064 0 l 905 0 l 810 663 l 472 0 l 300 0 l 225 851 q 216 885 223 872 q 196 906 208 899 q 170 916 184 913 q 138 918 155 918 l 119 918 l 135 991 l 589 991 l 574 918 l 542 918 q 471 907 497 918 q 444 863 444 896 q 445 836 444 851 q 447 802 446 821 l 473 456 q 477 407 475 437 q 481 344 479 377 q 484 278 483 311 q 485 224 485 246 q 518 306 499 264 q 558 387 537 347 l 868 982 l 970 982 l 1048 452 q 1065 326 1058 386 q 1072 221 1072 266 q 1092 275 1080 244 q 1117 339 1103 305 q 1147 409 1131 374 q 1178 478 1162 444 l 1332 810 q 1347 849 1341 829 q 1353 884 1353 869 q 1335 911 1353 904 q 1276 918 1316 918 l 1244 918 l 1258 991 l 1621 991 l 1605 918 z "},"X":{"ha":1017,"x_min":-58,"x_max":1107,"o":"m 1092 918 l 1079 918 q 1042 913 1059 918 q 1007 897 1025 909 q 969 867 989 886 q 922 819 949 848 l 661 545 l 832 147 q 877 89 851 104 q 928 74 902 74 l 946 74 l 930 0 l 472 0 l 488 74 l 509 74 q 569 86 550 74 q 587 122 587 99 q 581 166 587 142 q 561 218 574 190 l 476 410 l 282 208 q 242 159 257 182 q 227 115 227 135 q 230 98 227 105 q 242 85 233 90 q 265 77 250 79 q 302 74 279 74 l 307 74 l 292 0 l -58 0 l -43 74 l -29 74 q 10 79 -8 74 q 46 96 28 84 q 86 126 65 107 q 135 174 108 145 l 441 490 l 286 847 q 266 884 276 870 q 242 906 255 899 q 213 916 229 913 q 178 918 197 918 l 165 918 l 180 991 l 640 991 l 625 918 l 593 918 q 543 908 558 918 q 528 879 528 898 q 534 845 528 865 q 553 796 541 825 l 627 624 l 790 799 q 824 842 809 819 q 839 884 839 865 q 822 910 839 901 q 772 918 805 918 l 768 918 l 783 991 l 1107 991 l 1092 918 z "},"Y":{"ha":962,"x_min":122,"x_max":1099,"o":"m 154 0 l 170 74 l 207 74 q 249 77 229 74 q 286 89 269 80 q 315 115 303 98 q 334 158 328 131 l 374 351 l 224 844 q 211 879 218 865 q 196 902 205 893 q 174 914 187 910 q 140 918 161 918 l 122 918 l 138 991 l 589 991 l 574 918 l 511 918 q 466 907 479 918 q 453 878 453 897 q 457 842 453 865 q 469 787 461 819 l 519 591 q 530 548 524 571 q 539 502 535 525 q 547 457 544 479 q 551 418 550 435 q 591 488 564 446 q 653 582 617 531 l 790 778 q 820 829 807 802 q 832 880 832 857 q 813 909 832 899 q 747 918 793 918 l 718 918 l 734 991 l 1099 991 l 1083 918 l 1057 918 q 1028 914 1042 918 q 1002 900 1015 910 q 973 872 988 889 q 939 828 958 854 l 595 350 l 553 153 q 549 136 551 145 q 547 121 547 126 q 555 97 547 106 q 576 82 562 87 q 608 76 589 77 q 648 74 627 74 l 682 74 l 667 0 l 154 0 z "},"Z":{"ha":925,"x_min":-3,"x_max":979,"o":"m 965 921 l 279 85 l 566 85 q 625 93 597 85 q 675 119 652 101 q 717 165 699 136 q 747 236 735 194 l 762 286 l 863 286 l 796 0 l -3 0 l 9 69 l 694 907 l 453 907 q 352 878 390 907 q 296 786 313 850 l 272 705 l 172 705 l 240 991 l 979 991 l 965 921 z "},"[":{"ha":575,"x_min":29,"x_max":676,"o":"m 29 -178 l 292 1055 l 676 1055 l 661 982 l 602 982 q 557 979 578 982 q 517 965 536 975 q 486 935 499 954 q 465 882 472 915 l 278 -4 q 275 -23 276 -15 q 273 -39 273 -31 q 281 -73 273 -60 q 301 -93 288 -86 q 332 -102 315 -100 q 370 -104 350 -104 l 429 -104 l 414 -178 l 29 -178 z "},"\\":{"ha":400,"x_min":150,"x_max":322,"o":"m 150 1055 l 248 1055 l 322 -168 l 225 -168 l 150 1055 z "},"]":{"ha":575,"x_min":-74,"x_max":572,"o":"m 572 1055 l 310 -178 l -74 -178 l -58 -104 l 1 -104 q 46 -101 24 -104 q 85 -87 67 -98 q 116 -57 102 -77 q 136 -4 130 -37 l 323 882 q 328 917 328 903 q 320 951 328 938 q 300 971 313 964 q 269 980 287 978 q 232 982 252 982 l 172 982 l 187 1055 l 572 1055 z "},"^":{"ha":777,"x_min":93,"x_max":741,"o":"m 386 991 l 446 991 l 741 364 l 632 364 l 415 840 l 201 364 l 93 364 l 386 991 z "},"_":{"ha":637,"x_min":-126,"x_max":542,"o":"m 524 -197 l -126 -197 l -109 -115 l 542 -115 l 524 -197 z "},"`":{"ha":802,"x_min":338,"x_max":650,"o":"m 564 842 q 500 886 534 859 q 435 943 467 913 q 378 1001 404 972 q 338 1050 352 1029 l 342 1064 l 546 1064 q 567 1010 554 1039 q 595 953 581 981 q 624 901 609 925 q 650 860 638 876 l 646 842 l 564 842 z "},"a":{"ha":924,"x_min":56,"x_max":876,"o":"m 657 -14 q 558 15 595 -14 q 521 97 521 43 q 523 139 521 119 q 530 187 525 160 l 521 187 q 470 101 495 139 q 413 38 444 64 q 343 0 382 13 q 254 -14 305 -14 q 168 6 205 -14 q 105 59 130 25 q 68 139 81 93 q 56 240 56 186 q 68 354 56 294 q 106 471 81 413 q 168 581 131 528 q 253 672 205 633 q 361 735 302 711 q 492 758 421 758 q 547 754 519 758 q 601 743 575 749 q 649 727 627 736 q 688 710 672 719 l 761 743 l 835 743 l 743 310 q 736 279 741 298 q 729 239 732 260 q 722 198 725 218 q 720 164 720 178 q 733 113 720 130 q 768 96 747 96 q 806 104 788 96 q 846 125 824 113 l 876 69 q 836 41 859 56 q 786 14 814 26 q 727 -6 759 2 q 657 -14 694 -14 m 267 239 q 272 172 267 199 q 288 128 278 144 q 312 104 298 111 q 342 97 326 97 q 405 123 372 97 q 466 193 437 150 q 517 290 494 236 q 551 400 540 345 l 600 631 q 563 660 587 650 q 511 669 538 669 q 437 648 471 669 q 376 592 404 627 q 329 512 349 557 q 294 419 308 467 q 273 324 280 371 q 267 239 267 277 z "},"b":{"ha":865,"x_min":29,"x_max":810,"o":"m 214 864 q 218 882 216 873 q 221 900 220 892 q 223 915 222 909 q 224 924 224 921 q 220 954 224 943 q 207 972 216 966 q 184 980 198 978 q 150 982 170 982 l 118 982 l 131 1055 l 468 1055 l 412 791 q 404 759 410 779 q 391 716 398 739 q 375 669 384 693 q 359 623 367 645 q 346 584 352 602 q 336 557 340 566 l 343 557 q 395 645 368 608 q 454 708 422 683 q 524 746 486 733 q 607 758 561 758 q 688 742 651 758 q 752 694 726 726 q 794 615 779 663 q 810 507 810 568 q 796 391 810 451 q 756 272 783 330 q 691 162 730 214 q 603 72 653 111 q 493 9 553 33 q 363 -14 433 -14 q 308 -9 334 -14 q 259 1 281 -5 q 217 17 236 8 q 186 36 199 26 l 107 -4 l 29 -4 l 214 864 m 599 497 q 593 567 599 538 q 577 613 587 595 q 553 639 567 631 q 525 647 540 647 q 475 632 499 647 q 430 592 452 616 q 391 537 409 568 q 359 477 373 507 q 336 420 345 447 q 322 376 326 393 l 265 114 q 303 86 280 97 q 355 75 326 75 q 430 97 396 75 q 491 153 464 118 q 538 233 518 188 q 572 324 558 277 q 592 416 585 371 q 599 497 599 461 z "},"c":{"ha":733,"x_min":56,"x_max":733,"o":"m 421 92 q 487 101 458 92 q 541 127 517 111 q 583 164 564 144 q 615 205 601 184 q 630 181 624 197 q 636 144 636 165 q 620 89 636 117 q 571 38 604 61 q 486 1 537 16 q 363 -14 434 -14 q 244 4 300 -14 q 146 58 188 22 q 80 147 104 94 q 56 273 56 201 q 68 381 56 325 q 107 491 81 437 q 171 593 133 545 q 260 678 210 642 q 374 736 311 715 q 513 758 437 758 q 612 746 570 758 q 681 714 654 734 q 720 668 707 694 q 733 611 733 641 q 724 569 733 589 q 694 531 715 548 q 642 505 674 515 q 564 494 610 494 q 557 564 564 531 q 538 622 551 597 q 506 661 525 646 q 463 675 488 675 q 407 655 433 675 q 359 602 380 635 q 320 527 337 569 q 292 439 304 484 q 274 350 280 394 q 268 271 268 307 q 307 139 268 186 q 421 92 345 92 z "},"d":{"ha":924,"x_min":56,"x_max":901,"o":"m 267 239 q 272 172 267 199 q 288 129 278 145 q 312 104 298 112 q 342 97 326 97 q 405 123 372 97 q 465 193 437 150 q 516 290 494 235 q 551 400 539 344 l 600 631 q 559 660 585 650 q 509 669 534 669 q 436 648 469 669 q 376 592 403 627 q 329 512 349 557 q 294 419 308 467 q 274 324 281 371 q 267 239 267 277 m 741 298 q 735 270 739 288 q 728 231 731 251 q 722 191 724 210 q 720 158 720 171 q 734 111 720 125 q 768 96 749 96 q 807 105 786 96 q 846 125 829 115 l 876 71 q 835 41 858 56 q 784 14 812 26 q 725 -6 757 1 q 657 -14 693 -14 q 602 -6 627 -14 q 558 14 576 1 q 531 48 541 28 q 521 97 521 69 q 522 120 521 110 q 523 140 522 130 q 526 161 524 150 q 530 187 528 172 l 522 187 q 468 96 496 134 q 407 33 439 58 q 338 -2 375 9 q 258 -14 301 -14 q 166 7 205 -14 q 103 62 128 27 q 67 142 79 96 q 56 240 56 189 q 68 354 56 294 q 105 471 81 413 q 166 581 130 528 q 250 672 203 633 q 356 735 298 711 q 482 758 414 758 q 558 749 523 758 q 621 725 593 741 q 625 746 623 734 q 629 769 627 758 q 634 792 631 781 q 637 808 636 802 l 650 864 q 654 882 652 873 q 657 900 656 892 q 659 915 659 909 q 660 924 660 921 q 656 954 660 943 q 643 972 652 966 q 620 980 634 978 q 586 982 606 982 l 554 982 l 567 1055 l 901 1055 l 741 298 z "},"e":{"ha":743,"x_min":56,"x_max":736,"o":"m 419 92 q 484 101 453 92 q 540 127 514 111 q 587 163 566 143 q 623 204 608 183 q 635 178 631 194 q 640 144 640 162 q 624 92 640 119 q 574 40 608 64 q 489 2 541 17 q 366 -14 437 -14 q 245 4 302 -14 q 147 57 189 22 q 80 147 104 93 q 56 273 56 201 q 69 381 56 325 q 110 491 83 437 q 176 594 136 545 q 268 679 216 642 q 385 737 320 715 q 526 758 450 758 q 681 715 626 758 q 736 595 736 672 q 705 487 736 538 q 618 396 673 435 q 488 334 564 357 q 322 311 412 311 q 297 311 311 311 q 271 313 283 311 q 268 285 269 299 q 268 260 268 271 q 306 135 268 179 q 419 92 343 92 m 468 675 q 404 649 434 675 q 349 583 373 624 q 307 492 324 543 q 281 392 289 441 l 293 392 q 389 406 345 392 q 466 445 433 419 q 518 505 499 470 q 536 585 536 541 q 518 651 536 627 q 468 675 500 675 z "},"f":{"ha":561,"x_min":-193,"x_max":782,"o":"m 590 650 l 414 650 l 282 29 q 242 -100 267 -45 q 186 -196 217 -156 q 119 -263 155 -237 q 45 -305 83 -290 q -32 -327 7 -321 q -109 -334 -71 -334 q -131 -333 -119 -334 q -155 -330 -143 -332 q -176 -326 -166 -328 q -193 -322 -186 -324 l -176 -241 q -146 -248 -165 -245 q -113 -252 -128 -252 q -53 -240 -79 -252 q -6 -201 -26 -229 q 32 -127 15 -174 q 62 -12 48 -81 l 203 650 l 77 650 l 90 715 l 224 745 l 235 796 q 278 916 251 865 q 345 1001 305 967 q 439 1053 385 1036 q 564 1069 493 1069 q 658 1060 617 1069 q 727 1034 699 1050 q 768 996 754 1018 q 782 949 782 974 q 741 877 782 903 q 623 851 701 851 q 620 902 623 878 q 609 946 616 927 q 589 976 602 965 q 558 987 577 987 q 491 949 514 987 q 453 833 467 911 l 435 745 l 610 745 l 590 650 z "},"g":{"ha":806,"x_min":-81,"x_max":871,"o":"m 123 457 q 145 558 123 505 q 209 656 166 612 q 317 729 252 701 q 471 758 382 758 q 557 748 517 758 q 628 714 597 737 q 661 751 644 734 q 699 781 679 768 q 741 801 718 793 q 789 808 763 808 q 851 788 831 808 q 871 734 871 767 q 866 700 871 718 q 852 668 862 682 q 824 645 842 654 q 782 636 807 636 q 769 680 782 665 q 733 696 757 696 q 699 689 714 696 q 669 671 683 682 q 694 621 684 651 q 704 559 704 591 q 695 495 704 529 q 669 429 686 462 q 624 366 651 396 q 559 313 597 336 q 475 276 522 290 q 370 262 427 262 q 354 263 363 262 q 334 263 344 263 q 314 264 323 264 q 298 267 304 265 q 244 234 266 252 q 222 193 222 215 q 228 174 222 182 q 244 162 234 167 q 267 155 254 158 q 297 151 281 153 l 453 136 q 611 81 555 127 q 668 -53 668 35 q 639 -168 668 -116 q 555 -256 610 -220 q 419 -313 500 -293 q 236 -334 339 -334 q 91 -321 151 -334 q -7 -286 31 -309 q -63 -230 -45 -262 q -81 -157 -81 -197 q -62 -90 -81 -120 q -12 -38 -43 -60 q 59 -1 19 -16 q 142 21 99 14 q 115 40 128 28 q 93 67 102 52 q 77 99 83 82 q 71 135 71 117 q 79 176 71 157 q 106 213 88 195 q 153 250 125 231 q 221 290 182 269 q 149 355 175 312 q 123 457 123 397 m 489 -118 q 459 -58 489 -79 q 357 -31 429 -37 l 233 -20 q 176 -35 203 -24 q 129 -64 149 -47 q 97 -102 109 -81 q 85 -147 85 -123 q 93 -188 85 -169 q 120 -220 100 -206 q 173 -242 139 -234 q 257 -250 206 -250 q 362 -239 318 -250 q 434 -210 406 -229 q 475 -168 462 -192 q 489 -118 489 -144 m 374 347 q 418 359 398 347 q 455 389 439 370 q 484 432 471 408 q 504 482 496 456 q 515 533 511 508 q 519 578 519 557 q 500 649 519 627 q 444 672 481 672 q 381 648 408 672 q 336 589 354 625 q 308 514 317 554 q 298 443 298 475 q 318 370 298 392 q 374 347 338 347 z "},"h":{"ha":911,"x_min":29,"x_max":889,"o":"m 511 129 q 516 200 511 159 q 533 294 522 241 l 557 404 q 565 437 560 418 q 573 478 569 457 q 579 521 576 500 q 582 559 582 543 q 579 587 582 572 q 571 612 577 601 q 553 631 565 624 q 524 639 542 639 q 476 623 500 639 q 431 581 453 607 q 390 521 410 555 q 355 452 371 488 q 328 383 339 417 q 310 322 316 349 l 237 0 l 29 0 l 212 864 q 216 882 214 873 q 220 900 218 892 q 222 915 221 909 q 222 924 222 921 q 218 954 222 943 q 205 972 214 966 q 182 980 197 978 q 149 982 168 982 l 119 982 l 132 1055 l 468 1055 l 403 750 q 391 703 397 729 q 378 652 385 676 q 364 596 371 625 l 372 596 q 427 668 399 637 q 488 719 455 699 q 558 748 520 739 q 643 758 597 758 q 718 745 687 758 q 767 710 748 732 q 793 660 785 688 q 802 599 802 631 q 799 561 802 581 q 792 521 796 541 q 784 480 789 500 q 777 441 780 460 l 745 293 q 730 222 736 255 q 725 160 725 189 q 738 113 725 130 q 774 97 751 97 q 813 105 795 97 q 856 129 831 113 l 889 82 q 851 47 872 64 q 804 16 830 30 q 746 -5 778 3 q 676 -14 714 -14 q 554 24 597 -14 q 511 129 511 62 z "},"i":{"ha":492,"x_min":79,"x_max":469,"o":"m 421 745 l 325 293 q 311 222 317 255 q 306 160 306 189 q 318 113 306 130 q 354 97 331 97 q 394 105 376 97 q 436 129 412 113 l 469 82 q 432 47 453 64 q 385 16 411 30 q 327 -5 358 3 q 257 -14 295 -14 q 134 24 177 -14 q 92 129 92 62 q 97 200 92 159 q 114 294 102 241 l 168 553 q 172 571 170 562 q 175 589 174 581 q 177 604 176 597 q 178 612 178 610 q 174 643 178 631 q 161 661 170 654 q 138 669 152 667 q 104 671 124 671 l 79 671 l 92 745 l 421 745 m 325 869 q 282 874 302 869 q 248 890 262 880 q 225 918 233 901 q 216 956 216 934 q 227 1007 216 986 q 255 1043 237 1029 q 296 1063 273 1057 q 346 1069 320 1069 q 388 1065 368 1069 q 424 1049 408 1060 q 448 1022 439 1038 q 457 982 457 1005 q 446 932 457 954 q 416 897 435 911 q 374 876 397 883 q 325 869 350 869 z "},"j":{"ha":469,"x_min":-195,"x_max":457,"o":"m 325 869 q 282 874 302 869 q 248 890 262 880 q 225 918 233 901 q 216 956 216 934 q 227 1007 216 986 q 255 1043 237 1029 q 296 1063 273 1057 q 346 1069 320 1069 q 388 1065 368 1069 q 424 1049 408 1060 q 448 1022 439 1038 q 457 982 457 1005 q 446 932 457 954 q 416 897 435 911 q 374 876 397 883 q 325 869 350 869 m 421 745 l 260 -11 q 209 -166 241 -104 q 135 -265 177 -228 q 45 -318 94 -302 q -57 -334 -4 -334 q -133 -329 -101 -334 q -195 -317 -165 -324 l -178 -244 q -149 -251 -168 -248 q -115 -254 -130 -254 q -59 -242 -83 -254 q -16 -202 -35 -231 q 19 -127 3 -174 q 49 -11 34 -80 l 168 553 q 172 571 170 562 q 175 589 174 581 q 177 604 176 597 q 178 612 178 610 q 174 643 178 631 q 161 661 170 654 q 138 669 152 667 q 104 671 124 671 l 79 671 l 92 745 l 421 745 z "},"k":{"ha":829,"x_min":29,"x_max":882,"o":"m 297 277 l 237 0 l 29 0 l 212 864 q 216 882 214 873 q 220 900 218 892 q 222 915 221 909 q 222 924 222 921 q 218 954 222 943 q 205 972 214 966 q 182 980 197 978 q 149 982 168 982 l 119 982 l 132 1055 l 468 1055 l 395 717 q 373 619 382 662 q 355 537 364 576 q 336 460 346 498 q 314 375 326 421 l 530 571 q 557 597 547 586 q 573 617 568 609 q 581 632 579 626 q 583 644 583 639 q 566 667 583 659 q 518 675 549 675 l 532 745 l 882 745 l 868 675 q 767 647 820 675 q 647 557 714 618 l 536 454 l 640 228 q 684 149 663 179 q 723 102 705 119 q 757 80 741 85 q 785 74 772 74 l 790 74 l 775 0 l 704 0 q 613 7 653 0 q 543 30 573 14 q 490 71 512 46 q 454 131 469 96 l 372 325 l 297 277 z "},"l":{"ha":492,"x_min":69,"x_max":468,"o":"m 332 97 q 372 105 353 97 q 414 129 390 113 l 447 82 q 410 47 431 64 q 362 16 389 30 q 304 -5 336 3 q 235 -14 273 -14 q 112 24 155 -14 q 69 129 69 62 q 92 294 69 189 l 212 864 q 216 882 214 873 q 220 900 218 892 q 222 915 221 909 q 222 924 222 921 q 218 954 222 943 q 205 972 214 966 q 182 980 197 978 q 149 982 168 982 l 119 982 l 132 1055 l 468 1055 l 302 293 q 289 222 294 255 q 283 160 283 189 q 296 113 283 130 q 332 97 309 97 z "},"m":{"ha":1346,"x_min":52,"x_max":1324,"o":"m 1111 -9 q 989 28 1031 -9 q 946 134 946 66 q 951 204 946 163 q 968 298 956 245 l 991 408 q 999 441 995 422 q 1007 483 1004 461 q 1014 525 1011 504 q 1017 564 1017 547 q 1014 591 1017 576 q 1006 616 1012 605 q 989 635 1000 628 q 961 643 978 643 q 917 627 939 643 q 873 586 895 612 q 834 528 852 561 q 800 460 815 495 q 774 392 785 426 q 758 332 763 359 l 747 273 q 741 234 745 259 q 733 181 737 210 q 725 123 729 153 q 718 67 721 93 q 713 24 715 42 q 711 0 711 5 l 496 0 q 498 28 496 8 q 505 76 500 49 q 514 136 509 104 q 525 199 519 168 q 536 260 530 231 q 546 310 541 289 l 567 407 q 573 439 570 420 q 581 480 577 459 q 587 524 585 502 q 590 562 590 545 q 589 589 590 575 q 583 613 587 602 q 569 632 578 625 q 545 639 560 639 q 499 625 522 639 q 455 587 476 610 q 415 532 434 563 q 381 470 396 502 q 354 406 366 437 q 338 349 343 374 l 260 0 l 52 0 l 168 553 q 172 571 170 562 q 175 589 174 581 q 177 604 176 597 q 178 612 178 610 q 174 643 178 631 q 161 661 170 654 q 138 669 152 667 q 104 671 124 671 l 79 671 l 92 745 l 414 745 l 387 603 l 397 603 q 453 674 425 645 q 514 723 482 704 q 582 750 546 741 q 659 758 617 758 q 731 746 702 758 q 778 713 760 734 q 803 665 795 692 q 811 607 811 637 l 811 596 l 819 596 q 872 669 845 637 q 932 721 900 700 q 1001 752 964 741 q 1083 762 1038 762 q 1155 749 1126 762 q 1202 714 1184 736 q 1229 664 1221 692 q 1236 603 1236 635 q 1234 565 1236 585 q 1227 525 1231 545 q 1219 484 1223 505 q 1211 446 1215 464 l 1179 297 q 1165 227 1171 260 q 1160 164 1160 193 q 1173 118 1160 134 q 1208 102 1185 102 q 1248 110 1230 102 q 1291 134 1266 118 l 1324 86 q 1286 51 1307 68 q 1239 20 1265 34 q 1181 -1 1213 7 q 1111 -9 1149 -9 z "},"n":{"ha":933,"x_min":52,"x_max":911,"o":"m 533 129 q 555 294 533 189 l 578 404 q 585 437 581 418 q 593 478 589 457 q 600 521 597 500 q 603 559 603 543 q 601 587 603 572 q 592 612 598 601 q 574 631 585 624 q 545 639 563 639 q 497 623 521 639 q 452 581 474 607 q 411 521 431 555 q 375 452 391 488 q 348 383 359 417 q 330 322 336 349 l 260 0 l 52 0 l 168 553 q 172 571 170 562 q 175 589 174 581 q 177 604 176 597 q 178 612 178 610 q 174 643 178 631 q 161 661 170 654 q 138 669 152 667 q 104 671 124 671 l 79 671 l 92 745 l 400 745 l 385 596 l 393 596 q 448 668 420 637 q 509 719 476 699 q 579 748 541 739 q 664 758 618 758 q 738 745 708 758 q 787 710 768 732 q 814 660 806 688 q 822 599 822 631 q 820 561 822 581 q 813 521 817 541 q 805 480 810 500 q 798 441 801 460 l 766 293 q 753 222 758 255 q 747 160 747 189 q 760 113 747 130 q 796 97 772 97 q 836 105 818 97 q 878 129 854 113 l 911 82 q 873 47 895 64 q 826 16 852 30 q 768 -5 800 3 q 699 -14 736 -14 q 576 24 618 -14 q 533 129 533 62 z "},"o":{"ha":859,"x_min":56,"x_max":802,"o":"m 56 278 q 68 386 56 330 q 105 495 80 441 q 167 596 130 549 q 255 680 204 644 q 369 737 305 716 q 511 758 433 758 q 624 742 571 758 q 716 690 677 725 q 779 599 755 654 q 802 467 802 544 q 790 361 802 416 q 754 253 779 307 q 693 152 730 200 q 606 66 656 103 q 492 8 556 30 q 350 -14 429 -14 q 231 4 285 -14 q 138 59 176 22 q 77 150 99 95 q 56 278 56 205 m 375 86 q 443 107 412 86 q 497 164 473 129 q 538 243 521 199 q 567 336 556 288 q 584 429 578 383 q 590 511 590 475 q 562 629 590 593 q 485 665 534 665 q 420 645 450 665 q 366 591 390 625 q 323 513 342 557 q 293 422 305 469 q 274 329 280 376 q 268 244 268 283 q 296 123 268 159 q 375 86 325 86 z "},"p":{"ha":865,"x_min":-41,"x_max":810,"o":"m 600 497 q 596 552 600 526 q 584 600 593 579 q 561 634 576 621 q 525 647 547 647 q 479 634 502 647 q 435 598 456 621 q 395 547 414 576 q 361 486 376 517 q 335 422 346 454 q 318 363 323 391 l 265 114 q 281 101 271 108 q 304 88 292 94 q 333 79 317 83 q 364 75 348 75 q 434 96 401 75 q 492 150 466 116 q 538 228 518 184 q 572 318 559 271 q 593 411 586 365 q 600 497 600 458 m -41 -334 l 147 553 q 151 571 149 562 q 154 589 153 581 q 156 604 155 597 q 157 612 157 610 q 153 643 157 631 q 140 661 149 654 q 117 669 131 667 q 83 671 103 671 l 58 671 l 71 745 l 370 745 l 334 559 l 343 559 q 392 640 367 603 q 448 703 417 676 q 517 744 478 729 q 607 758 555 758 q 690 742 652 758 q 754 694 728 726 q 795 615 781 662 q 810 507 810 568 q 798 399 810 457 q 762 283 786 341 q 703 172 739 225 q 619 77 667 118 q 511 11 571 36 q 379 -14 451 -14 q 301 -5 337 -14 q 237 18 264 3 q 235 -4 237 7 q 231 -25 233 -14 q 227 -49 229 -37 l 207 -142 q 203 -160 205 -151 q 200 -178 201 -170 q 198 -193 199 -186 q 197 -201 197 -199 q 201 -232 197 -220 q 214 -250 205 -243 q 237 -258 223 -256 q 271 -260 251 -260 l 323 -260 l 311 -334 l -41 -334 z "},"q":{"ha":876,"x_min":56,"x_max":838,"o":"m 267 244 q 272 176 267 204 q 288 131 278 149 q 312 105 298 113 q 342 97 326 97 q 384 110 363 97 q 427 144 406 122 q 467 196 448 166 q 502 260 486 226 q 531 330 518 294 q 550 401 543 366 l 600 631 q 567 658 591 646 q 510 669 543 669 q 435 648 469 669 q 374 590 401 626 q 327 509 347 555 q 293 417 307 464 q 273 325 280 370 q 267 244 267 279 m 478 -56 q 484 -29 480 -45 q 491 6 487 -13 q 499 46 495 25 q 508 87 504 66 q 530 187 518 134 l 522 187 q 473 105 498 142 q 417 41 448 68 q 347 1 387 15 q 253 -14 307 -14 q 173 3 209 -14 q 111 51 136 19 q 70 130 85 83 q 56 240 56 178 q 69 354 56 294 q 107 471 82 413 q 169 581 132 528 q 254 672 206 633 q 358 735 301 711 q 482 758 416 758 q 542 754 513 758 q 597 744 571 750 q 646 729 624 737 q 686 713 669 721 l 768 758 l 838 758 l 647 -142 q 640 -179 643 -159 q 637 -212 637 -199 q 654 -249 637 -237 q 711 -260 671 -260 l 764 -260 l 751 -334 l 422 -334 l 478 -56 z "},"r":{"ha":765,"x_min":52,"x_max":774,"o":"m 178 623 q 161 660 178 648 q 104 671 144 671 l 79 671 l 92 745 l 399 745 l 370 554 l 376 554 q 424 642 400 604 q 477 706 448 680 q 543 745 506 732 q 628 758 579 758 q 738 730 702 758 q 774 650 774 703 q 732 543 774 578 q 610 507 690 507 q 607 564 610 538 q 596 607 604 589 q 575 635 588 625 q 542 644 562 644 q 500 628 522 644 q 457 585 479 612 q 415 518 435 557 q 375 435 394 480 q 340 340 356 390 q 314 240 325 291 l 261 0 l 52 0 l 170 558 q 175 589 172 570 q 178 623 178 608 z "},"s":{"ha":714,"x_min":24,"x_max":676,"o":"m 310 69 q 363 76 338 69 q 405 97 387 83 q 433 129 422 110 q 443 174 443 149 q 434 216 443 197 q 405 250 425 234 q 356 281 386 266 q 286 317 327 297 q 213 357 245 336 q 157 406 180 379 q 121 465 134 432 q 109 538 109 497 q 130 629 109 589 q 193 699 152 670 q 291 743 233 728 q 422 758 349 758 q 541 747 492 758 q 620 719 589 736 q 663 677 650 701 q 676 628 676 653 q 633 547 676 572 q 517 522 591 522 q 511 578 517 550 q 493 629 506 606 q 460 667 480 652 q 410 681 439 681 q 361 673 382 681 q 325 652 340 665 q 301 621 309 639 q 293 583 293 604 q 302 543 293 560 q 331 511 311 526 q 380 482 350 496 q 450 449 410 467 q 528 406 495 429 q 582 356 560 383 q 613 298 603 330 q 624 228 624 267 q 603 127 624 172 q 538 51 581 82 q 433 3 496 20 q 286 -14 370 -14 q 178 -3 227 -14 q 95 26 130 7 q 42 75 61 46 q 24 139 24 103 q 37 194 24 172 q 70 230 50 216 q 118 251 91 244 q 172 257 144 257 q 180 186 172 220 q 203 126 187 152 q 246 84 220 100 q 310 69 272 69 z "},"t":{"ha":579,"x_min":83,"x_max":591,"o":"m 375 100 q 434 111 408 100 q 484 136 460 121 l 515 83 q 467 46 492 64 q 412 15 441 28 q 348 -6 382 2 q 273 -14 313 -14 q 202 -4 235 -14 q 145 26 170 6 q 107 77 121 46 q 93 149 93 107 q 94 176 93 161 q 97 206 95 191 q 102 237 99 222 q 107 265 104 252 l 191 650 l 83 650 l 98 721 q 163 731 128 721 q 236 764 199 741 q 310 825 273 787 q 379 916 347 862 l 460 916 l 424 745 l 591 745 l 572 650 l 403 650 l 319 269 q 309 214 312 239 q 306 170 306 189 q 325 117 306 135 q 375 100 344 100 z "},"u":{"ha":935,"x_min":79,"x_max":913,"o":"m 538 119 q 538 134 538 125 q 540 151 539 142 q 542 167 541 159 q 545 180 543 175 l 533 180 q 473 102 503 137 q 410 41 444 66 q 338 2 377 16 q 250 -12 300 -12 q 175 0 205 -12 q 126 34 144 13 q 100 83 108 55 q 92 142 92 111 q 100 218 92 176 q 115 294 108 259 l 165 539 q 174 591 171 568 q 178 625 178 614 q 161 662 178 653 q 104 671 144 671 l 79 671 l 92 745 l 425 745 l 334 329 q 326 292 330 313 q 318 252 321 272 q 312 213 315 231 q 310 182 310 195 q 323 133 310 151 q 370 115 336 115 q 432 143 400 115 q 494 214 465 170 q 547 312 524 258 q 582 418 570 366 l 656 745 l 863 745 l 768 293 q 754 222 760 255 q 749 160 749 189 q 761 113 749 130 q 798 97 774 97 q 837 105 819 97 q 879 129 855 113 l 913 82 q 875 47 896 64 q 828 16 854 30 q 770 -5 802 3 q 700 -14 738 -14 q 623 -3 654 -14 q 573 25 592 7 q 546 67 554 43 q 538 119 538 92 z "},"v":{"ha":814,"x_min":22,"x_max":770,"o":"m 132 597 q 120 633 128 619 q 101 656 113 648 q 73 667 89 664 q 36 671 56 671 l 22 671 l 39 745 l 311 745 l 375 334 q 390 208 385 263 q 397 118 394 153 l 401 118 q 492 223 449 167 q 569 336 536 279 q 622 446 602 393 q 642 542 642 499 q 615 610 642 589 q 550 632 589 632 q 581 723 550 689 q 665 757 612 757 q 706 750 687 757 q 739 727 725 743 q 762 687 753 711 q 770 628 770 663 q 752 515 770 574 q 706 396 734 456 q 640 280 677 337 q 563 171 602 222 q 484 76 523 120 q 414 1 446 33 l 231 -12 l 132 597 z "},"w":{"ha":1215,"x_min":52,"x_max":1183,"o":"m 1183 640 q 1153 488 1183 568 q 1072 325 1122 408 q 955 160 1021 242 q 819 1 889 77 l 650 -14 q 649 79 650 29 q 647 182 648 129 q 645 288 646 235 q 642 389 644 340 q 640 477 641 437 q 637 547 638 518 q 513 280 583 418 q 351 4 444 141 l 170 -8 l 155 570 q 147 621 155 602 q 127 652 140 641 q 97 667 115 663 q 60 671 80 671 l 52 671 l 74 745 l 342 745 q 349 607 346 675 q 355 478 353 538 q 358 370 357 418 q 359 294 359 322 q 359 209 359 241 q 358 174 358 177 l 368 174 q 437 294 403 229 q 506 431 472 359 q 572 579 540 503 q 635 732 605 655 l 804 737 q 812 652 808 703 q 819 545 816 602 q 826 429 823 488 q 831 316 829 369 q 835 219 833 262 q 836 153 836 176 l 846 153 q 947 289 907 228 q 1010 399 987 349 q 1043 490 1034 450 q 1053 566 1053 531 q 1046 602 1053 586 q 1031 630 1040 618 q 1009 649 1021 642 q 983 660 996 656 q 995 705 985 686 q 1018 735 1004 724 q 1049 753 1031 747 q 1086 758 1067 758 q 1158 728 1133 758 q 1183 640 1183 697 z "},"x":{"ha":839,"x_min":-28,"x_max":843,"o":"m -28 0 l -14 74 l 4 74 q 40 77 24 74 q 72 90 56 80 q 106 117 87 99 q 151 163 125 134 l 326 355 l 231 586 q 209 629 220 612 q 186 654 199 645 q 159 667 174 664 q 125 671 144 671 l 109 671 l 122 745 l 383 745 l 481 481 l 673 745 l 843 745 l 829 671 l 804 671 q 768 667 784 671 q 736 651 752 663 q 702 621 720 640 q 660 571 684 602 l 517 406 l 618 172 q 642 124 631 143 q 665 94 653 105 q 692 78 677 83 q 728 74 707 74 l 746 74 l 732 0 l 463 0 l 358 281 l 142 0 l -28 0 z "},"y":{"ha":814,"x_min":-233,"x_max":770,"o":"m 109 597 q 75 655 97 639 q 12 671 53 671 l -1 671 l 16 745 l 288 745 l 379 385 q 393 321 386 357 q 408 249 401 285 q 419 181 414 212 q 425 132 424 149 l 429 132 q 507 244 471 188 q 571 354 544 300 q 615 455 599 407 q 631 543 631 503 q 608 614 631 590 q 545 639 585 639 q 553 688 545 666 q 576 726 562 710 q 612 750 591 741 q 656 758 632 758 q 741 727 712 758 q 770 640 770 696 q 751 526 770 586 q 699 397 733 465 q 617 254 665 330 q 507 93 568 178 q 413 -37 457 22 q 327 -143 369 -96 q 240 -226 284 -191 q 148 -286 197 -262 q 40 -322 98 -310 q -89 -334 -18 -334 q -166 -327 -129 -334 q -233 -309 -204 -320 l -212 -231 q -166 -242 -196 -236 q -94 -249 -137 -249 q 22 -232 -31 -249 q 120 -186 75 -215 q 205 -119 165 -157 q 282 -36 245 -80 l 109 597 z "},"z":{"ha":775,"x_min":0,"x_max":741,"o":"m 485 94 q 527 105 509 94 q 559 135 545 117 q 584 175 573 153 q 604 220 595 197 l 618 252 l 699 252 l 639 0 l 0 0 l 16 71 l 479 650 l 302 650 q 256 641 275 650 q 222 615 237 631 q 196 576 208 599 q 171 525 184 553 l 168 519 l 83 519 l 144 745 l 741 745 l 725 672 l 260 94 l 485 94 z "},"{":{"ha":614,"x_min":54,"x_max":724,"o":"m 330 -174 q 182 -134 231 -174 q 132 -22 132 -94 q 133 -9 132 -16 q 134 9 133 -1 q 138 36 136 20 q 146 75 141 52 l 187 269 q 192 307 192 289 q 181 352 192 334 q 152 380 171 370 q 109 395 134 391 q 54 400 83 399 l 72 485 q 137 491 106 486 q 193 511 168 497 q 235 550 218 526 q 261 614 253 575 l 311 852 q 342 943 322 905 q 396 1006 363 981 q 477 1043 429 1031 q 591 1055 525 1055 l 724 1055 l 708 982 l 654 982 q 604 973 625 982 q 569 947 583 964 q 545 905 554 930 q 528 847 535 880 l 476 611 q 419 508 463 548 q 290 449 375 467 l 288 437 q 380 390 351 420 q 410 313 410 359 q 406 273 410 294 l 354 36 q 349 3 350 18 q 347 -26 347 -13 q 365 -81 347 -62 q 425 -100 382 -100 l 479 -100 l 463 -174 l 330 -174 z "},"|":{"ha":777,"x_min":359,"x_max":460,"o":"m 460 -334 l 359 -334 l 359 1055 l 460 1055 l 460 -334 z "},"}":{"ha":614,"x_min":-75,"x_max":595,"o":"m 318 1057 q 467 1017 418 1057 q 517 905 517 977 q 516 892 517 899 q 514 873 516 884 q 510 847 513 863 q 503 808 507 831 l 461 614 q 457 576 457 593 q 468 531 457 549 q 497 503 478 513 q 541 489 515 493 q 595 484 566 484 l 576 399 q 511 392 542 397 q 456 372 481 387 q 413 333 431 358 q 387 269 395 309 l 338 31 q 307 -60 327 -22 q 253 -123 286 -98 q 172 -160 220 -148 q 57 -172 123 -172 l -75 -172 l -60 -98 l -5 -98 q 45 -90 24 -98 q 80 -64 66 -81 q 104 -22 95 -47 q 121 36 113 3 l 172 272 q 230 375 186 335 q 358 435 273 416 l 361 446 q 269 494 298 463 q 239 571 239 525 q 243 610 239 589 l 294 847 q 300 880 298 865 q 301 909 301 896 q 284 964 301 945 q 224 983 267 983 l 170 983 l 186 1057 l 318 1057 z "},"~":{"ha":777,"x_min":64,"x_max":711,"o":"m 525 364 q 448 384 484 364 q 378 435 412 404 q 311 495 343 465 q 244 525 278 525 q 187 487 208 525 q 166 364 166 448 l 64 364 q 112 560 64 493 q 250 627 159 627 q 353 592 304 627 q 449 511 401 557 q 532 465 497 465 q 585 505 566 465 q 608 627 605 544 l 711 627 q 659 424 705 484 q 525 364 613 364 z "},"":{"ha":361,"x_min":0,"x_max":0,"o":""},"":{"ha":549,"x_min":17,"x_max":443,"o":"m 258 -249 l 17 -249 l 257 427 l 338 427 l 258 -249 m 210 629 q 220 688 210 664 q 248 727 231 712 q 287 748 265 741 q 330 754 309 754 q 412 730 381 754 q 443 654 443 705 q 434 603 443 626 q 410 564 426 580 q 372 538 395 547 q 322 529 350 529 q 278 535 298 529 q 242 553 257 541 q 218 585 227 566 q 210 629 210 604 z "},"":{"ha":777,"x_min":93,"x_max":799,"o":"m 469 220 q 541 230 509 220 q 598 256 573 239 q 644 292 624 272 q 679 334 663 313 q 694 309 688 325 q 701 272 701 293 q 686 219 701 246 q 637 169 670 192 q 555 131 605 146 q 436 114 505 116 l 412 0 l 326 0 l 351 118 q 249 148 296 126 q 167 204 201 169 q 113 289 132 239 q 93 401 93 338 q 105 502 93 450 q 140 606 117 555 q 200 705 164 658 q 282 790 235 752 q 387 853 329 828 q 514 886 445 879 l 536 991 l 623 991 l 600 889 q 690 873 652 886 q 752 840 728 860 q 787 795 776 821 q 799 743 799 770 q 789 701 799 722 q 760 664 780 680 q 707 637 739 647 q 629 627 675 627 q 616 718 629 677 q 578 783 604 760 l 458 220 l 469 220 m 306 399 q 324 302 306 342 q 378 241 342 262 l 496 804 q 440 774 466 798 q 394 717 415 751 q 357 642 373 683 q 329 557 340 600 q 312 473 317 515 q 306 399 306 432 z "},"":{"ha":777,"x_min":-8,"x_max":807,"o":"m 407 482 q 408 469 408 477 q 410 451 409 460 q 411 431 410 441 q 411 412 411 421 q 397 335 411 370 q 358 270 384 300 q 295 215 332 241 q 210 167 258 190 l 211 161 q 277 180 248 175 q 334 186 307 186 q 398 178 365 186 q 463 161 431 170 q 523 144 494 152 q 572 136 551 136 q 614 139 596 136 q 649 149 633 142 q 680 165 665 155 q 714 191 696 176 l 758 121 q 715 81 742 104 q 655 37 688 58 q 585 1 622 16 q 514 -14 549 -14 q 447 -4 479 -14 q 379 18 414 6 q 308 40 345 31 q 228 50 271 50 q 177 48 200 50 q 132 40 153 45 q 89 27 111 35 q 45 8 68 19 l 22 -1 l -8 72 l 39 102 q 108 150 73 122 q 171 214 143 178 q 217 295 199 250 q 235 392 235 339 q 232 437 235 415 q 227 481 230 459 l 66 481 l 86 566 l 216 566 q 208 627 212 591 q 203 697 203 663 q 229 828 203 770 q 301 925 254 886 q 415 985 349 964 q 564 1006 482 1006 q 668 994 623 1006 q 744 961 713 982 q 791 913 775 941 q 807 854 807 886 q 762 763 807 795 q 633 732 718 732 q 606 874 633 827 q 532 921 579 921 q 425 863 462 921 q 387 697 387 804 q 392 623 387 656 q 400 566 397 589 l 647 566 l 628 481 l 407 482 z "},"":{"ha":777,"x_min":114,"x_max":704,"o":"m 154 494 q 165 571 154 534 q 199 639 177 608 l 115 722 l 184 791 l 268 708 q 333 739 298 728 q 408 750 368 750 q 483 739 447 750 q 549 707 518 728 l 635 793 l 704 722 l 619 636 q 652 570 640 606 q 664 494 664 534 q 653 419 664 454 q 623 354 642 385 l 704 272 l 635 203 l 553 285 q 485 252 522 264 q 408 240 448 240 q 332 251 368 240 q 265 283 296 262 l 184 203 l 114 273 l 195 354 q 154 494 154 416 m 249 494 q 261 432 249 461 q 295 381 274 403 q 346 346 317 359 q 408 334 375 334 q 472 346 443 334 q 523 381 501 359 q 556 432 544 403 q 568 494 568 461 q 556 558 568 529 q 523 610 544 588 q 472 645 501 632 q 408 657 443 657 q 346 645 375 657 q 295 610 317 632 q 261 558 274 588 q 249 494 249 529 z "},"":{"ha":777,"x_min":61,"x_max":894,"o":"m 530 473 l 708 473 l 691 392 l 497 392 l 479 311 l 673 311 l 656 229 l 463 229 l 447 163 q 442 137 444 148 q 440 121 440 126 q 448 97 440 106 q 468 82 455 87 q 500 76 481 77 q 540 74 518 74 l 573 74 l 558 0 l 61 0 l 76 74 l 113 74 q 155 77 135 74 q 193 89 176 80 q 222 115 210 98 q 240 158 234 131 l 255 229 l 61 229 l 77 311 l 272 311 l 290 392 l 96 392 l 112 473 l 296 473 l 211 844 q 201 879 206 865 q 189 902 197 893 q 169 915 181 911 q 136 918 156 918 l 118 918 l 133 991 l 512 991 l 497 918 l 458 918 q 413 907 427 918 q 399 878 399 897 q 405 840 399 865 q 416 782 410 814 l 441 650 q 456 565 450 606 q 463 496 463 524 q 484 541 470 515 q 516 597 498 568 l 623 778 q 652 830 638 803 q 665 880 665 857 q 650 909 665 899 q 611 918 634 918 l 583 918 l 600 991 l 894 991 l 879 918 l 875 918 q 813 892 843 918 q 747 810 783 865 l 530 473 z "},"":{"ha":777,"x_min":358,"x_max":458,"o":"m 458 500 l 358 500 l 358 1055 l 458 1055 l 458 500 m 458 -334 l 358 -334 l 358 222 l 458 222 l 458 -334 z "},"":{"ha":755,"x_min":31,"x_max":751,"o":"m 301 -160 q 188 -148 238 -160 q 103 -114 138 -136 q 49 -61 68 -92 q 31 7 31 -30 q 43 65 31 42 q 76 100 56 87 q 119 117 96 113 q 161 122 142 122 q 172 41 161 78 q 202 -24 182 3 q 251 -66 222 -51 q 317 -82 280 -82 q 381 -71 353 -82 q 430 -39 410 -59 q 461 7 450 -20 q 472 65 472 35 q 465 115 472 93 q 437 158 457 137 q 381 203 416 180 q 290 256 346 226 q 203 311 237 283 q 148 368 168 339 q 119 427 127 396 q 111 490 111 457 q 122 552 111 524 q 152 604 134 581 q 194 646 170 627 q 241 679 217 665 q 219 730 229 699 q 208 804 208 762 q 232 911 208 864 q 297 989 256 958 q 393 1038 338 1021 q 507 1055 447 1055 q 616 1043 570 1055 q 692 1011 662 1031 q 737 963 722 991 q 751 905 751 936 q 742 856 751 876 q 713 824 732 836 q 670 807 695 812 q 614 802 644 802 q 606 871 614 839 q 583 928 598 904 q 545 965 568 951 q 494 979 523 979 q 445 971 469 979 q 400 946 420 963 q 368 903 380 929 q 355 842 355 877 q 364 788 355 811 q 392 746 372 766 q 444 706 412 726 q 524 661 476 686 q 610 609 574 634 q 667 557 645 583 q 699 504 689 531 q 708 444 708 476 q 697 382 708 412 q 669 327 687 353 q 626 279 650 301 q 575 240 602 257 q 597 191 587 220 q 607 125 607 161 q 585 14 607 66 q 524 -77 564 -38 q 427 -138 484 -115 q 301 -160 370 -160 m 433 532 q 352 574 389 553 q 283 621 315 595 q 248 584 262 604 q 233 534 233 564 q 241 493 233 512 q 266 456 248 474 q 314 419 283 438 q 390 379 344 401 q 466 338 429 360 q 526 297 503 317 q 561 338 548 315 q 574 390 574 361 q 568 422 574 406 q 546 457 562 439 q 503 493 530 475 q 433 532 475 512 z "},"":{"ha":802,"x_min":258,"x_max":708,"o":"m 418 961 q 410 916 418 934 q 391 886 403 897 q 365 869 380 874 q 335 864 350 864 q 279 883 300 864 q 258 940 258 901 q 281 1011 258 985 q 342 1038 303 1038 q 396 1019 375 1038 q 418 961 418 1000 m 708 961 q 701 916 708 934 q 682 886 693 897 q 655 869 670 874 q 625 864 640 864 q 570 883 591 864 q 549 940 549 901 q 571 1011 549 985 q 632 1038 593 1038 q 687 1019 665 1038 q 708 961 708 1000 z "},"":{"ha":1174,"x_min":87,"x_max":1108,"o":"m 87 496 q 106 632 87 566 q 157 754 124 697 q 237 857 190 810 q 340 937 283 904 q 462 989 397 970 q 597 1007 527 1007 q 733 989 668 1007 q 855 937 798 970 q 958 857 911 904 q 1038 754 1005 810 q 1090 632 1072 697 q 1108 496 1108 566 q 1090 360 1108 425 q 1038 238 1072 295 q 958 135 1005 182 q 855 56 911 89 q 733 4 798 22 q 597 -14 668 -14 q 462 4 527 -14 q 340 56 397 22 q 237 135 283 89 q 157 238 190 182 q 106 360 124 295 q 87 496 87 425 m 164 496 q 180 381 164 436 q 223 277 195 326 q 291 190 252 229 q 378 122 330 150 q 482 78 427 94 q 597 62 538 62 q 713 78 658 62 q 817 122 768 94 q 905 190 865 150 q 973 277 945 229 q 1017 381 1001 326 q 1032 496 1032 436 q 998 665 1032 586 q 905 803 964 744 q 767 896 846 862 q 597 930 688 930 q 482 915 538 930 q 378 871 427 899 q 291 803 330 843 q 223 715 252 764 q 180 611 195 667 q 164 496 164 555 m 623 248 q 681 256 654 248 q 730 277 708 264 q 768 308 752 291 q 793 342 783 324 q 807 325 802 336 q 812 298 812 313 q 800 260 812 279 q 761 224 787 240 q 695 197 734 208 q 604 187 656 187 q 483 210 535 187 q 396 273 431 232 q 343 370 361 313 q 326 497 326 427 q 345 621 326 565 q 402 718 364 677 q 495 782 439 759 q 624 804 551 804 q 707 797 671 804 q 767 775 743 789 q 802 744 790 762 q 814 705 814 726 q 806 678 814 690 q 786 657 799 666 q 756 645 774 649 q 720 640 739 640 q 714 678 720 659 q 698 712 709 697 q 667 737 686 728 q 621 746 648 746 q 537 730 572 746 q 481 682 503 713 q 450 603 460 650 q 440 497 440 557 q 487 312 440 377 q 623 248 534 248 z "},"":{"ha":599,"x_min":106,"x_max":665,"o":"m 524 530 q 452 549 477 530 q 427 600 427 568 q 429 639 427 617 q 433 676 431 661 l 428 676 q 390 617 410 644 q 347 572 370 591 q 297 542 324 553 q 240 532 271 532 q 180 544 205 532 q 138 576 155 555 q 114 625 121 597 q 106 685 106 652 q 114 753 106 718 q 139 824 122 789 q 182 890 156 859 q 243 945 208 922 q 322 983 278 969 q 421 997 367 997 q 483 989 458 997 q 529 968 508 981 l 578 987 l 625 987 l 574 734 q 563 683 568 706 q 558 643 558 661 q 587 607 558 607 q 616 613 601 607 q 647 629 631 620 l 665 596 q 642 575 656 587 q 609 554 627 564 q 569 537 591 544 q 524 530 547 530 m 268 693 q 271 655 268 670 q 281 630 275 640 q 295 616 287 621 q 311 612 302 612 q 349 629 330 612 q 386 671 369 646 q 416 726 403 696 q 436 781 430 755 l 469 913 q 444 932 461 925 q 410 939 427 939 q 367 927 387 939 q 332 895 347 915 q 304 849 316 875 q 284 796 292 823 q 272 742 276 769 q 268 693 268 715 z "},"":{"ha":770,"x_min":82,"x_max":737,"o":"m 97 421 l 361 653 l 458 653 l 260 375 l 340 97 l 243 97 l 82 349 l 97 421 m 376 421 l 640 653 l 737 653 l 539 375 l 619 97 l 522 97 l 361 349 l 376 421 z "},"":{"ha":777,"x_min":113,"x_max":708,"o":"m 708 546 l 708 199 l 608 199 l 608 447 l 113 447 l 113 546 l 708 546 z "},"":{"ha":431,"x_min":14,"x_max":407,"o":"m 14 306 l 46 452 l 407 452 l 375 306 l 14 306 z "},"":{"ha":1174,"x_min":87,"x_max":1108,"o":"m 335 243 l 353 243 q 378 244 366 243 q 400 251 391 246 q 415 266 410 256 q 421 292 421 275 l 421 699 q 415 724 421 715 q 400 739 410 734 q 378 746 391 744 q 353 747 366 747 l 335 747 l 335 796 l 585 796 q 823 631 823 796 q 812 572 823 597 q 784 529 802 547 q 744 498 766 511 q 697 478 721 486 l 821 279 q 834 261 827 268 q 849 250 840 254 q 869 244 858 245 q 899 243 881 243 l 899 196 l 751 196 l 599 454 l 525 454 l 525 292 q 531 266 526 275 q 546 251 537 256 q 567 244 555 246 q 593 243 579 243 l 612 243 l 612 196 l 335 196 l 335 243 m 525 507 l 583 507 q 646 515 621 507 q 686 537 671 522 q 708 575 701 552 q 714 629 714 598 q 707 682 714 660 q 683 716 699 703 q 641 736 667 730 q 579 742 616 742 l 525 742 l 525 507 m 87 496 q 106 632 87 566 q 157 754 124 697 q 237 857 190 810 q 340 937 283 904 q 462 989 397 970 q 597 1007 527 1007 q 733 989 668 1007 q 855 937 798 970 q 958 857 911 904 q 1038 754 1005 810 q 1090 632 1072 697 q 1108 496 1108 566 q 1090 360 1108 425 q 1038 238 1072 295 q 958 135 1005 182 q 855 56 911 89 q 733 4 798 22 q 597 -14 668 -14 q 462 4 527 -14 q 340 56 397 22 q 237 135 283 89 q 157 238 190 182 q 106 360 124 295 q 87 496 87 425 m 164 496 q 180 381 164 436 q 223 277 195 326 q 291 190 252 229 q 378 122 330 150 q 482 78 427 94 q 597 62 538 62 q 713 78 658 62 q 817 122 768 94 q 905 190 865 150 q 973 277 945 229 q 1017 381 1001 326 q 1032 496 1032 436 q 998 665 1032 586 q 905 803 964 744 q 767 896 846 862 q 597 930 688 930 q 482 915 538 930 q 378 871 427 899 q 291 803 330 843 q 223 715 252 764 q 180 611 195 667 q 164 496 164 555 z "},"":{"ha":637,"x_min":-7,"x_max":644,"o":"m 644 1055 l -7 1055 l -7 1137 l 644 1137 l 644 1055 z "},"":{"ha":555,"x_min":153,"x_max":574,"o":"m 153 781 q 169 863 153 824 q 214 930 185 901 q 280 975 242 958 q 363 991 319 991 q 445 975 406 991 q 512 930 484 958 q 557 863 541 901 q 574 781 574 824 q 557 699 574 736 q 512 632 541 661 q 445 587 484 604 q 363 571 406 571 q 280 587 319 571 q 214 632 242 604 q 169 699 185 661 q 153 781 153 736 m 249 781 q 258 736 249 757 q 282 700 267 715 q 318 674 298 684 q 363 665 339 665 q 408 674 387 665 q 445 700 429 684 q 469 736 460 715 q 478 781 478 757 q 469 826 478 805 q 445 863 460 848 q 408 888 429 879 q 363 897 387 897 q 318 888 339 897 q 282 863 298 879 q 258 826 267 848 q 249 781 249 805 z "},"":{"ha":777,"x_min":113,"x_max":708,"o":"m 708 0 l 113 0 l 113 98 l 708 98 l 708 0 m 460 447 l 460 199 l 359 199 l 359 447 l 113 447 l 113 546 l 359 546 l 359 794 l 460 794 l 460 546 l 708 546 l 708 447 l 460 447 z "},"":{"ha":555,"x_min":40,"x_max":561,"o":"m 40 397 l 60 497 l 265 647 q 336 706 307 677 q 381 761 364 734 q 405 815 398 788 q 412 872 412 843 q 409 899 412 886 q 399 921 406 911 q 381 937 393 931 q 354 943 370 943 q 319 932 334 943 q 291 901 303 920 q 272 858 279 882 q 261 806 264 833 q 184 825 212 806 q 155 876 155 845 q 170 928 155 905 q 213 969 185 952 q 281 996 241 987 q 372 1006 321 1006 q 451 997 416 1006 q 510 971 486 987 q 548 932 534 955 q 561 880 561 909 q 551 824 561 851 q 517 769 541 798 q 454 706 493 740 q 355 631 414 673 l 182 505 l 386 505 q 435 522 418 505 q 460 562 452 539 l 471 591 l 525 591 l 486 397 l 40 397 z "},"":{"ha":555,"x_min":40,"x_max":558,"o":"m 244 389 q 92 419 143 389 q 40 501 40 449 q 48 535 40 520 q 70 559 56 549 q 102 575 83 570 q 143 581 121 581 q 149 539 143 561 q 169 501 155 518 q 204 472 182 484 q 257 461 226 461 q 304 467 282 461 q 342 487 326 473 q 368 523 359 501 q 378 575 378 545 q 370 612 378 594 q 348 642 363 629 q 308 663 332 655 q 252 671 284 671 l 205 671 l 216 736 l 264 736 q 319 746 293 736 q 366 774 346 755 q 398 819 386 792 q 410 880 410 846 q 397 926 410 908 q 357 943 385 943 q 318 933 334 943 q 289 907 301 924 q 270 868 277 890 q 260 822 263 846 q 178 837 209 822 q 147 886 147 852 q 162 932 147 911 q 205 970 177 954 q 274 996 233 987 q 366 1006 315 1006 q 451 996 415 1006 q 511 969 488 986 q 547 928 535 951 q 558 879 558 905 q 545 815 558 842 q 509 768 532 788 q 453 736 486 749 q 383 715 421 723 l 382 708 q 484 669 446 701 q 522 581 522 638 q 501 498 522 534 q 443 438 480 462 q 355 401 406 414 q 244 389 304 389 z "},"":{"ha":802,"x_min":338,"x_max":725,"o":"m 342 860 q 383 905 361 880 q 428 959 406 931 q 470 1013 450 986 q 507 1064 491 1040 l 725 1064 l 721 1050 q 691 1021 710 1038 q 648 985 672 1004 q 596 946 624 966 q 541 907 569 926 q 484 871 512 888 q 432 842 456 854 l 338 842 l 342 860 z "},"":{"ha":940,"x_min":-3,"x_max":918,"o":"m 545 127 q 498 70 521 96 q 450 25 475 43 q 397 -3 425 7 q 334 -14 368 -14 q 229 14 272 -14 q 161 86 186 41 q 153 36 157 62 q 147 -14 149 10 q 143 -61 144 -39 q 142 -100 142 -83 q 146 -143 142 -123 q 163 -176 151 -162 q 198 -200 176 -191 q 254 -212 220 -209 q 233 -266 249 -243 q 194 -304 217 -289 q 144 -326 172 -319 q 87 -334 116 -334 q 51 -329 68 -334 q 23 -312 35 -323 q 4 -281 11 -300 q -3 -233 -3 -262 q 9 -140 -3 -192 q 39 -23 20 -89 q 79 125 57 43 q 123 313 102 208 l 215 745 l 427 745 l 334 309 q 329 285 332 298 q 324 256 326 271 q 320 225 321 241 q 318 197 318 210 q 322 161 318 178 q 337 132 327 144 q 361 112 347 119 q 396 104 376 104 q 505 166 460 104 q 576 361 549 229 l 659 745 l 869 745 l 774 293 q 760 222 765 255 q 754 160 754 189 q 767 113 754 130 q 803 97 780 97 q 843 105 825 97 q 885 129 861 113 l 918 82 q 880 47 901 64 q 832 16 859 30 q 772 -5 805 3 q 697 -14 739 -14 q 626 -2 654 -14 q 582 30 598 10 q 558 74 565 49 q 551 127 551 100 l 545 127 z "},"":{"ha":871,"x_min":89,"x_max":848,"o":"m 616 970 l 500 970 l 500 -154 l 268 -154 l 268 -81 l 286 -81 q 330 -78 309 -81 q 367 -64 351 -75 q 391 -34 382 -54 q 400 18 400 -14 l 400 536 l 301 536 q 199 558 240 536 q 134 618 159 581 q 99 705 110 656 q 89 808 89 754 q 100 909 89 864 q 138 987 112 955 q 204 1038 163 1020 q 304 1055 245 1055 l 848 1055 l 848 982 l 831 982 q 786 979 807 982 q 750 965 766 975 q 726 935 735 954 q 717 882 717 915 l 717 18 q 726 -34 717 -14 q 750 -64 735 -54 q 786 -78 766 -75 q 831 -81 807 -81 l 848 -81 l 848 -154 l 616 -154 l 616 970 z "},"":{"ha":422,"x_min":118,"x_max":351,"o":"m 351 506 q 341 447 351 471 q 313 409 330 423 q 274 388 296 394 q 231 381 252 381 q 149 406 180 381 q 118 481 118 430 q 126 532 118 509 q 151 572 135 555 q 189 597 167 588 q 239 606 211 606 q 283 600 262 606 q 319 581 304 593 q 343 550 334 569 q 351 506 351 531 z "},"":{"ha":463,"x_min":35,"x_max":386,"o":"m 262 -47 q 313 -61 290 -51 q 352 -86 336 -71 q 377 -121 368 -102 q 386 -163 386 -140 q 365 -240 386 -208 q 310 -293 345 -272 q 231 -324 275 -314 q 139 -334 186 -334 q 88 -329 117 -334 q 35 -315 58 -323 l 53 -233 q 100 -241 77 -239 q 143 -244 124 -244 q 183 -240 164 -244 q 216 -228 202 -236 q 237 -206 229 -219 q 245 -174 245 -193 q 238 -149 245 -160 q 219 -129 231 -138 q 190 -116 207 -121 q 154 -110 173 -111 l 210 12 l 289 12 l 262 -47 z "},"":{"ha":555,"x_min":89,"x_max":493,"o":"m 486 999 l 387 532 q 383 509 384 519 q 382 496 382 499 q 386 476 382 484 q 398 466 391 469 q 415 461 406 462 q 436 460 425 460 l 493 460 l 481 399 l 89 399 l 102 460 l 172 460 q 197 461 185 460 q 218 469 209 463 q 235 485 228 474 q 245 513 242 495 l 329 907 q 259 844 290 868 q 203 821 228 821 q 173 841 183 821 q 163 889 163 861 q 195 897 179 892 q 229 909 212 901 q 267 927 247 916 q 311 953 288 938 l 383 999 l 486 999 z "},"":{"ha":566,"x_min":100,"x_max":625,"o":"m 625 827 q 617 764 625 798 q 592 698 609 731 q 550 634 575 665 q 489 580 524 604 q 410 543 454 557 q 313 529 366 529 q 225 540 264 529 q 158 574 186 551 q 115 629 130 596 q 100 704 100 661 q 109 769 100 735 q 136 836 118 804 q 180 898 153 869 q 241 950 206 928 q 320 986 277 972 q 415 999 363 999 q 497 989 458 999 q 564 958 535 979 q 609 904 592 937 q 625 827 625 871 m 469 831 q 455 901 469 877 q 408 925 441 925 q 345 903 373 925 q 297 846 317 880 q 268 772 278 812 q 257 697 257 732 q 273 625 257 650 q 319 599 288 599 q 385 622 357 599 q 432 681 413 646 q 460 756 450 716 q 469 831 469 797 z "},"":{"ha":770,"x_min":31,"x_max":685,"o":"m 669 330 l 407 97 l 310 97 l 510 375 l 428 653 l 525 653 l 685 403 l 669 330 m 390 330 l 127 97 l 31 97 l 231 375 l 149 653 l 245 653 l 406 403 l 390 330 z "},"":{"ha":1166,"x_min":37,"x_max":1119,"o":"m 434 999 l 335 532 q 331 509 332 519 q 330 496 330 499 q 334 476 330 484 q 346 466 338 469 q 363 461 353 462 q 384 460 373 460 l 441 460 l 429 399 l 37 399 l 50 460 l 120 460 q 145 461 133 460 q 166 469 157 463 q 183 485 176 474 q 193 513 190 495 l 277 907 q 207 844 237 868 q 151 821 176 821 q 121 841 131 821 q 111 889 111 861 q 143 897 127 892 q 177 909 159 901 q 215 927 195 916 q 259 953 235 938 l 331 999 l 434 999 m 312 0 l 194 0 l 899 991 l 1015 991 l 312 0 m 994 163 l 989 138 q 984 112 985 123 q 983 96 983 100 q 987 78 983 85 q 998 67 991 71 q 1013 63 1004 64 q 1031 62 1022 62 l 1059 62 l 1047 1 l 728 1 l 740 62 l 779 62 q 801 63 791 62 q 821 71 812 65 q 837 86 830 76 q 847 115 844 97 l 857 163 l 594 163 l 606 218 l 964 601 l 1087 601 l 1011 237 l 1119 237 l 1103 163 l 994 163 m 905 392 q 917 435 909 414 q 932 482 924 456 q 916 460 924 471 q 903 444 907 449 l 708 237 l 873 237 l 905 392 z "},"":{"ha":1166,"x_min":37,"x_max":1131,"o":"m 434 999 l 335 532 q 331 509 332 519 q 330 496 330 499 q 334 476 330 484 q 346 466 338 469 q 363 461 353 462 q 384 460 373 460 l 441 460 l 429 399 l 37 399 l 50 460 l 120 460 q 145 461 133 460 q 166 469 157 463 q 183 485 176 474 q 193 513 190 495 l 277 907 q 207 844 237 868 q 151 821 176 821 q 121 841 131 821 q 111 889 111 861 q 143 897 127 892 q 177 909 159 901 q 215 927 195 916 q 259 953 235 938 l 331 999 l 434 999 m 305 0 l 187 0 l 892 991 l 1008 991 l 305 0 m 610 1 l 629 100 l 835 250 q 905 309 877 281 q 951 364 934 337 q 975 419 968 391 q 982 475 982 446 q 979 502 982 489 q 969 525 976 515 q 951 541 962 534 q 924 547 940 547 q 888 535 904 547 q 861 505 873 524 q 841 461 849 486 q 831 409 833 436 q 753 429 782 409 q 725 479 725 448 q 740 532 725 508 q 783 573 755 555 q 851 600 811 590 q 942 609 891 609 q 1020 600 985 609 q 1080 574 1055 591 q 1117 535 1104 558 q 1131 484 1131 512 q 1121 428 1131 454 q 1087 372 1111 401 q 1023 310 1063 343 q 925 234 984 276 l 751 109 l 956 109 q 1005 125 988 109 q 1029 165 1021 142 l 1040 195 l 1095 195 l 1056 1 l 610 1 z "},"":{"ha":1166,"x_min":38,"x_max":1124,"o":"m 349 0 l 231 0 l 935 991 l 1052 991 l 349 0 m 1000 163 l 994 138 q 990 112 991 123 q 989 96 989 100 q 992 78 989 85 q 1003 67 996 71 q 1019 63 1010 64 q 1037 62 1027 62 l 1065 62 l 1053 1 l 733 1 l 745 62 l 785 62 q 807 63 796 62 q 826 71 817 65 q 842 86 836 76 q 852 115 849 97 l 862 163 l 600 163 l 611 218 l 969 601 l 1093 601 l 1017 237 l 1124 237 l 1108 163 l 1000 163 m 911 392 q 922 435 915 414 q 937 482 930 456 q 921 460 930 471 q 908 444 912 449 l 713 237 l 879 237 l 911 392 m 242 389 q 90 419 141 389 q 38 501 38 449 q 46 535 38 520 q 67 559 54 549 q 100 575 81 570 q 141 581 119 581 q 147 539 141 561 q 167 501 153 518 q 202 472 180 484 q 255 461 224 461 q 302 467 280 461 q 340 487 324 473 q 366 523 357 501 q 376 575 376 545 q 368 612 376 594 q 346 642 361 629 q 306 663 330 655 q 250 671 282 671 l 203 671 l 214 736 l 262 736 q 317 746 291 736 q 364 774 344 755 q 396 819 384 792 q 408 880 408 846 q 395 926 408 908 q 355 943 382 943 q 316 933 332 943 q 287 907 299 924 q 268 868 275 890 q 258 822 261 846 q 176 837 207 822 q 145 886 145 852 q 160 932 145 911 q 203 970 175 954 q 272 996 231 987 q 363 1006 313 1006 q 449 996 413 1006 q 509 969 486 986 q 545 928 533 951 q 556 879 556 905 q 543 815 556 842 q 507 768 530 788 q 451 736 484 749 q 381 715 419 723 l 380 708 q 482 669 444 701 q 520 581 520 638 q 499 498 520 534 q 441 438 478 462 q 353 401 404 414 q 242 389 302 389 z "},"":{"ha":743,"x_min":3,"x_max":624,"o":"m 3 -33 q 29 77 3 27 q 102 168 56 127 q 211 242 148 209 q 349 301 275 275 l 399 425 l 488 425 l 490 253 q 379 204 429 231 q 294 143 329 177 q 239 65 258 109 q 220 -36 220 21 q 227 -97 220 -71 q 248 -142 235 -123 q 280 -170 262 -160 q 319 -179 298 -179 q 375 -162 352 -179 q 414 -117 399 -145 q 439 -53 430 -90 q 453 24 448 -16 q 624 -83 624 24 q 602 -154 624 -121 q 537 -211 579 -186 q 436 -250 496 -235 q 302 -264 376 -264 q 178 -250 233 -264 q 83 -209 122 -237 q 24 -137 45 -180 q 3 -33 3 -94 m 355 628 q 366 687 355 663 q 394 725 376 711 q 433 746 411 740 q 476 753 454 753 q 558 728 527 753 q 589 653 589 704 q 580 602 589 625 q 556 562 572 578 q 518 537 541 546 q 468 528 496 528 q 424 534 444 528 q 388 552 403 540 q 364 583 372 564 q 355 628 355 602 z "},"":{"ha":1046,"x_min":-68,"x_max":987,"o":"m 297 326 l 229 201 q 209 157 216 176 q 203 123 203 138 q 222 86 203 98 q 281 74 241 74 l 309 74 l 293 0 l -68 0 l -53 74 l -24 74 q 10 78 -5 74 q 38 95 24 83 q 66 128 52 107 q 100 182 81 149 l 571 991 l 761 991 l 878 174 q 887 134 881 152 q 902 102 892 115 q 926 81 911 89 q 962 74 941 74 l 987 74 l 972 0 l 514 0 l 529 74 l 561 74 q 632 88 606 74 q 659 132 659 102 q 658 155 659 144 q 656 176 657 166 l 635 326 l 297 326 m 600 644 q 594 702 597 675 q 588 753 591 728 q 584 802 586 779 q 582 851 583 826 q 562 805 572 826 q 540 761 551 783 q 514 714 528 739 q 482 657 500 690 l 345 411 l 625 411 l 600 644 m 669 1071 q 606 1116 640 1088 q 541 1172 572 1143 q 484 1230 510 1202 q 444 1279 458 1259 l 448 1293 l 652 1293 q 673 1239 660 1268 q 701 1182 686 1210 q 729 1130 715 1154 q 755 1089 744 1105 l 751 1071 l 669 1071 z "},"":{"ha":1046,"x_min":-68,"x_max":987,"o":"m 297 326 l 229 201 q 209 157 216 176 q 203 123 203 138 q 222 86 203 98 q 281 74 241 74 l 309 74 l 293 0 l -68 0 l -53 74 l -24 74 q 10 78 -5 74 q 38 95 24 83 q 66 128 52 107 q 100 182 81 149 l 571 991 l 761 991 l 878 174 q 887 134 881 152 q 902 102 892 115 q 926 81 911 89 q 962 74 941 74 l 987 74 l 972 0 l 514 0 l 529 74 l 561 74 q 632 88 606 74 q 659 132 659 102 q 658 155 659 144 q 656 176 657 166 l 635 326 l 297 326 m 600 644 q 594 702 597 675 q 588 753 591 728 q 584 802 586 779 q 582 851 583 826 q 562 805 572 826 q 540 761 551 783 q 514 714 528 739 q 482 657 500 690 l 345 411 l 625 411 l 600 644 m 586 1089 q 627 1135 605 1109 q 672 1188 650 1160 q 714 1242 694 1215 q 751 1293 735 1270 l 969 1293 l 965 1279 q 935 1250 954 1267 q 892 1215 916 1234 q 841 1176 868 1196 q 785 1137 813 1156 q 728 1100 756 1118 q 676 1071 701 1083 l 582 1071 l 586 1089 z "},"":{"ha":1046,"x_min":-68,"x_max":987,"o":"m 297 326 l 229 201 q 209 157 216 176 q 203 123 203 138 q 222 86 203 98 q 281 74 241 74 l 309 74 l 293 0 l -68 0 l -53 74 l -24 74 q 10 78 -5 74 q 38 95 24 83 q 66 128 52 107 q 100 182 81 149 l 571 991 l 761 991 l 878 174 q 887 134 881 152 q 902 102 892 115 q 926 81 911 89 q 962 74 941 74 l 987 74 l 972 0 l 514 0 l 529 74 l 561 74 q 632 88 606 74 q 659 132 659 102 q 658 155 659 144 q 656 176 657 166 l 635 326 l 297 326 m 600 644 q 594 702 597 675 q 588 753 591 728 q 584 802 586 779 q 582 851 583 826 q 562 805 572 826 q 540 761 551 783 q 514 714 528 739 q 482 657 500 690 l 345 411 l 625 411 l 600 644 m 420 1089 q 466 1134 440 1109 q 519 1187 492 1160 q 572 1241 546 1214 q 617 1293 597 1269 l 804 1293 q 827 1244 813 1272 q 856 1190 840 1217 q 886 1135 871 1162 q 913 1089 901 1109 l 909 1071 l 821 1071 q 793 1098 809 1082 q 760 1131 777 1114 q 726 1164 743 1147 q 697 1196 709 1181 q 656 1164 679 1181 q 609 1131 633 1147 q 563 1098 585 1114 q 524 1071 541 1082 l 416 1071 l 420 1089 z "},"":{"ha":1046,"x_min":-68,"x_max":987,"o":"m 297 326 l 229 201 q 209 157 216 176 q 203 123 203 138 q 222 86 203 98 q 281 74 241 74 l 309 74 l 293 0 l -68 0 l -53 74 l -24 74 q 10 78 -5 74 q 38 95 24 83 q 66 128 52 107 q 100 182 81 149 l 571 991 l 761 991 l 878 174 q 887 134 881 152 q 902 102 892 115 q 926 81 911 89 q 962 74 941 74 l 987 74 l 972 0 l 514 0 l 529 74 l 561 74 q 632 88 606 74 q 659 132 659 102 q 658 155 659 144 q 656 176 657 166 l 635 326 l 297 326 m 600 644 q 594 702 597 675 q 588 753 591 728 q 584 802 586 779 q 582 851 583 826 q 562 805 572 826 q 540 761 551 783 q 514 714 528 739 q 482 657 500 690 l 345 411 l 625 411 l 600 644 m 806 1203 q 836 1209 823 1203 q 858 1225 849 1215 q 873 1249 867 1236 q 882 1276 879 1262 l 966 1276 q 943 1207 958 1243 q 905 1140 928 1171 q 852 1090 882 1110 q 785 1071 822 1071 q 718 1084 747 1071 q 663 1115 688 1098 q 615 1145 637 1131 q 571 1158 593 1158 q 544 1152 557 1158 q 521 1136 531 1146 q 504 1113 511 1126 q 494 1085 497 1099 l 412 1085 q 434 1153 418 1116 q 474 1219 450 1189 q 530 1270 498 1250 q 599 1291 562 1291 q 664 1277 635 1291 q 717 1247 693 1263 q 763 1217 741 1230 q 806 1203 784 1203 z "},"":{"ha":1046,"x_min":-68,"x_max":987,"o":"m 297 326 l 229 201 q 209 157 216 176 q 203 123 203 138 q 222 86 203 98 q 281 74 241 74 l 309 74 l 293 0 l -68 0 l -53 74 l -24 74 q 10 78 -5 74 q 38 95 24 83 q 66 128 52 107 q 100 182 81 149 l 571 991 l 761 991 l 878 174 q 887 134 881 152 q 902 102 892 115 q 926 81 911 89 q 962 74 941 74 l 987 74 l 972 0 l 514 0 l 529 74 l 561 74 q 632 88 606 74 q 659 132 659 102 q 658 155 659 144 q 656 176 657 166 l 635 326 l 297 326 m 600 644 q 594 702 597 675 q 588 753 591 728 q 584 802 586 779 q 582 851 583 826 q 562 805 572 826 q 540 761 551 783 q 514 714 528 739 q 482 657 500 690 l 345 411 l 625 411 l 600 644 m 619 1190 q 612 1145 619 1163 q 593 1115 604 1126 q 566 1098 581 1103 q 536 1093 551 1093 q 481 1112 502 1093 q 460 1169 460 1131 q 482 1240 460 1214 q 543 1267 505 1267 q 598 1248 576 1267 q 619 1190 619 1229 m 909 1190 q 902 1145 909 1163 q 883 1115 895 1126 q 857 1098 871 1103 q 827 1093 842 1093 q 771 1112 792 1093 q 750 1169 750 1131 q 772 1240 750 1214 q 833 1267 795 1267 q 888 1248 867 1267 q 909 1190 909 1229 z "},"":{"ha":1046,"x_min":-68,"x_max":987,"o":"m 297 326 l 229 201 q 209 157 216 176 q 203 123 203 138 q 222 86 203 98 q 281 74 241 74 l 309 74 l 293 0 l -68 0 l -53 74 l -24 74 q 10 78 -5 74 q 38 95 24 83 q 66 128 52 107 q 100 182 81 149 l 571 991 l 761 991 l 878 174 q 887 134 881 152 q 902 102 892 115 q 926 81 911 89 q 962 74 941 74 l 987 74 l 972 0 l 514 0 l 529 74 l 561 74 q 632 88 606 74 q 659 132 659 102 q 658 155 659 144 q 656 176 657 166 l 635 326 l 297 326 m 600 644 q 594 702 597 675 q 588 753 591 728 q 584 802 586 779 q 582 851 583 826 q 562 805 572 826 q 540 761 551 783 q 514 714 528 739 q 482 657 500 690 l 345 411 l 625 411 l 600 644 m 825 1067 q 812 1001 825 1029 q 777 954 800 973 q 724 925 754 935 q 659 915 693 915 q 593 925 624 915 q 540 954 563 935 q 505 1001 517 973 q 492 1067 492 1029 q 505 1132 492 1103 q 540 1179 517 1160 q 593 1208 563 1198 q 659 1218 624 1218 q 724 1208 693 1218 q 777 1179 754 1198 q 812 1132 800 1160 q 825 1067 825 1103 m 741 1067 q 734 1101 741 1087 q 716 1124 727 1115 q 690 1137 705 1133 q 659 1141 675 1141 q 627 1137 642 1141 q 601 1124 612 1133 q 583 1101 589 1115 q 576 1067 576 1087 q 583 1032 576 1046 q 601 1009 589 1018 q 627 996 612 1000 q 659 991 642 991 q 690 996 675 991 q 716 1009 705 1000 q 734 1032 727 1018 q 741 1067 741 1046 z "},"":{"ha":1379,"x_min":-61,"x_max":1413,"o":"m 1413 991 l 1364 733 l 1265 733 q 1267 750 1266 738 q 1269 775 1268 762 q 1271 800 1270 789 q 1272 814 1272 811 q 1267 850 1272 833 q 1250 880 1261 867 q 1220 900 1238 892 q 1174 907 1201 907 l 989 907 l 916 559 l 1231 559 l 1213 476 l 897 476 l 814 85 l 1034 85 q 1092 94 1066 85 q 1136 119 1117 103 q 1169 155 1156 134 q 1190 199 1182 176 l 1213 258 l 1311 258 l 1247 0 l 450 0 l 465 74 l 484 74 q 526 77 505 74 q 564 88 547 79 q 593 113 581 97 q 611 157 606 130 l 644 318 l 328 318 l 245 201 q 216 150 225 172 q 207 115 207 127 q 226 84 207 94 q 281 74 245 74 l 304 74 l 289 0 l -61 0 l -46 74 l -29 74 q 6 80 -11 74 q 40 100 23 87 q 76 134 58 113 q 115 182 94 154 l 661 911 l 571 918 l 586 991 l 1413 991 m 755 907 l 390 401 l 663 401 l 770 907 l 755 907 z "},"":{"ha":928,"x_min":87,"x_max":977,"o":"m 558 103 q 645 114 606 103 q 714 143 684 125 q 768 183 745 161 q 808 229 791 205 q 824 210 817 223 q 832 182 832 197 q 811 112 832 147 q 749 49 790 77 q 648 4 708 21 q 509 -14 587 -14 q 331 11 409 -14 q 198 84 252 36 q 116 201 144 132 q 87 359 87 271 q 107 524 87 443 q 164 677 127 604 q 255 810 201 749 q 377 916 309 871 q 527 986 446 961 q 701 1011 608 1011 q 822 999 770 1011 q 908 966 874 987 q 960 914 943 945 q 977 846 977 883 q 962 792 977 815 q 921 753 947 769 q 859 729 895 737 q 781 721 823 721 q 777 785 781 750 q 760 851 772 821 q 724 902 747 882 q 663 922 701 922 q 561 897 608 922 q 476 829 515 872 q 409 729 438 786 q 359 609 379 672 q 329 479 339 545 q 318 351 318 413 q 378 168 318 233 q 558 103 439 103 m 464 -47 q 514 -61 492 -51 q 553 -86 537 -71 q 578 -121 570 -102 q 587 -163 587 -140 q 567 -240 587 -208 q 511 -293 546 -272 q 432 -324 477 -314 q 340 -334 388 -334 q 289 -329 319 -334 q 236 -315 260 -323 l 254 -233 q 302 -241 278 -239 q 345 -244 326 -244 q 385 -240 366 -244 q 417 -228 404 -236 q 439 -206 431 -219 q 447 -174 447 -193 q 440 -149 447 -160 q 420 -129 433 -138 q 391 -116 408 -121 q 355 -110 374 -111 l 411 12 l 490 12 l 464 -47 z "},"":{"ha":879,"x_min":-32,"x_max":930,"o":"m -17 74 l 1 74 q 44 77 23 74 q 81 88 64 79 q 111 113 98 97 q 129 157 123 130 l 273 839 q 278 856 276 846 q 279 871 279 865 q 272 895 279 886 q 251 910 264 905 q 219 917 238 915 q 179 918 201 918 l 161 918 l 176 991 l 930 991 l 882 733 l 783 733 q 785 750 784 738 q 787 775 786 762 q 789 800 788 789 q 790 814 790 811 q 785 850 790 833 q 768 880 779 867 q 738 900 756 892 q 692 907 719 907 l 507 907 l 433 559 l 749 559 l 730 476 l 415 476 l 332 85 l 551 85 q 610 94 584 85 q 654 119 635 103 q 687 155 673 134 q 708 199 700 176 l 730 258 l 829 258 l 765 0 l -32 0 l -17 74 m 590 1071 q 527 1116 560 1088 q 462 1172 493 1143 q 405 1230 431 1202 q 364 1279 378 1259 l 368 1293 l 572 1293 q 594 1239 581 1268 q 621 1182 607 1210 q 650 1130 635 1154 q 676 1089 665 1105 l 672 1071 l 590 1071 z "},"":{"ha":879,"x_min":-32,"x_max":930,"o":"m -17 74 l 1 74 q 44 77 23 74 q 81 88 64 79 q 111 113 98 97 q 129 157 123 130 l 273 839 q 278 856 276 846 q 279 871 279 865 q 272 895 279 886 q 251 910 264 905 q 219 917 238 915 q 179 918 201 918 l 161 918 l 176 991 l 930 991 l 882 733 l 783 733 q 785 750 784 738 q 787 775 786 762 q 789 800 788 789 q 790 814 790 811 q 785 850 790 833 q 768 880 779 867 q 738 900 756 892 q 692 907 719 907 l 507 907 l 433 559 l 749 559 l 730 476 l 415 476 l 332 85 l 551 85 q 610 94 584 85 q 654 119 635 103 q 687 155 673 134 q 708 199 700 176 l 730 258 l 829 258 l 765 0 l -32 0 l -17 74 m 507 1089 q 549 1135 526 1109 q 593 1188 571 1160 q 636 1242 615 1215 q 673 1293 656 1270 l 890 1293 l 886 1279 q 857 1250 876 1267 q 813 1215 838 1234 q 762 1176 789 1196 q 706 1137 734 1156 q 650 1100 677 1118 q 597 1071 622 1083 l 503 1071 l 507 1089 z "},"":{"ha":879,"x_min":-32,"x_max":930,"o":"m -17 74 l 1 74 q 44 77 23 74 q 81 88 64 79 q 111 113 98 97 q 129 157 123 130 l 273 839 q 278 856 276 846 q 279 871 279 865 q 272 895 279 886 q 251 910 264 905 q 219 917 238 915 q 179 918 201 918 l 161 918 l 176 991 l 930 991 l 882 733 l 783 733 q 785 750 784 738 q 787 775 786 762 q 789 800 788 789 q 790 814 790 811 q 785 850 790 833 q 768 880 779 867 q 738 900 756 892 q 692 907 719 907 l 507 907 l 433 559 l 749 559 l 730 476 l 415 476 l 332 85 l 551 85 q 610 94 584 85 q 654 119 635 103 q 687 155 673 134 q 708 199 700 176 l 730 258 l 829 258 l 765 0 l -32 0 l -17 74 m 378 1089 q 424 1134 398 1109 q 477 1187 450 1160 q 530 1241 504 1214 q 575 1293 555 1269 l 762 1293 q 785 1244 771 1272 q 813 1190 798 1217 q 844 1135 829 1162 q 871 1089 859 1109 l 867 1071 l 779 1071 q 751 1098 767 1082 q 718 1131 734 1114 q 684 1164 701 1147 q 655 1196 667 1181 q 614 1164 637 1181 q 567 1131 591 1147 q 521 1098 543 1114 q 481 1071 498 1082 l 374 1071 l 378 1089 z "},"":{"ha":879,"x_min":-32,"x_max":930,"o":"m -17 74 l 1 74 q 44 77 23 74 q 81 88 64 79 q 111 113 98 97 q 129 157 123 130 l 273 839 q 278 856 276 846 q 279 871 279 865 q 272 895 279 886 q 251 910 264 905 q 219 917 238 915 q 179 918 201 918 l 161 918 l 176 991 l 930 991 l 882 733 l 783 733 q 785 750 784 738 q 787 775 786 762 q 789 800 788 789 q 790 814 790 811 q 785 850 790 833 q 768 880 779 867 q 738 900 756 892 q 692 907 719 907 l 507 907 l 433 559 l 749 559 l 730 476 l 415 476 l 332 85 l 551 85 q 610 94 584 85 q 654 119 635 103 q 687 155 673 134 q 708 199 700 176 l 730 258 l 829 258 l 765 0 l -32 0 l -17 74 m 550 1190 q 543 1145 550 1163 q 524 1115 535 1126 q 497 1098 512 1103 q 467 1093 482 1093 q 412 1112 433 1093 q 391 1169 391 1131 q 413 1240 391 1214 q 474 1267 435 1267 q 529 1248 507 1267 q 550 1190 550 1229 m 840 1190 q 833 1145 840 1163 q 814 1115 825 1126 q 787 1098 802 1103 q 758 1093 772 1093 q 702 1112 723 1093 q 681 1169 681 1131 q 703 1240 681 1214 q 764 1267 726 1267 q 819 1248 798 1267 q 840 1190 840 1229 z "},"":{"ha":557,"x_min":-32,"x_max":656,"o":"m -32 0 l -17 74 l 1 74 q 44 77 23 74 q 81 88 64 79 q 111 113 98 97 q 129 157 123 130 l 273 839 q 278 856 276 846 q 279 871 279 865 q 272 895 279 886 q 251 910 264 905 q 219 917 238 915 q 179 918 201 918 l 161 918 l 176 991 l 656 991 l 640 918 l 623 918 q 578 915 600 918 q 539 903 557 912 q 509 878 522 895 q 490 833 496 861 l 347 153 q 344 136 346 145 q 342 121 342 126 q 349 97 342 106 q 370 82 357 87 q 402 76 384 77 q 443 74 421 74 l 461 74 l 446 0 l -32 0 m 427 1071 q 363 1116 397 1088 q 298 1172 330 1143 q 241 1230 267 1202 q 201 1279 215 1259 l 205 1293 l 409 1293 q 430 1239 417 1268 q 458 1182 444 1210 q 487 1130 472 1154 q 513 1089 501 1105 l 509 1071 l 427 1071 z "},"":{"ha":557,"x_min":-32,"x_max":723,"o":"m -32 0 l -17 74 l 1 74 q 44 77 23 74 q 81 88 64 79 q 111 113 98 97 q 129 157 123 130 l 273 839 q 278 856 276 846 q 279 871 279 865 q 272 895 279 886 q 251 910 264 905 q 219 917 238 915 q 179 918 201 918 l 161 918 l 176 991 l 656 991 l 640 918 l 623 918 q 578 915 600 918 q 539 903 557 912 q 509 878 522 895 q 490 833 496 861 l 347 153 q 344 136 346 145 q 342 121 342 126 q 349 97 342 106 q 370 82 357 87 q 402 76 384 77 q 443 74 421 74 l 461 74 l 446 0 l -32 0 m 340 1089 q 381 1135 359 1109 q 426 1188 404 1160 q 468 1242 448 1215 q 505 1293 489 1270 l 723 1293 l 719 1279 q 689 1250 708 1267 q 646 1215 670 1234 q 594 1176 622 1196 q 538 1137 567 1156 q 482 1100 510 1118 q 430 1071 454 1083 l 336 1071 l 340 1089 z "},"":{"ha":557,"x_min":-32,"x_max":677,"o":"m -32 0 l -17 74 l 1 74 q 44 77 23 74 q 81 88 64 79 q 111 113 98 97 q 129 157 123 130 l 273 839 q 278 856 276 846 q 279 871 279 865 q 272 895 279 886 q 251 910 264 905 q 219 917 238 915 q 179 918 201 918 l 161 918 l 176 991 l 656 991 l 640 918 l 623 918 q 578 915 600 918 q 539 903 557 912 q 509 878 522 895 q 490 833 496 861 l 347 153 q 344 136 346 145 q 342 121 342 126 q 349 97 342 106 q 370 82 357 87 q 402 76 384 77 q 443 74 421 74 l 461 74 l 446 0 l -32 0 m 184 1089 q 231 1134 205 1109 q 283 1187 256 1160 q 336 1241 311 1214 q 382 1293 362 1269 l 569 1293 q 591 1244 578 1272 q 620 1190 605 1217 q 650 1135 635 1162 q 677 1089 665 1109 l 673 1071 l 586 1071 q 557 1098 574 1082 q 524 1131 541 1114 q 491 1164 507 1147 q 462 1196 474 1181 q 420 1164 444 1181 q 374 1131 397 1147 q 328 1098 350 1114 q 288 1071 305 1082 l 180 1071 l 184 1089 z "},"":{"ha":557,"x_min":-32,"x_max":667,"o":"m -32 0 l -17 74 l 1 74 q 44 77 23 74 q 81 88 64 79 q 111 113 98 97 q 129 157 123 130 l 273 839 q 278 856 276 846 q 279 871 279 865 q 272 895 279 886 q 251 910 264 905 q 219 917 238 915 q 179 918 201 918 l 161 918 l 176 991 l 656 991 l 640 918 l 623 918 q 578 915 600 918 q 539 903 557 912 q 509 878 522 895 q 490 833 496 861 l 347 153 q 344 136 346 145 q 342 121 342 126 q 349 97 342 106 q 370 82 357 87 q 402 76 384 77 q 443 74 421 74 l 461 74 l 446 0 l -32 0 m 377 1190 q 370 1145 377 1163 q 351 1115 362 1126 q 324 1098 339 1103 q 294 1093 309 1093 q 239 1112 260 1093 q 218 1169 218 1131 q 240 1240 218 1214 q 301 1267 262 1267 q 356 1248 334 1267 q 377 1190 377 1229 m 667 1190 q 660 1145 667 1163 q 641 1115 652 1126 q 614 1098 629 1103 q 585 1093 600 1093 q 529 1112 550 1093 q 508 1169 508 1131 q 530 1240 508 1214 q 591 1267 553 1267 q 646 1248 625 1267 q 667 1190 667 1229 z "},"":{"ha":1067,"x_min":-33,"x_max":1042,"o":"m -18 74 l 1 74 q 44 77 23 74 q 81 88 64 79 q 111 113 98 97 q 129 157 123 130 l 196 476 l 82 476 l 100 561 l 214 561 l 273 839 q 277 856 275 846 q 279 871 279 865 q 271 895 279 886 q 251 910 264 905 q 219 917 237 915 q 179 918 201 918 l 161 918 l 176 991 l 621 991 q 798 967 720 991 q 930 895 876 943 q 1013 777 985 847 q 1042 614 1042 706 q 1024 453 1042 531 q 974 308 1007 376 q 890 183 940 239 q 776 85 841 126 q 630 22 711 45 q 456 0 550 0 l -33 0 l -18 74 m 396 86 q 570 126 494 86 q 700 237 647 165 q 781 408 753 309 q 808 625 808 507 q 791 751 808 698 q 743 839 774 804 q 666 890 711 873 q 565 907 621 907 l 507 907 l 433 561 l 608 561 l 590 476 l 415 476 l 333 86 l 396 86 z "},"":{"ha":1095,"x_min":-32,"x_max":1207,"o":"m 742 0 l 366 786 l 235 164 q 230 137 231 149 q 228 121 228 126 q 235 97 228 106 q 256 82 243 87 q 289 76 270 77 q 329 74 307 74 l 334 74 l 318 0 l -32 0 l -17 74 l 1 74 q 44 77 23 74 q 81 88 64 79 q 111 113 98 97 q 129 157 123 130 l 271 823 q 279 871 279 859 q 272 895 279 886 q 251 910 264 905 q 219 917 238 915 q 179 918 201 918 l 161 918 l 176 991 l 485 991 l 823 279 l 940 828 q 947 871 947 860 q 940 895 947 886 q 918 910 932 905 q 886 917 905 915 q 846 918 867 918 l 842 918 l 857 991 l 1207 991 l 1192 918 l 1174 918 q 1132 915 1152 918 q 1094 903 1111 912 q 1064 878 1077 895 q 1046 835 1052 862 l 869 0 l 742 0 m 846 1203 q 876 1209 863 1203 q 898 1225 889 1215 q 913 1249 907 1236 q 922 1276 919 1262 l 1006 1276 q 983 1207 998 1243 q 945 1140 968 1171 q 892 1090 922 1110 q 825 1071 862 1071 q 758 1084 787 1071 q 703 1115 728 1098 q 655 1145 677 1131 q 611 1158 633 1158 q 584 1152 597 1158 q 561 1136 571 1146 q 544 1113 551 1126 q 534 1085 537 1099 l 452 1085 q 474 1153 458 1116 q 514 1219 490 1189 q 570 1270 538 1250 q 639 1291 602 1291 q 704 1277 675 1291 q 757 1247 733 1263 q 803 1217 781 1230 q 846 1203 824 1203 z "},"":{"ha":1100,"x_min":87,"x_max":1063,"o":"m 87 370 q 104 509 87 436 q 154 653 121 583 q 237 788 187 724 q 352 901 286 852 q 499 978 417 949 q 679 1007 581 1007 q 825 985 755 1007 q 947 916 895 962 q 1031 797 1000 869 q 1063 625 1063 725 q 1047 489 1063 562 q 999 345 1031 416 q 918 209 966 274 q 804 94 869 144 q 656 14 739 44 q 475 -16 574 -16 q 322 9 393 -16 q 199 83 251 34 q 117 203 147 132 q 87 370 87 275 m 314 336 q 329 219 314 268 q 369 138 343 170 q 429 92 394 106 q 503 77 463 77 q 607 104 560 77 q 692 179 654 132 q 756 285 729 225 q 802 410 784 345 q 829 538 820 474 q 838 657 838 602 q 823 774 838 725 q 784 854 809 823 q 725 902 760 886 q 650 917 690 917 q 545 889 592 917 q 460 815 498 861 q 395 708 423 768 q 350 584 368 648 q 323 455 332 519 q 314 336 314 391 m 667 1071 q 603 1116 637 1088 q 538 1172 570 1143 q 481 1230 507 1202 q 441 1279 455 1259 l 445 1293 l 649 1293 q 670 1239 657 1268 q 698 1182 684 1210 q 727 1130 712 1154 q 753 1089 741 1105 l 749 1071 l 667 1071 z "},"":{"ha":1100,"x_min":87,"x_max":1063,"o":"m 87 370 q 104 509 87 436 q 154 653 121 583 q 237 788 187 724 q 352 901 286 852 q 499 978 417 949 q 679 1007 581 1007 q 825 985 755 1007 q 947 916 895 962 q 1031 797 1000 869 q 1063 625 1063 725 q 1047 489 1063 562 q 999 345 1031 416 q 918 209 966 274 q 804 94 869 144 q 656 14 739 44 q 475 -16 574 -16 q 322 9 393 -16 q 199 83 251 34 q 117 203 147 132 q 87 370 87 275 m 314 336 q 329 219 314 268 q 369 138 343 170 q 429 92 394 106 q 503 77 463 77 q 607 104 560 77 q 692 179 654 132 q 756 285 729 225 q 802 410 784 345 q 829 538 820 474 q 838 657 838 602 q 823 774 838 725 q 784 854 809 823 q 725 902 760 886 q 650 917 690 917 q 545 889 592 917 q 460 815 498 861 q 395 708 423 768 q 350 584 368 648 q 323 455 332 519 q 314 336 314 391 m 597 1089 q 639 1135 616 1109 q 683 1188 661 1160 q 726 1242 705 1215 q 763 1293 747 1270 l 981 1293 l 977 1279 q 947 1250 966 1267 q 904 1215 928 1234 q 852 1176 880 1196 q 796 1137 825 1156 q 740 1100 768 1118 q 688 1071 712 1083 l 593 1071 l 597 1089 z "},"":{"ha":1100,"x_min":87,"x_max":1063,"o":"m 87 370 q 104 509 87 436 q 154 653 121 583 q 237 788 187 724 q 352 901 286 852 q 499 978 417 949 q 679 1007 581 1007 q 825 985 755 1007 q 947 916 895 962 q 1031 797 1000 869 q 1063 625 1063 725 q 1047 489 1063 562 q 999 345 1031 416 q 918 209 966 274 q 804 94 869 144 q 656 14 739 44 q 475 -16 574 -16 q 322 9 393 -16 q 199 83 251 34 q 117 203 147 132 q 87 370 87 275 m 314 336 q 329 219 314 268 q 369 138 343 170 q 429 92 394 106 q 503 77 463 77 q 607 104 560 77 q 692 179 654 132 q 756 285 729 225 q 802 410 784 345 q 829 538 820 474 q 838 657 838 602 q 823 774 838 725 q 784 854 809 823 q 725 902 760 886 q 650 917 690 917 q 545 889 592 917 q 460 815 498 861 q 395 708 423 768 q 350 584 368 648 q 323 455 332 519 q 314 336 314 391 m 442 1089 q 488 1134 463 1109 q 541 1187 514 1160 q 594 1241 568 1214 q 640 1293 620 1269 l 827 1293 q 849 1244 836 1272 q 878 1190 863 1217 q 908 1135 893 1162 q 935 1089 923 1109 l 931 1071 l 844 1071 q 815 1098 831 1082 q 782 1131 799 1114 q 748 1164 765 1147 q 720 1196 732 1181 q 678 1164 701 1181 q 631 1131 655 1147 q 585 1098 608 1114 q 546 1071 563 1082 l 438 1071 l 442 1089 z "},"":{"ha":1100,"x_min":87,"x_max":1063,"o":"m 87 370 q 104 509 87 436 q 154 653 121 583 q 237 788 187 724 q 352 901 286 852 q 499 978 417 949 q 679 1007 581 1007 q 825 985 755 1007 q 947 916 895 962 q 1031 797 1000 869 q 1063 625 1063 725 q 1047 489 1063 562 q 999 345 1031 416 q 918 209 966 274 q 804 94 869 144 q 656 14 739 44 q 475 -16 574 -16 q 322 9 393 -16 q 199 83 251 34 q 117 203 147 132 q 87 370 87 275 m 314 336 q 329 219 314 268 q 369 138 343 170 q 429 92 394 106 q 503 77 463 77 q 607 104 560 77 q 692 179 654 132 q 756 285 729 225 q 802 410 784 345 q 829 538 820 474 q 838 657 838 602 q 823 774 838 725 q 784 854 809 823 q 725 902 760 886 q 650 917 690 917 q 545 889 592 917 q 460 815 498 861 q 395 708 423 768 q 350 584 368 648 q 323 455 332 519 q 314 336 314 391 m 803 1203 q 833 1209 821 1203 q 856 1225 846 1215 q 870 1249 865 1236 q 880 1276 876 1262 l 963 1276 q 940 1207 956 1243 q 902 1140 925 1171 q 849 1090 880 1110 q 782 1071 819 1071 q 715 1084 745 1071 q 660 1115 685 1098 q 613 1145 635 1131 q 568 1158 591 1158 q 541 1152 554 1158 q 518 1136 528 1146 q 501 1113 508 1126 q 492 1085 494 1099 l 409 1085 q 431 1153 415 1116 q 471 1219 447 1189 q 527 1270 496 1250 q 596 1291 559 1291 q 662 1277 633 1291 q 714 1247 690 1263 q 760 1217 739 1230 q 803 1203 781 1203 z "},"":{"ha":1100,"x_min":87,"x_max":1063,"o":"m 87 370 q 104 509 87 436 q 154 653 121 583 q 237 788 187 724 q 352 901 286 852 q 499 978 417 949 q 679 1007 581 1007 q 825 985 755 1007 q 947 916 895 962 q 1031 797 1000 869 q 1063 625 1063 725 q 1047 489 1063 562 q 999 345 1031 416 q 918 209 966 274 q 804 94 869 144 q 656 14 739 44 q 475 -16 574 -16 q 322 9 393 -16 q 199 83 251 34 q 117 203 147 132 q 87 370 87 275 m 314 336 q 329 219 314 268 q 369 138 343 170 q 429 92 394 106 q 503 77 463 77 q 607 104 560 77 q 692 179 654 132 q 756 285 729 225 q 802 410 784 345 q 829 538 820 474 q 838 657 838 602 q 823 774 838 725 q 784 854 809 823 q 725 902 760 886 q 650 917 690 917 q 545 889 592 917 q 460 815 498 861 q 395 708 423 768 q 350 584 368 648 q 323 455 332 519 q 314 336 314 391 m 639 1190 q 631 1145 639 1163 q 612 1115 624 1126 q 586 1098 601 1103 q 556 1093 571 1093 q 500 1112 522 1093 q 479 1169 479 1131 q 502 1240 479 1214 q 563 1267 524 1267 q 617 1248 596 1267 q 639 1190 639 1229 m 929 1190 q 922 1145 929 1163 q 903 1115 914 1126 q 876 1098 891 1103 q 846 1093 861 1093 q 791 1112 812 1093 q 770 1169 770 1131 q 792 1240 770 1214 q 853 1267 814 1267 q 908 1248 886 1267 q 929 1190 929 1229 z "},"":{"ha":777,"x_min":135,"x_max":685,"o":"m 410 428 l 205 222 l 135 293 l 339 498 l 135 703 l 205 772 l 410 568 l 614 774 l 685 703 l 479 497 l 685 292 l 615 222 l 410 428 z "},"":{"ha":1100,"x_min":87,"x_max":1063,"o":"m 87 370 q 104 509 87 436 q 154 653 121 583 q 237 788 187 724 q 352 901 286 852 q 499 978 417 949 q 679 1007 581 1007 q 879 961 789 1007 l 945 1048 l 1042 1048 l 943 918 q 1030 799 998 871 q 1063 625 1063 726 q 1047 489 1063 562 q 999 345 1031 416 q 918 209 966 274 q 804 94 869 144 q 656 14 739 44 q 475 -16 574 -16 q 370 -4 420 -16 q 277 29 321 7 l 214 -56 l 115 -56 l 212 71 q 121 194 154 120 q 87 370 87 269 m 314 336 q 326 224 314 271 l 791 844 q 730 899 766 881 q 650 917 694 917 q 545 889 592 917 q 460 815 498 861 q 395 708 423 768 q 350 584 368 648 q 323 455 332 519 q 314 336 314 391 m 838 657 q 835 713 838 686 q 827 761 832 739 l 364 144 q 425 93 389 109 q 503 77 460 77 q 607 104 560 77 q 692 179 654 132 q 756 285 729 225 q 802 410 784 345 q 829 538 820 474 q 838 657 838 602 z "},"":{"ha":1038,"x_min":138,"x_max":1153,"o":"m 524 85 q 630 103 587 85 q 703 154 673 121 q 749 230 732 186 q 778 328 767 275 l 885 829 q 889 853 887 841 q 890 871 890 865 q 883 895 890 886 q 862 910 876 905 q 830 917 849 915 q 790 918 812 918 l 772 918 l 787 991 l 1153 991 l 1137 918 l 1120 918 q 1076 915 1097 918 q 1038 903 1055 912 q 1007 878 1020 895 q 989 833 995 861 l 878 306 q 829 168 861 228 q 747 68 797 109 q 629 7 697 28 q 473 -14 562 -14 q 330 2 392 -14 q 224 49 267 18 q 160 125 182 80 q 138 227 138 170 q 139 254 138 237 q 142 287 140 270 q 147 321 144 304 q 153 350 150 338 l 254 823 q 262 871 262 861 q 255 895 262 886 q 234 910 248 905 q 203 917 221 915 q 163 918 184 918 l 144 918 l 160 991 l 640 991 l 625 918 l 607 918 q 563 915 584 918 q 524 904 541 912 q 493 879 506 895 q 475 836 481 863 l 370 347 q 364 320 367 335 q 358 289 361 305 q 354 257 356 273 q 353 227 353 241 q 396 121 353 157 q 524 85 439 85 m 688 1071 q 625 1116 659 1088 q 560 1172 591 1143 q 503 1230 529 1202 q 463 1279 477 1259 l 467 1293 l 671 1293 q 692 1239 679 1268 q 720 1182 705 1210 q 748 1130 734 1154 q 774 1089 763 1105 l 770 1071 l 688 1071 z "},"":{"ha":1038,"x_min":138,"x_max":1153,"o":"m 524 85 q 630 103 587 85 q 703 154 673 121 q 749 230 732 186 q 778 328 767 275 l 885 829 q 889 853 887 841 q 890 871 890 865 q 883 895 890 886 q 862 910 876 905 q 830 917 849 915 q 790 918 812 918 l 772 918 l 787 991 l 1153 991 l 1137 918 l 1120 918 q 1076 915 1097 918 q 1038 903 1055 912 q 1007 878 1020 895 q 989 833 995 861 l 878 306 q 829 168 861 228 q 747 68 797 109 q 629 7 697 28 q 473 -14 562 -14 q 330 2 392 -14 q 224 49 267 18 q 160 125 182 80 q 138 227 138 170 q 139 254 138 237 q 142 287 140 270 q 147 321 144 304 q 153 350 150 338 l 254 823 q 262 871 262 861 q 255 895 262 886 q 234 910 248 905 q 203 917 221 915 q 163 918 184 918 l 144 918 l 160 991 l 640 991 l 625 918 l 607 918 q 563 915 584 918 q 524 904 541 912 q 493 879 506 895 q 475 836 481 863 l 370 347 q 364 320 367 335 q 358 289 361 305 q 354 257 356 273 q 353 227 353 241 q 396 121 353 157 q 524 85 439 85 m 620 1089 q 661 1135 639 1109 q 706 1188 684 1160 q 748 1242 728 1215 q 785 1293 769 1270 l 1003 1293 l 999 1279 q 969 1250 988 1267 q 926 1215 950 1234 q 874 1176 902 1196 q 819 1137 847 1156 q 762 1100 790 1118 q 710 1071 734 1083 l 616 1071 l 620 1089 z "},"":{"ha":1038,"x_min":138,"x_max":1153,"o":"m 524 85 q 630 103 587 85 q 703 154 673 121 q 749 230 732 186 q 778 328 767 275 l 885 829 q 889 853 887 841 q 890 871 890 865 q 883 895 890 886 q 862 910 876 905 q 830 917 849 915 q 790 918 812 918 l 772 918 l 787 991 l 1153 991 l 1137 918 l 1120 918 q 1076 915 1097 918 q 1038 903 1055 912 q 1007 878 1020 895 q 989 833 995 861 l 878 306 q 829 168 861 228 q 747 68 797 109 q 629 7 697 28 q 473 -14 562 -14 q 330 2 392 -14 q 224 49 267 18 q 160 125 182 80 q 138 227 138 170 q 139 254 138 237 q 142 287 140 270 q 147 321 144 304 q 153 350 150 338 l 254 823 q 262 871 262 861 q 255 895 262 886 q 234 910 248 905 q 203 917 221 915 q 163 918 184 918 l 144 918 l 160 991 l 640 991 l 625 918 l 607 918 q 563 915 584 918 q 524 904 541 912 q 493 879 506 895 q 475 836 481 863 l 370 347 q 364 320 367 335 q 358 289 361 305 q 354 257 356 273 q 353 227 353 241 q 396 121 353 157 q 524 85 439 85 m 473 1089 q 519 1134 493 1109 q 572 1187 545 1160 q 625 1241 599 1214 q 670 1293 650 1269 l 857 1293 q 880 1244 866 1272 q 908 1190 893 1217 q 939 1135 924 1162 q 966 1089 954 1109 l 962 1071 l 874 1071 q 846 1098 862 1082 q 812 1131 829 1114 q 779 1164 795 1147 q 750 1196 762 1181 q 709 1164 732 1181 q 662 1131 686 1147 q 616 1098 638 1114 q 576 1071 593 1082 l 469 1071 l 473 1089 z "},"":{"ha":1038,"x_min":138,"x_max":1153,"o":"m 524 85 q 630 103 587 85 q 703 154 673 121 q 749 230 732 186 q 778 328 767 275 l 885 829 q 889 853 887 841 q 890 871 890 865 q 883 895 890 886 q 862 910 876 905 q 830 917 849 915 q 790 918 812 918 l 772 918 l 787 991 l 1153 991 l 1137 918 l 1120 918 q 1076 915 1097 918 q 1038 903 1055 912 q 1007 878 1020 895 q 989 833 995 861 l 878 306 q 829 168 861 228 q 747 68 797 109 q 629 7 697 28 q 473 -14 562 -14 q 330 2 392 -14 q 224 49 267 18 q 160 125 182 80 q 138 227 138 170 q 139 254 138 237 q 142 287 140 270 q 147 321 144 304 q 153 350 150 338 l 254 823 q 262 871 262 861 q 255 895 262 886 q 234 910 248 905 q 203 917 221 915 q 163 918 184 918 l 144 918 l 160 991 l 640 991 l 625 918 l 607 918 q 563 915 584 918 q 524 904 541 912 q 493 879 506 895 q 475 836 481 863 l 370 347 q 364 320 367 335 q 358 289 361 305 q 354 257 356 273 q 353 227 353 241 q 396 121 353 157 q 524 85 439 85 m 648 1190 q 641 1145 648 1163 q 622 1115 633 1126 q 595 1098 610 1103 q 566 1093 581 1093 q 510 1112 531 1093 q 489 1169 489 1131 q 511 1240 489 1214 q 572 1267 534 1267 q 627 1248 606 1267 q 648 1190 648 1229 m 939 1190 q 931 1145 939 1163 q 912 1115 924 1126 q 886 1098 901 1103 q 856 1093 871 1093 q 800 1112 821 1093 q 779 1169 779 1131 q 802 1240 779 1214 q 863 1267 824 1267 q 917 1248 896 1267 q 939 1190 939 1229 z "},"":{"ha":962,"x_min":122,"x_max":1099,"o":"m 154 0 l 170 74 l 207 74 q 249 77 229 74 q 286 89 269 80 q 315 115 303 98 q 334 158 328 131 l 374 351 l 224 844 q 211 879 218 865 q 196 902 205 893 q 174 914 187 910 q 140 918 161 918 l 122 918 l 138 991 l 589 991 l 574 918 l 511 918 q 466 907 479 918 q 453 878 453 897 q 457 842 453 865 q 469 787 461 819 l 519 591 q 530 548 524 571 q 539 502 535 525 q 547 457 544 479 q 551 418 550 435 q 591 488 564 446 q 653 582 617 531 l 790 778 q 820 829 807 802 q 832 880 832 857 q 813 909 832 899 q 747 918 793 918 l 718 918 l 734 991 l 1099 991 l 1083 918 l 1057 918 q 1028 914 1042 918 q 1002 900 1015 910 q 973 872 988 889 q 939 828 958 854 l 595 350 l 553 153 q 549 136 551 145 q 547 121 547 126 q 555 97 547 106 q 576 82 562 87 q 608 76 589 77 q 648 74 627 74 l 682 74 l 667 0 l 154 0 m 564 1089 q 606 1135 583 1109 q 650 1188 628 1160 q 693 1242 672 1215 q 730 1293 713 1270 l 947 1293 l 943 1279 q 913 1250 932 1267 q 870 1215 895 1234 q 819 1176 846 1196 q 763 1137 791 1156 q 707 1100 734 1118 q 654 1071 679 1083 l 560 1071 l 564 1089 z "},"":{"ha":886,"x_min":-32,"x_max":886,"o":"m -32 0 l -17 74 l 1 74 q 44 77 23 74 q 81 88 64 79 q 111 113 98 97 q 129 157 123 130 l 273 839 q 278 856 276 846 q 279 871 279 865 q 272 895 279 886 q 251 910 264 905 q 219 917 238 915 q 179 918 201 918 l 161 918 l 176 991 l 656 991 l 640 918 l 623 918 q 578 915 600 918 q 539 903 557 912 q 509 878 522 895 q 490 833 496 861 l 486 812 l 532 812 q 679 795 614 812 q 791 744 745 778 q 862 659 837 709 q 886 542 886 608 q 880 467 886 507 q 856 390 873 428 q 808 318 838 352 q 730 257 777 283 q 616 216 683 231 q 461 200 550 200 l 357 200 l 347 153 q 344 136 346 145 q 342 121 342 126 q 349 97 342 106 q 370 82 357 87 q 402 76 384 77 q 443 74 421 74 l 461 74 l 446 0 l -32 0 m 374 281 l 431 281 q 537 300 494 281 q 608 353 581 319 q 648 434 635 387 q 660 538 660 481 q 648 626 660 589 q 615 686 636 663 q 564 720 593 709 q 500 730 534 730 l 469 730 l 374 281 z "},"":{"ha":965,"x_min":-203,"x_max":917,"o":"m 607 990 q 541 977 570 990 q 491 939 512 964 q 455 879 469 914 q 432 798 440 843 l 258 -11 q 221 -123 245 -75 q 169 -208 198 -172 q 104 -268 139 -244 q 33 -307 70 -292 q -41 -328 -3 -321 q -114 -334 -79 -334 q -165 -329 -141 -334 q -203 -319 -189 -325 l -183 -243 q -156 -249 -172 -246 q -118 -252 -140 -252 q -63 -238 -87 -252 q -19 -196 -39 -225 q 18 -122 1 -168 q 49 -12 34 -77 l 189 650 l 77 650 l 94 745 l 210 745 l 221 787 q 276 920 239 866 q 365 1007 313 974 q 480 1056 416 1041 q 616 1071 544 1071 q 748 1055 692 1071 q 842 1011 804 1040 q 898 943 880 983 q 917 854 917 903 q 915 815 917 837 q 909 770 912 793 q 901 724 905 747 q 892 682 897 701 l 812 682 q 741 674 771 682 q 692 651 711 666 q 664 616 673 637 q 654 571 654 596 q 660 535 654 551 q 680 503 666 519 q 716 471 693 488 q 775 433 740 454 q 871 346 842 395 q 900 229 900 296 q 878 130 900 174 q 815 53 856 85 q 719 4 775 21 q 593 -14 662 -14 q 498 -3 541 -14 q 425 26 455 7 q 377 74 394 46 q 361 138 361 102 q 371 186 361 165 q 400 222 381 208 q 445 244 419 237 q 504 252 471 252 q 509 187 504 219 q 527 130 515 155 q 560 88 540 104 q 608 72 580 72 q 679 102 654 72 q 703 183 703 133 q 699 224 703 205 q 683 262 694 243 q 651 298 671 280 q 597 335 630 315 q 496 424 532 372 q 460 543 460 475 q 481 640 460 600 q 537 706 503 680 q 616 745 572 732 q 707 757 661 757 q 717 815 713 789 q 721 864 721 841 q 693 956 721 921 q 607 990 665 990 z "},"":{"ha":924,"x_min":56,"x_max":876,"o":"m 657 -14 q 558 15 595 -14 q 521 97 521 43 q 523 139 521 119 q 530 187 525 160 l 521 187 q 470 101 495 139 q 413 38 444 64 q 343 0 382 13 q 254 -14 305 -14 q 168 6 205 -14 q 105 59 130 25 q 68 139 81 93 q 56 240 56 186 q 68 354 56 294 q 106 471 81 413 q 168 581 131 528 q 253 672 205 633 q 361 735 302 711 q 492 758 421 758 q 547 754 519 758 q 601 743 575 749 q 649 727 627 736 q 688 710 672 719 l 761 743 l 835 743 l 743 310 q 736 279 741 298 q 729 239 732 260 q 722 198 725 218 q 720 164 720 178 q 733 113 720 130 q 768 96 747 96 q 806 104 788 96 q 846 125 824 113 l 876 69 q 836 41 859 56 q 786 14 814 26 q 727 -6 759 2 q 657 -14 694 -14 m 267 239 q 272 172 267 199 q 288 128 278 144 q 312 104 298 111 q 342 97 326 97 q 405 123 372 97 q 466 193 437 150 q 517 290 494 236 q 551 400 540 345 l 600 631 q 563 660 587 650 q 511 669 538 669 q 437 648 471 669 q 376 592 404 627 q 329 512 349 557 q 294 419 308 467 q 273 324 280 371 q 267 239 267 277 m 514 842 q 451 886 484 859 q 386 943 417 913 q 329 1001 355 972 q 288 1050 302 1029 l 292 1064 l 496 1064 q 518 1010 505 1039 q 545 953 531 981 q 574 901 559 925 q 600 860 589 876 l 596 842 l 514 842 z "},"":{"ha":924,"x_min":56,"x_max":876,"o":"m 657 -14 q 558 15 595 -14 q 521 97 521 43 q 523 139 521 119 q 530 187 525 160 l 521 187 q 470 101 495 139 q 413 38 444 64 q 343 0 382 13 q 254 -14 305 -14 q 168 6 205 -14 q 105 59 130 25 q 68 139 81 93 q 56 240 56 186 q 68 354 56 294 q 106 471 81 413 q 168 581 131 528 q 253 672 205 633 q 361 735 302 711 q 492 758 421 758 q 547 754 519 758 q 601 743 575 749 q 649 727 627 736 q 688 710 672 719 l 761 743 l 835 743 l 743 310 q 736 279 741 298 q 729 239 732 260 q 722 198 725 218 q 720 164 720 178 q 733 113 720 130 q 768 96 747 96 q 806 104 788 96 q 846 125 824 113 l 876 69 q 836 41 859 56 q 786 14 814 26 q 727 -6 759 2 q 657 -14 694 -14 m 267 239 q 272 172 267 199 q 288 128 278 144 q 312 104 298 111 q 342 97 326 97 q 405 123 372 97 q 466 193 437 150 q 517 290 494 236 q 551 400 540 345 l 600 631 q 563 660 587 650 q 511 669 538 669 q 437 648 471 669 q 376 592 404 627 q 329 512 349 557 q 294 419 308 467 q 273 324 280 371 q 267 239 267 277 m 432 860 q 473 905 451 880 q 518 959 496 931 q 561 1013 540 986 q 597 1064 581 1040 l 815 1064 l 811 1050 q 781 1021 800 1038 q 738 985 762 1004 q 687 946 714 966 q 631 907 659 926 q 574 871 602 888 q 522 842 547 854 l 428 842 l 432 860 z "},"":{"ha":924,"x_min":56,"x_max":876,"o":"m 657 -14 q 558 15 595 -14 q 521 97 521 43 q 523 139 521 119 q 530 187 525 160 l 521 187 q 470 101 495 139 q 413 38 444 64 q 343 0 382 13 q 254 -14 305 -14 q 168 6 205 -14 q 105 59 130 25 q 68 139 81 93 q 56 240 56 186 q 68 354 56 294 q 106 471 81 413 q 168 581 131 528 q 253 672 205 633 q 361 735 302 711 q 492 758 421 758 q 547 754 519 758 q 601 743 575 749 q 649 727 627 736 q 688 710 672 719 l 761 743 l 835 743 l 743 310 q 736 279 741 298 q 729 239 732 260 q 722 198 725 218 q 720 164 720 178 q 733 113 720 130 q 768 96 747 96 q 806 104 788 96 q 846 125 824 113 l 876 69 q 836 41 859 56 q 786 14 814 26 q 727 -6 759 2 q 657 -14 694 -14 m 267 239 q 272 172 267 199 q 288 128 278 144 q 312 104 298 111 q 342 97 326 97 q 405 123 372 97 q 466 193 437 150 q 517 290 494 236 q 551 400 540 345 l 600 631 q 563 660 587 650 q 511 669 538 669 q 437 648 471 669 q 376 592 404 627 q 329 512 349 557 q 294 419 308 467 q 273 324 280 371 q 267 239 267 277 m 264 860 q 310 905 284 880 q 363 958 336 930 q 416 1012 390 985 q 461 1064 441 1040 l 648 1064 q 671 1015 657 1042 q 700 960 684 988 q 730 906 715 932 q 757 860 745 880 l 753 842 l 665 842 q 637 869 653 853 q 604 901 621 884 q 570 935 587 918 q 541 966 553 952 q 500 935 523 952 q 453 901 477 918 q 407 869 429 884 q 368 842 385 853 l 260 842 l 264 860 z "},"":{"ha":924,"x_min":56,"x_max":876,"o":"m 657 -14 q 558 15 595 -14 q 521 97 521 43 q 523 139 521 119 q 530 187 525 160 l 521 187 q 470 101 495 139 q 413 38 444 64 q 343 0 382 13 q 254 -14 305 -14 q 168 6 205 -14 q 105 59 130 25 q 68 139 81 93 q 56 240 56 186 q 68 354 56 294 q 106 471 81 413 q 168 581 131 528 q 253 672 205 633 q 361 735 302 711 q 492 758 421 758 q 547 754 519 758 q 601 743 575 749 q 649 727 627 736 q 688 710 672 719 l 761 743 l 835 743 l 743 310 q 736 279 741 298 q 729 239 732 260 q 722 198 725 218 q 720 164 720 178 q 733 113 720 130 q 768 96 747 96 q 806 104 788 96 q 846 125 824 113 l 876 69 q 836 41 859 56 q 786 14 814 26 q 727 -6 759 2 q 657 -14 694 -14 m 267 239 q 272 172 267 199 q 288 128 278 144 q 312 104 298 111 q 342 97 326 97 q 405 123 372 97 q 466 193 437 150 q 517 290 494 236 q 551 400 540 345 l 600 631 q 563 660 587 650 q 511 669 538 669 q 437 648 471 669 q 376 592 404 627 q 329 512 349 557 q 294 419 308 467 q 273 324 280 371 q 267 239 267 277 m 664 974 q 694 980 682 974 q 716 996 707 986 q 731 1020 726 1006 q 741 1047 737 1033 l 824 1047 q 801 978 817 1014 q 763 911 786 941 q 710 861 741 881 q 643 842 680 842 q 576 855 606 842 q 521 885 546 869 q 474 916 496 902 q 429 929 452 929 q 402 923 415 929 q 379 907 389 917 q 362 883 369 897 q 353 856 355 870 l 270 856 q 292 923 276 887 q 332 990 308 960 q 388 1041 357 1021 q 457 1061 420 1061 q 523 1048 494 1061 q 575 1018 551 1034 q 621 987 600 1001 q 664 974 642 974 z "},"":{"ha":924,"x_min":56,"x_max":876,"o":"m 657 -14 q 558 15 595 -14 q 521 97 521 43 q 523 139 521 119 q 530 187 525 160 l 521 187 q 470 101 495 139 q 413 38 444 64 q 343 0 382 13 q 254 -14 305 -14 q 168 6 205 -14 q 105 59 130 25 q 68 139 81 93 q 56 240 56 186 q 68 354 56 294 q 106 471 81 413 q 168 581 131 528 q 253 672 205 633 q 361 735 302 711 q 492 758 421 758 q 547 754 519 758 q 601 743 575 749 q 649 727 627 736 q 688 710 672 719 l 761 743 l 835 743 l 743 310 q 736 279 741 298 q 729 239 732 260 q 722 198 725 218 q 720 164 720 178 q 733 113 720 130 q 768 96 747 96 q 806 104 788 96 q 846 125 824 113 l 876 69 q 836 41 859 56 q 786 14 814 26 q 727 -6 759 2 q 657 -14 694 -14 m 267 239 q 272 172 267 199 q 288 128 278 144 q 312 104 298 111 q 342 97 326 97 q 405 123 372 97 q 466 193 437 150 q 517 290 494 236 q 551 400 540 345 l 600 631 q 563 660 587 650 q 511 669 538 669 q 437 648 471 669 q 376 592 404 627 q 329 512 349 557 q 294 419 308 467 q 273 324 280 371 q 267 239 267 277 m 447 961 q 439 916 447 934 q 420 886 432 897 q 394 869 409 874 q 364 864 379 864 q 309 883 330 864 q 288 940 288 901 q 310 1011 288 985 q 371 1038 332 1038 q 426 1019 404 1038 q 447 961 447 1000 m 737 961 q 730 916 737 934 q 711 886 722 897 q 684 869 699 874 q 654 864 669 864 q 599 883 620 864 q 578 940 578 901 q 600 1011 578 985 q 661 1038 623 1038 q 716 1019 694 1038 q 737 961 737 1000 z "},"":{"ha":924,"x_min":56,"x_max":876,"o":"m 657 -14 q 558 15 595 -14 q 521 97 521 43 q 523 139 521 119 q 530 187 525 160 l 521 187 q 470 101 495 139 q 413 38 444 64 q 343 0 382 13 q 254 -14 305 -14 q 168 6 205 -14 q 105 59 130 25 q 68 139 81 93 q 56 240 56 186 q 68 354 56 294 q 106 471 81 413 q 168 581 131 528 q 253 672 205 633 q 361 735 302 711 q 492 758 421 758 q 547 754 519 758 q 601 743 575 749 q 649 727 627 736 q 688 710 672 719 l 761 743 l 835 743 l 743 310 q 736 279 741 298 q 729 239 732 260 q 722 198 725 218 q 720 164 720 178 q 733 113 720 130 q 768 96 747 96 q 806 104 788 96 q 846 125 824 113 l 876 69 q 836 41 859 56 q 786 14 814 26 q 727 -6 759 2 q 657 -14 694 -14 m 267 239 q 272 172 267 199 q 288 128 278 144 q 312 104 298 111 q 342 97 326 97 q 405 123 372 97 q 466 193 437 150 q 517 290 494 236 q 551 400 540 345 l 600 631 q 563 660 587 650 q 511 669 538 669 q 437 648 471 669 q 376 592 404 627 q 329 512 349 557 q 294 419 308 467 q 273 324 280 371 q 267 239 267 277 m 711 971 q 699 906 711 934 q 663 858 686 878 q 610 829 640 839 q 545 819 579 819 q 479 829 510 819 q 426 858 449 839 q 391 906 404 878 q 378 971 378 934 q 391 1036 378 1008 q 426 1084 404 1065 q 479 1113 449 1103 q 545 1122 510 1122 q 610 1113 579 1122 q 663 1084 640 1103 q 699 1036 686 1065 q 711 971 711 1008 m 627 971 q 620 1005 627 991 q 602 1028 613 1019 q 576 1042 591 1038 q 545 1046 561 1046 q 513 1042 528 1046 q 487 1028 498 1038 q 469 1005 475 1019 q 463 971 463 991 q 469 937 463 951 q 487 913 475 922 q 513 900 498 904 q 545 896 528 896 q 576 900 561 896 q 602 913 591 904 q 620 937 613 922 q 627 971 627 951 z "},"":{"ha":1222,"x_min":56,"x_max":1215,"o":"m 899 92 q 963 101 932 92 q 1019 127 994 111 q 1066 163 1045 143 q 1101 204 1087 183 q 1115 178 1109 194 q 1120 144 1120 162 q 1103 92 1120 119 q 1054 40 1087 64 q 968 2 1020 17 q 844 -14 916 -14 q 641 37 718 -14 q 539 187 565 88 l 526 187 q 474 101 500 139 q 416 38 448 64 q 345 0 384 13 q 254 -14 305 -14 q 168 6 205 -14 q 105 59 130 25 q 68 139 81 93 q 56 240 56 186 q 68 354 56 294 q 106 471 81 413 q 168 581 131 528 q 253 672 205 633 q 361 735 302 711 q 492 758 421 758 q 618 737 562 758 q 722 673 674 715 q 845 738 777 715 q 999 761 914 761 q 1159 718 1103 761 q 1215 597 1215 675 q 1184 489 1215 541 q 1098 398 1153 437 q 967 335 1043 358 q 802 311 891 311 q 776 311 790 311 q 750 313 762 311 q 748 285 748 299 q 747 260 747 271 q 785 135 747 179 q 899 92 823 92 m 267 239 q 272 172 267 199 q 288 128 278 144 q 312 104 298 111 q 342 97 326 97 q 394 116 367 97 q 447 166 421 135 q 494 240 472 198 q 533 328 517 281 q 549 400 540 363 q 572 473 559 437 q 602 541 585 508 q 640 603 618 574 q 620 625 633 613 q 590 646 607 636 q 552 663 572 656 q 511 669 532 669 q 437 648 471 669 q 376 592 404 627 q 329 512 349 557 q 294 419 308 467 q 273 324 280 371 q 267 239 267 277 m 947 677 q 904 666 925 677 q 863 633 882 654 q 828 585 844 612 q 798 525 812 557 q 775 459 785 493 q 760 392 765 425 l 772 392 q 868 406 824 392 q 945 446 913 420 q 997 507 978 471 q 1015 587 1015 543 q 998 654 1015 630 q 947 677 980 677 z "},"":{"ha":733,"x_min":56,"x_max":733,"o":"m 421 92 q 487 101 458 92 q 541 127 517 111 q 583 164 564 144 q 615 205 601 184 q 630 181 624 197 q 636 144 636 165 q 620 89 636 117 q 571 38 604 61 q 486 1 537 16 q 363 -14 434 -14 q 244 4 300 -14 q 146 58 188 22 q 80 147 104 94 q 56 273 56 201 q 68 381 56 325 q 107 491 81 437 q 171 593 133 545 q 260 678 210 642 q 374 736 311 715 q 513 758 437 758 q 612 746 570 758 q 681 714 654 734 q 720 668 707 694 q 733 611 733 641 q 724 569 733 589 q 694 531 715 548 q 642 505 674 515 q 564 494 610 494 q 557 564 564 531 q 538 622 551 597 q 506 661 525 646 q 463 675 488 675 q 407 655 433 675 q 359 602 380 635 q 320 527 337 569 q 292 439 304 484 q 274 350 280 394 q 268 271 268 307 q 307 139 268 186 q 421 92 345 92 m 330 -47 q 381 -61 358 -51 q 420 -86 404 -71 q 445 -121 436 -102 q 454 -163 454 -140 q 433 -240 454 -208 q 378 -293 412 -272 q 299 -324 343 -314 q 207 -334 254 -334 q 156 -329 185 -334 q 102 -315 126 -323 l 121 -233 q 168 -241 144 -239 q 211 -244 192 -244 q 251 -240 232 -244 q 283 -228 270 -236 q 305 -206 297 -219 q 313 -174 313 -193 q 306 -149 313 -160 q 287 -129 299 -138 q 258 -116 275 -121 q 222 -110 241 -111 l 277 12 l 357 12 l 330 -47 z "},"":{"ha":743,"x_min":56,"x_max":736,"o":"m 419 92 q 484 101 453 92 q 540 127 514 111 q 587 163 566 143 q 623 204 608 183 q 635 178 631 194 q 640 144 640 162 q 624 92 640 119 q 574 40 608 64 q 489 2 541 17 q 366 -14 437 -14 q 245 4 302 -14 q 147 57 189 22 q 80 147 104 93 q 56 273 56 201 q 69 381 56 325 q 110 491 83 437 q 176 594 136 545 q 268 679 216 642 q 385 737 320 715 q 526 758 450 758 q 681 715 626 758 q 736 595 736 672 q 705 487 736 538 q 618 396 673 435 q 488 334 564 357 q 322 311 412 311 q 297 311 311 311 q 271 313 283 311 q 268 285 269 299 q 268 260 268 271 q 306 135 268 179 q 419 92 343 92 m 468 675 q 404 649 434 675 q 349 583 373 624 q 307 492 324 543 q 281 392 289 441 l 293 392 q 389 406 345 392 q 466 445 433 419 q 518 505 499 470 q 536 585 536 541 q 518 651 536 627 q 468 675 500 675 m 517 842 q 453 886 487 859 q 389 943 420 913 q 331 1001 357 972 q 291 1050 305 1029 l 295 1064 l 499 1064 q 520 1010 507 1039 q 548 953 534 981 q 577 901 562 925 q 603 860 591 876 l 599 842 l 517 842 z "},"":{"ha":743,"x_min":56,"x_max":812,"o":"m 419 92 q 484 101 453 92 q 540 127 514 111 q 587 163 566 143 q 623 204 608 183 q 635 178 631 194 q 640 144 640 162 q 624 92 640 119 q 574 40 608 64 q 489 2 541 17 q 366 -14 437 -14 q 245 4 302 -14 q 147 57 189 22 q 80 147 104 93 q 56 273 56 201 q 69 381 56 325 q 110 491 83 437 q 176 594 136 545 q 268 679 216 642 q 385 737 320 715 q 526 758 450 758 q 681 715 626 758 q 736 595 736 672 q 705 487 736 538 q 618 396 673 435 q 488 334 564 357 q 322 311 412 311 q 297 311 311 311 q 271 313 283 311 q 268 285 269 299 q 268 260 268 271 q 306 135 268 179 q 419 92 343 92 m 468 675 q 404 649 434 675 q 349 583 373 624 q 307 492 324 543 q 281 392 289 441 l 293 392 q 389 406 345 392 q 466 445 433 419 q 518 505 499 470 q 536 585 536 541 q 518 651 536 627 q 468 675 500 675 m 429 860 q 471 905 448 880 q 515 959 493 931 q 558 1013 537 986 q 595 1064 578 1040 l 812 1064 l 808 1050 q 779 1021 798 1038 q 735 985 760 1004 q 684 946 711 966 q 628 907 656 926 q 572 871 600 888 q 519 842 544 854 l 425 842 l 429 860 z "},"":{"ha":743,"x_min":56,"x_max":745,"o":"m 419 92 q 484 101 453 92 q 540 127 514 111 q 587 163 566 143 q 623 204 608 183 q 635 178 631 194 q 640 144 640 162 q 624 92 640 119 q 574 40 608 64 q 489 2 541 17 q 366 -14 437 -14 q 245 4 302 -14 q 147 57 189 22 q 80 147 104 93 q 56 273 56 201 q 69 381 56 325 q 110 491 83 437 q 176 594 136 545 q 268 679 216 642 q 385 737 320 715 q 526 758 450 758 q 681 715 626 758 q 736 595 736 672 q 705 487 736 538 q 618 396 673 435 q 488 334 564 357 q 322 311 412 311 q 297 311 311 311 q 271 313 283 311 q 268 285 269 299 q 268 260 268 271 q 306 135 268 179 q 419 92 343 92 m 468 675 q 404 649 434 675 q 349 583 373 624 q 307 492 324 543 q 281 392 289 441 l 293 392 q 389 406 345 392 q 466 445 433 419 q 518 505 499 470 q 536 585 536 541 q 518 651 536 627 q 468 675 500 675 m 252 860 q 298 905 272 880 q 351 958 323 930 q 404 1012 378 985 q 449 1064 429 1040 l 636 1064 q 659 1015 645 1042 q 687 960 672 988 q 718 906 703 932 q 745 860 732 880 l 741 842 l 653 842 q 625 869 641 853 q 591 901 608 884 q 558 935 574 918 q 529 966 541 952 q 488 935 511 952 q 441 901 465 918 q 395 869 417 884 q 355 842 372 853 l 248 842 l 252 860 z "},"":{"ha":743,"x_min":56,"x_max":736,"o":"m 419 92 q 484 101 453 92 q 540 127 514 111 q 587 163 566 143 q 623 204 608 183 q 635 178 631 194 q 640 144 640 162 q 624 92 640 119 q 574 40 608 64 q 489 2 541 17 q 366 -14 437 -14 q 245 4 302 -14 q 147 57 189 22 q 80 147 104 93 q 56 273 56 201 q 69 381 56 325 q 110 491 83 437 q 176 594 136 545 q 268 679 216 642 q 385 737 320 715 q 526 758 450 758 q 681 715 626 758 q 736 595 736 672 q 705 487 736 538 q 618 396 673 435 q 488 334 564 357 q 322 311 412 311 q 297 311 311 311 q 271 313 283 311 q 268 285 269 299 q 268 260 268 271 q 306 135 268 179 q 419 92 343 92 m 468 675 q 404 649 434 675 q 349 583 373 624 q 307 492 324 543 q 281 392 289 441 l 293 392 q 389 406 345 392 q 466 445 433 419 q 518 505 499 470 q 536 585 536 541 q 518 651 536 627 q 468 675 500 675 m 430 961 q 422 916 430 934 q 404 886 415 897 q 377 869 392 874 q 347 864 362 864 q 292 883 313 864 q 271 940 271 901 q 293 1011 271 985 q 354 1038 315 1038 q 409 1019 387 1038 q 430 961 430 1000 m 720 961 q 713 916 720 934 q 694 886 705 897 q 667 869 682 874 q 637 864 652 864 q 582 883 603 864 q 561 940 561 901 q 583 1011 561 985 q 644 1038 606 1038 q 699 1019 677 1038 q 720 961 720 1000 z "},"":{"ha":492,"x_min":79,"x_max":469,"o":"m 421 745 l 325 293 q 311 222 317 255 q 306 160 306 189 q 318 113 306 130 q 354 97 331 97 q 394 105 376 97 q 436 129 412 113 l 469 82 q 432 47 453 64 q 385 16 411 30 q 327 -5 358 3 q 257 -14 295 -14 q 134 24 177 -14 q 92 129 92 62 q 97 200 92 159 q 114 294 102 241 l 168 553 q 172 571 170 562 q 175 589 174 581 q 177 604 176 597 q 178 612 178 610 q 174 643 178 631 q 161 661 170 654 q 138 669 152 667 q 104 671 124 671 l 79 671 l 92 745 l 421 745 m 310 842 q 247 886 280 859 q 182 943 213 913 q 124 1001 151 972 q 84 1050 98 1029 l 88 1064 l 292 1064 q 314 1010 300 1039 q 341 953 327 981 q 370 901 355 925 q 396 860 385 876 l 392 842 l 310 842 z "},"":{"ha":492,"x_min":79,"x_max":617,"o":"m 421 745 l 325 293 q 311 222 317 255 q 306 160 306 189 q 318 113 306 130 q 354 97 331 97 q 394 105 376 97 q 436 129 412 113 l 469 82 q 432 47 453 64 q 385 16 411 30 q 327 -5 358 3 q 257 -14 295 -14 q 134 24 177 -14 q 92 129 92 62 q 97 200 92 159 q 114 294 102 241 l 168 553 q 172 571 170 562 q 175 589 174 581 q 177 604 176 597 q 178 612 178 610 q 174 643 178 631 q 161 661 170 654 q 138 669 152 667 q 104 671 124 671 l 79 671 l 92 745 l 421 745 m 234 860 q 275 905 253 880 q 320 959 298 931 q 362 1013 342 986 q 399 1064 383 1040 l 617 1064 l 613 1050 q 583 1021 602 1038 q 540 985 564 1004 q 489 946 516 966 q 433 907 461 926 q 376 871 404 888 q 324 842 349 854 l 230 842 l 234 860 z "},"":{"ha":492,"x_min":43,"x_max":540,"o":"m 421 745 l 325 293 q 311 222 317 255 q 306 160 306 189 q 318 113 306 130 q 354 97 331 97 q 394 105 376 97 q 436 129 412 113 l 469 82 q 432 47 453 64 q 385 16 411 30 q 327 -5 358 3 q 257 -14 295 -14 q 134 24 177 -14 q 92 129 92 62 q 97 200 92 159 q 114 294 102 241 l 168 553 q 172 571 170 562 q 175 589 174 581 q 177 604 176 597 q 178 612 178 610 q 174 643 178 631 q 161 661 170 654 q 138 669 152 667 q 104 671 124 671 l 79 671 l 92 745 l 421 745 m 47 860 q 93 905 67 880 q 146 958 119 930 q 199 1012 173 985 q 244 1064 224 1040 l 431 1064 q 454 1015 440 1042 q 483 960 467 988 q 513 906 498 932 q 540 860 528 880 l 536 842 l 448 842 q 420 869 436 853 q 387 901 404 884 q 353 935 370 918 q 324 966 336 952 q 283 935 306 952 q 236 901 260 918 q 190 869 212 884 q 151 842 168 853 l 43 842 l 47 860 z "},"":{"ha":492,"x_min":79,"x_max":531,"o":"m 421 745 l 325 293 q 311 222 317 255 q 306 160 306 189 q 318 113 306 130 q 354 97 331 97 q 394 105 376 97 q 436 129 412 113 l 469 82 q 432 47 453 64 q 385 16 411 30 q 327 -5 358 3 q 257 -14 295 -14 q 134 24 177 -14 q 92 129 92 62 q 97 200 92 159 q 114 294 102 241 l 168 553 q 172 571 170 562 q 175 589 174 581 q 177 604 176 597 q 178 612 178 610 q 174 643 178 631 q 161 661 170 654 q 138 669 152 667 q 104 671 124 671 l 79 671 l 92 745 l 421 745 m 241 961 q 233 916 241 934 q 214 886 226 897 q 188 869 203 874 q 158 864 173 864 q 102 883 123 864 q 81 940 81 901 q 104 1011 81 985 q 165 1038 126 1038 q 219 1019 198 1038 q 241 961 241 1000 m 531 961 q 524 916 531 934 q 505 886 516 897 q 478 869 493 874 q 448 864 463 864 q 393 883 414 864 q 372 940 372 901 q 394 1011 372 985 q 455 1038 416 1038 q 510 1019 488 1038 q 531 961 531 1000 z "},"":{"ha":854,"x_min":56,"x_max":799,"o":"m 56 278 q 67 370 56 321 q 100 467 78 418 q 157 559 123 515 q 237 638 191 604 q 341 692 283 672 q 469 713 399 713 q 536 703 504 713 q 590 675 568 692 q 558 774 581 730 q 503 854 536 818 l 285 753 l 304 850 l 436 911 q 367 951 404 935 q 290 981 330 968 l 317 1065 q 437 1025 378 1050 q 549 964 496 1000 l 755 1059 l 734 960 l 619 907 q 692 824 659 869 q 749 726 726 779 q 786 610 773 673 q 799 475 799 548 q 787 355 799 414 q 751 241 775 295 q 690 140 727 186 q 604 59 654 94 q 489 6 553 25 q 347 -14 425 -14 q 229 4 283 -14 q 137 58 176 22 q 77 149 98 94 q 56 278 56 204 m 267 267 q 274 187 267 220 q 297 134 282 154 q 332 104 311 113 q 379 94 353 94 q 446 112 416 94 q 499 158 476 129 q 539 224 522 186 q 566 301 555 261 q 581 381 576 341 q 586 454 586 420 q 557 578 586 539 q 475 616 528 616 q 407 599 437 616 q 353 553 376 582 q 314 488 330 524 q 287 412 298 451 q 272 335 277 373 q 267 267 267 297 z "},"":{"ha":933,"x_min":52,"x_max":911,"o":"m 533 129 q 555 294 533 189 l 578 404 q 585 437 581 418 q 593 478 589 457 q 600 521 597 500 q 603 559 603 543 q 601 587 603 572 q 592 612 598 601 q 574 631 585 624 q 545 639 563 639 q 497 623 521 639 q 452 581 474 607 q 411 521 431 555 q 375 452 391 488 q 348 383 359 417 q 330 322 336 349 l 260 0 l 52 0 l 168 553 q 172 571 170 562 q 175 589 174 581 q 177 604 176 597 q 178 612 178 610 q 174 643 178 631 q 161 661 170 654 q 138 669 152 667 q 104 671 124 671 l 79 671 l 92 745 l 400 745 l 385 596 l 393 596 q 448 668 420 637 q 509 719 476 699 q 579 748 541 739 q 664 758 618 758 q 738 745 708 758 q 787 710 768 732 q 814 660 806 688 q 822 599 822 631 q 820 561 822 581 q 813 521 817 541 q 805 480 810 500 q 798 441 801 460 l 766 293 q 753 222 758 255 q 747 160 747 189 q 760 113 747 130 q 796 97 772 97 q 836 105 818 97 q 878 129 854 113 l 911 82 q 873 47 895 64 q 826 16 852 30 q 768 -5 800 3 q 699 -14 736 -14 q 576 24 618 -14 q 533 129 533 62 m 665 974 q 696 980 683 974 q 718 996 709 986 q 733 1020 727 1006 q 742 1047 739 1033 l 825 1047 q 803 978 818 1014 q 765 911 787 941 q 712 861 742 881 q 644 842 682 842 q 577 855 607 842 q 522 885 547 869 q 475 916 497 902 q 431 929 453 929 q 404 923 416 929 q 380 907 391 917 q 363 883 370 897 q 354 856 357 870 l 271 856 q 293 923 277 887 q 334 990 309 960 q 390 1041 358 1021 q 458 1061 421 1061 q 524 1048 495 1061 q 577 1018 553 1034 q 622 987 601 1001 q 665 974 644 974 z "},"":{"ha":859,"x_min":56,"x_max":802,"o":"m 56 278 q 68 386 56 330 q 105 495 80 441 q 167 596 130 549 q 255 680 204 644 q 369 737 305 716 q 511 758 433 758 q 624 742 571 758 q 716 690 677 725 q 779 599 755 654 q 802 467 802 544 q 790 361 802 416 q 754 253 779 307 q 693 152 730 200 q 606 66 656 103 q 492 8 556 30 q 350 -14 429 -14 q 231 4 285 -14 q 138 59 176 22 q 77 150 99 95 q 56 278 56 205 m 375 86 q 443 107 412 86 q 497 164 473 129 q 538 243 521 199 q 567 336 556 288 q 584 429 578 383 q 590 511 590 475 q 562 629 590 593 q 485 665 534 665 q 420 645 450 665 q 366 591 390 625 q 323 513 342 557 q 293 422 305 469 q 274 329 280 376 q 268 244 268 283 q 296 123 268 159 q 375 86 325 86 m 514 842 q 451 886 484 859 q 386 943 417 913 q 329 1001 355 972 q 288 1050 302 1029 l 292 1064 l 496 1064 q 518 1010 505 1039 q 545 953 531 981 q 574 901 559 925 q 600 860 589 876 l 596 842 l 514 842 z "},"":{"ha":859,"x_min":56,"x_max":840,"o":"m 56 278 q 68 386 56 330 q 105 495 80 441 q 167 596 130 549 q 255 680 204 644 q 369 737 305 716 q 511 758 433 758 q 624 742 571 758 q 716 690 677 725 q 779 599 755 654 q 802 467 802 544 q 790 361 802 416 q 754 253 779 307 q 693 152 730 200 q 606 66 656 103 q 492 8 556 30 q 350 -14 429 -14 q 231 4 285 -14 q 138 59 176 22 q 77 150 99 95 q 56 278 56 205 m 375 86 q 443 107 412 86 q 497 164 473 129 q 538 243 521 199 q 567 336 556 288 q 584 429 578 383 q 590 511 590 475 q 562 629 590 593 q 485 665 534 665 q 420 645 450 665 q 366 591 390 625 q 323 513 342 557 q 293 422 305 469 q 274 329 280 376 q 268 244 268 283 q 296 123 268 159 q 375 86 325 86 m 457 860 q 498 905 476 880 q 543 959 521 931 q 586 1013 565 986 q 623 1064 606 1040 l 840 1064 l 836 1050 q 806 1021 825 1038 q 763 985 787 1004 q 712 946 739 966 q 656 907 684 926 q 600 871 627 888 q 547 842 572 854 l 453 842 l 457 860 z "},"":{"ha":859,"x_min":56,"x_max":802,"o":"m 56 278 q 68 386 56 330 q 105 495 80 441 q 167 596 130 549 q 255 680 204 644 q 369 737 305 716 q 511 758 433 758 q 624 742 571 758 q 716 690 677 725 q 779 599 755 654 q 802 467 802 544 q 790 361 802 416 q 754 253 779 307 q 693 152 730 200 q 606 66 656 103 q 492 8 556 30 q 350 -14 429 -14 q 231 4 285 -14 q 138 59 176 22 q 77 150 99 95 q 56 278 56 205 m 375 86 q 443 107 412 86 q 497 164 473 129 q 538 243 521 199 q 567 336 556 288 q 584 429 578 383 q 590 511 590 475 q 562 629 590 593 q 485 665 534 665 q 420 645 450 665 q 366 591 390 625 q 323 513 342 557 q 293 422 305 469 q 274 329 280 376 q 268 244 268 283 q 296 123 268 159 q 375 86 325 86 m 277 860 q 323 905 297 880 q 376 958 349 930 q 429 1012 403 985 q 474 1064 454 1040 l 661 1064 q 684 1015 670 1042 q 712 960 697 988 q 743 906 728 932 q 770 860 758 880 l 766 842 l 678 842 q 650 869 666 853 q 616 901 633 884 q 583 935 600 918 q 554 966 566 952 q 513 935 536 952 q 466 901 490 918 q 420 869 442 884 q 380 842 397 853 l 273 842 l 277 860 z "},"":{"ha":859,"x_min":56,"x_max":824,"o":"m 56 278 q 68 386 56 330 q 105 495 80 441 q 167 596 130 549 q 255 680 204 644 q 369 737 305 716 q 511 758 433 758 q 624 742 571 758 q 716 690 677 725 q 779 599 755 654 q 802 467 802 544 q 790 361 802 416 q 754 253 779 307 q 693 152 730 200 q 606 66 656 103 q 492 8 556 30 q 350 -14 429 -14 q 231 4 285 -14 q 138 59 176 22 q 77 150 99 95 q 56 278 56 205 m 375 86 q 443 107 412 86 q 497 164 473 129 q 538 243 521 199 q 567 336 556 288 q 584 429 578 383 q 590 511 590 475 q 562 629 590 593 q 485 665 534 665 q 420 645 450 665 q 366 591 390 625 q 323 513 342 557 q 293 422 305 469 q 274 329 280 376 q 268 244 268 283 q 296 123 268 159 q 375 86 325 86 m 664 974 q 694 980 682 974 q 716 996 707 986 q 731 1020 726 1006 q 741 1047 737 1033 l 824 1047 q 801 978 817 1014 q 763 911 786 941 q 710 861 741 881 q 643 842 680 842 q 576 855 606 842 q 521 885 546 869 q 474 916 496 902 q 429 929 452 929 q 402 923 415 929 q 379 907 389 917 q 362 883 369 897 q 353 856 355 870 l 270 856 q 292 923 276 887 q 332 990 308 960 q 388 1041 357 1021 q 457 1061 420 1061 q 523 1048 494 1061 q 575 1018 551 1034 q 621 987 600 1001 q 664 974 642 974 z "},"":{"ha":859,"x_min":56,"x_max":802,"o":"m 56 278 q 68 386 56 330 q 105 495 80 441 q 167 596 130 549 q 255 680 204 644 q 369 737 305 716 q 511 758 433 758 q 624 742 571 758 q 716 690 677 725 q 779 599 755 654 q 802 467 802 544 q 790 361 802 416 q 754 253 779 307 q 693 152 730 200 q 606 66 656 103 q 492 8 556 30 q 350 -14 429 -14 q 231 4 285 -14 q 138 59 176 22 q 77 150 99 95 q 56 278 56 205 m 375 86 q 443 107 412 86 q 497 164 473 129 q 538 243 521 199 q 567 336 556 288 q 584 429 578 383 q 590 511 590 475 q 562 629 590 593 q 485 665 534 665 q 420 645 450 665 q 366 591 390 625 q 323 513 342 557 q 293 422 305 469 q 274 329 280 376 q 268 244 268 283 q 296 123 268 159 q 375 86 325 86 m 468 961 q 460 916 468 934 q 441 886 453 897 q 415 869 430 874 q 385 864 400 864 q 330 883 351 864 q 309 940 309 901 q 331 1011 309 985 q 392 1038 353 1038 q 447 1019 425 1038 q 468 961 468 1000 m 758 961 q 751 916 758 934 q 732 886 743 897 q 705 869 720 874 q 675 864 690 864 q 620 883 641 864 q 599 940 599 901 q 621 1011 599 985 q 682 1038 644 1038 q 737 1019 715 1038 q 758 961 758 1000 z "},"":{"ha":777,"x_min":113,"x_max":708,"o":"m 334 760 q 356 826 334 807 q 411 844 378 844 q 441 840 427 844 q 466 826 456 836 q 483 800 477 816 q 489 760 489 783 q 483 720 489 736 q 466 694 477 704 q 441 679 456 684 q 411 675 427 675 q 356 694 378 675 q 334 760 334 713 m 334 233 q 356 299 334 281 q 411 318 378 318 q 441 314 427 318 q 466 299 456 309 q 483 273 477 290 q 489 233 489 257 q 483 194 489 210 q 466 168 477 178 q 441 153 456 157 q 411 149 427 149 q 356 168 378 149 q 334 233 334 186 m 708 447 l 113 447 l 113 546 l 708 546 l 708 447 z "},"":{"ha":859,"x_min":18,"x_max":825,"o":"m 56 278 q 68 386 56 330 q 105 495 80 441 q 167 596 130 549 q 255 680 204 644 q 369 737 305 716 q 511 758 433 758 q 589 751 552 758 q 659 728 626 743 l 721 800 l 825 800 l 726 679 q 781 591 761 644 q 802 467 802 538 q 790 361 802 416 q 754 253 779 307 q 693 152 730 200 q 606 66 656 103 q 492 8 556 30 q 350 -14 429 -14 q 187 22 257 -14 l 123 -56 l 18 -56 l 122 72 q 73 160 90 109 q 56 278 56 211 m 375 86 q 443 107 412 86 q 497 164 473 129 q 538 243 521 199 q 567 336 556 288 q 584 429 578 383 q 590 511 590 475 l 590 514 l 285 142 q 321 99 298 113 q 375 86 344 86 m 485 665 q 420 645 450 665 q 367 592 391 625 q 324 516 342 559 q 294 427 306 473 q 275 335 281 381 q 268 250 268 290 l 568 618 q 533 653 555 642 q 485 665 512 665 z "},"":{"ha":935,"x_min":79,"x_max":913,"o":"m 538 119 q 538 134 538 125 q 540 151 539 142 q 542 167 541 159 q 545 180 543 175 l 533 180 q 473 102 503 137 q 410 41 444 66 q 338 2 377 16 q 250 -12 300 -12 q 175 0 205 -12 q 126 34 144 13 q 100 83 108 55 q 92 142 92 111 q 100 218 92 176 q 115 294 108 259 l 165 539 q 174 591 171 568 q 178 625 178 614 q 161 662 178 653 q 104 671 144 671 l 79 671 l 92 745 l 425 745 l 334 329 q 326 292 330 313 q 318 252 321 272 q 312 213 315 231 q 310 182 310 195 q 323 133 310 151 q 370 115 336 115 q 432 143 400 115 q 494 214 465 170 q 547 312 524 258 q 582 418 570 366 l 656 745 l 863 745 l 768 293 q 754 222 760 255 q 749 160 749 189 q 761 113 749 130 q 798 97 774 97 q 837 105 819 97 q 879 129 855 113 l 913 82 q 875 47 896 64 q 828 16 854 30 q 770 -5 802 3 q 700 -14 738 -14 q 623 -3 654 -14 q 573 25 592 7 q 546 67 554 43 q 538 119 538 92 m 510 842 q 447 886 480 859 q 382 943 413 913 q 325 1001 351 972 q 284 1050 298 1029 l 288 1064 l 492 1064 q 514 1010 500 1039 q 541 953 527 981 q 570 901 555 925 q 596 860 585 876 l 592 842 l 510 842 z "},"":{"ha":935,"x_min":79,"x_max":913,"o":"m 538 119 q 538 134 538 125 q 540 151 539 142 q 542 167 541 159 q 545 180 543 175 l 533 180 q 473 102 503 137 q 410 41 444 66 q 338 2 377 16 q 250 -12 300 -12 q 175 0 205 -12 q 126 34 144 13 q 100 83 108 55 q 92 142 92 111 q 100 218 92 176 q 115 294 108 259 l 165 539 q 174 591 171 568 q 178 625 178 614 q 161 662 178 653 q 104 671 144 671 l 79 671 l 92 745 l 425 745 l 334 329 q 326 292 330 313 q 318 252 321 272 q 312 213 315 231 q 310 182 310 195 q 323 133 310 151 q 370 115 336 115 q 432 143 400 115 q 494 214 465 170 q 547 312 524 258 q 582 418 570 366 l 656 745 l 863 745 l 768 293 q 754 222 760 255 q 749 160 749 189 q 761 113 749 130 q 798 97 774 97 q 837 105 819 97 q 879 129 855 113 l 913 82 q 875 47 896 64 q 828 16 854 30 q 770 -5 802 3 q 700 -14 738 -14 q 623 -3 654 -14 q 573 25 592 7 q 546 67 554 43 q 538 119 538 92 m 467 860 q 508 905 486 880 q 552 959 530 931 q 595 1013 574 986 q 632 1064 616 1040 l 850 1064 l 846 1050 q 816 1021 835 1038 q 773 985 797 1004 q 721 946 749 966 q 665 907 694 926 q 609 871 637 888 q 557 842 581 854 l 463 842 l 467 860 z "},"":{"ha":935,"x_min":79,"x_max":913,"o":"m 538 119 q 538 134 538 125 q 540 151 539 142 q 542 167 541 159 q 545 180 543 175 l 533 180 q 473 102 503 137 q 410 41 444 66 q 338 2 377 16 q 250 -12 300 -12 q 175 0 205 -12 q 126 34 144 13 q 100 83 108 55 q 92 142 92 111 q 100 218 92 176 q 115 294 108 259 l 165 539 q 174 591 171 568 q 178 625 178 614 q 161 662 178 653 q 104 671 144 671 l 79 671 l 92 745 l 425 745 l 334 329 q 326 292 330 313 q 318 252 321 272 q 312 213 315 231 q 310 182 310 195 q 323 133 310 151 q 370 115 336 115 q 432 143 400 115 q 494 214 465 170 q 547 312 524 258 q 582 418 570 366 l 656 745 l 863 745 l 768 293 q 754 222 760 255 q 749 160 749 189 q 761 113 749 130 q 798 97 774 97 q 837 105 819 97 q 879 129 855 113 l 913 82 q 875 47 896 64 q 828 16 854 30 q 770 -5 802 3 q 700 -14 738 -14 q 623 -3 654 -14 q 573 25 592 7 q 546 67 554 43 q 538 119 538 92 m 306 860 q 352 905 326 880 q 405 958 378 930 q 458 1012 432 985 q 503 1064 484 1040 l 690 1064 q 713 1015 699 1042 q 742 960 726 988 q 772 906 757 932 q 799 860 787 880 l 795 842 l 707 842 q 679 869 695 853 q 646 901 663 884 q 612 935 629 918 q 583 966 595 952 q 542 935 565 952 q 495 901 519 918 q 449 869 471 884 q 410 842 427 853 l 302 842 l 306 860 z "},"":{"ha":935,"x_min":79,"x_max":913,"o":"m 538 119 q 538 134 538 125 q 540 151 539 142 q 542 167 541 159 q 545 180 543 175 l 533 180 q 473 102 503 137 q 410 41 444 66 q 338 2 377 16 q 250 -12 300 -12 q 175 0 205 -12 q 126 34 144 13 q 100 83 108 55 q 92 142 92 111 q 100 218 92 176 q 115 294 108 259 l 165 539 q 174 591 171 568 q 178 625 178 614 q 161 662 178 653 q 104 671 144 671 l 79 671 l 92 745 l 425 745 l 334 329 q 326 292 330 313 q 318 252 321 272 q 312 213 315 231 q 310 182 310 195 q 323 133 310 151 q 370 115 336 115 q 432 143 400 115 q 494 214 465 170 q 547 312 524 258 q 582 418 570 366 l 656 745 l 863 745 l 768 293 q 754 222 760 255 q 749 160 749 189 q 761 113 749 130 q 798 97 774 97 q 837 105 819 97 q 879 129 855 113 l 913 82 q 875 47 896 64 q 828 16 854 30 q 770 -5 802 3 q 700 -14 738 -14 q 623 -3 654 -14 q 573 25 592 7 q 546 67 554 43 q 538 119 538 92 m 496 961 q 488 916 496 934 q 469 886 481 897 q 443 869 458 874 q 413 864 428 864 q 357 883 378 864 q 336 940 336 901 q 359 1011 336 985 q 420 1038 381 1038 q 474 1019 453 1038 q 496 961 496 1000 m 786 961 q 779 916 786 934 q 760 886 771 897 q 733 869 748 874 q 703 864 718 864 q 648 883 669 864 q 627 940 627 901 q 649 1011 627 985 q 710 1038 671 1038 q 765 1019 743 1038 q 786 961 786 1000 z "},"":{"ha":814,"x_min":-233,"x_max":770,"o":"m 109 597 q 75 655 97 639 q 12 671 53 671 l -1 671 l 16 745 l 288 745 l 379 385 q 393 321 386 357 q 408 249 401 285 q 419 181 414 212 q 425 132 424 149 l 429 132 q 507 244 471 188 q 571 354 544 300 q 615 455 599 407 q 631 543 631 503 q 608 614 631 590 q 545 639 585 639 q 553 688 545 666 q 576 726 562 710 q 612 750 591 741 q 656 758 632 758 q 741 727 712 758 q 770 640 770 696 q 751 526 770 586 q 699 397 733 465 q 617 254 665 330 q 507 93 568 178 q 413 -37 457 22 q 327 -143 369 -96 q 240 -226 284 -191 q 148 -286 197 -262 q 40 -322 98 -310 q -89 -334 -18 -334 q -166 -327 -129 -334 q -233 -309 -204 -320 l -212 -231 q -166 -242 -196 -236 q -94 -249 -137 -249 q 22 -232 -31 -249 q 120 -186 75 -215 q 205 -119 165 -157 q 282 -36 245 -80 l 109 597 m 345 860 q 386 905 363 880 q 430 959 408 931 q 473 1013 452 986 q 510 1064 494 1040 l 728 1064 l 724 1050 q 694 1021 713 1038 q 651 985 675 1004 q 599 946 627 966 q 543 907 572 926 q 487 871 515 888 q 435 842 459 854 l 340 842 l 345 860 z "},"":{"ha":865,"x_min":-41,"x_max":810,"o":"m 600 497 q 596 552 600 526 q 584 600 593 579 q 561 634 576 621 q 525 647 547 647 q 479 634 502 647 q 435 598 456 621 q 395 547 414 576 q 361 486 376 517 q 335 422 346 454 q 318 363 323 391 l 265 114 q 281 101 271 108 q 304 88 292 94 q 333 79 317 83 q 364 75 348 75 q 434 96 401 75 q 492 150 466 116 q 538 228 518 184 q 572 318 559 271 q 593 411 586 365 q 600 497 600 458 m 343 559 q 392 640 367 603 q 448 703 417 676 q 517 744 478 729 q 607 758 555 758 q 690 742 652 758 q 754 694 728 726 q 795 615 781 662 q 810 507 810 568 q 798 399 810 457 q 762 283 786 341 q 703 172 739 225 q 619 77 667 118 q 511 11 571 36 q 379 -14 451 -14 q 301 -5 337 -14 q 237 18 264 3 q 235 -4 237 7 q 231 -25 233 -14 q 227 -49 229 -37 l 207 -142 q 203 -160 205 -151 q 200 -178 201 -170 q 198 -193 199 -186 q 197 -201 197 -199 q 201 -232 197 -220 q 214 -250 205 -243 q 237 -258 223 -256 q 271 -260 251 -260 l 323 -260 l 311 -334 l -41 -334 l 214 864 q 218 882 216 873 q 221 900 220 892 q 223 915 222 909 q 224 924 224 921 q 220 954 224 943 q 207 972 216 966 q 184 980 198 978 q 150 982 170 982 l 118 982 l 131 1055 l 468 1055 l 412 791 q 404 759 410 779 q 390 717 397 739 q 374 671 382 694 q 358 626 366 647 q 343 587 350 604 q 334 559 337 569 l 343 559 z "},"":{"ha":814,"x_min":-233,"x_max":770,"o":"m 109 597 q 75 655 97 639 q 12 671 53 671 l -1 671 l 16 745 l 288 745 l 379 385 q 393 321 386 357 q 408 249 401 285 q 419 181 414 212 q 425 132 424 149 l 429 132 q 507 244 471 188 q 571 354 544 300 q 615 455 599 407 q 631 543 631 503 q 608 614 631 590 q 545 639 585 639 q 553 688 545 666 q 576 726 562 710 q 612 750 591 741 q 656 758 632 758 q 741 727 712 758 q 770 640 770 696 q 751 526 770 586 q 699 397 733 465 q 617 254 665 330 q 507 93 568 178 q 413 -37 457 22 q 327 -143 369 -96 q 240 -226 284 -191 q 148 -286 197 -262 q 40 -322 98 -310 q -89 -334 -18 -334 q -166 -327 -129 -334 q -233 -309 -204 -320 l -212 -231 q -166 -242 -196 -236 q -94 -249 -137 -249 q 22 -232 -31 -249 q 120 -186 75 -215 q 205 -119 165 -157 q 282 -36 245 -80 l 109 597 m 377 961 q 370 916 377 934 q 351 886 362 897 q 324 869 339 874 q 294 864 309 864 q 239 883 260 864 q 218 940 218 901 q 240 1011 218 985 q 301 1038 262 1038 q 356 1019 334 1038 q 377 961 377 1000 m 667 961 q 660 916 667 934 q 641 886 652 897 q 614 869 629 874 q 585 864 600 864 q 529 883 550 864 q 508 940 508 901 q 530 1011 508 985 q 591 1038 553 1038 q 646 1019 625 1038 q 667 961 667 1000 z "},"":{"ha":1046,"x_min":-68,"x_max":987,"o":"m 297 326 l 229 201 q 209 157 216 176 q 203 123 203 138 q 222 86 203 98 q 281 74 241 74 l 309 74 l 293 0 l -68 0 l -53 74 l -24 74 q 10 78 -5 74 q 38 95 24 83 q 66 128 52 107 q 100 182 81 149 l 571 991 l 761 991 l 878 174 q 887 134 881 152 q 902 102 892 115 q 926 81 911 89 q 962 74 941 74 l 987 74 l 972 0 l 514 0 l 529 74 l 561 74 q 632 88 606 74 q 659 132 659 102 q 658 155 659 144 q 656 176 657 166 l 635 326 l 297 326 m 600 644 q 594 702 597 675 q 588 753 591 728 q 584 802 586 779 q 582 851 583 826 q 562 805 572 826 q 540 761 551 783 q 514 714 528 739 q 482 657 500 690 l 345 411 l 625 411 l 600 644 m 871 1071 l 469 1071 l 492 1181 l 895 1181 l 871 1071 z "},"":{"ha":924,"x_min":56,"x_max":876,"o":"m 657 -14 q 558 15 595 -14 q 521 97 521 43 q 523 139 521 119 q 530 187 525 160 l 521 187 q 470 101 495 139 q 413 38 444 64 q 343 0 382 13 q 254 -14 305 -14 q 168 6 205 -14 q 105 59 130 25 q 68 139 81 93 q 56 240 56 186 q 68 354 56 294 q 106 471 81 413 q 168 581 131 528 q 253 672 205 633 q 361 735 302 711 q 492 758 421 758 q 547 754 519 758 q 601 743 575 749 q 649 727 627 736 q 688 710 672 719 l 761 743 l 835 743 l 743 310 q 736 279 741 298 q 729 239 732 260 q 722 198 725 218 q 720 164 720 178 q 733 113 720 130 q 768 96 747 96 q 806 104 788 96 q 846 125 824 113 l 876 69 q 836 41 859 56 q 786 14 814 26 q 727 -6 759 2 q 657 -14 694 -14 m 267 239 q 272 172 267 199 q 288 128 278 144 q 312 104 298 111 q 342 97 326 97 q 405 123 372 97 q 466 193 437 150 q 517 290 494 236 q 551 400 540 345 l 600 631 q 563 660 587 650 q 511 669 538 669 q 437 648 471 669 q 376 592 404 627 q 329 512 349 557 q 294 419 308 467 q 273 324 280 371 q 267 239 267 277 m 715 842 l 313 842 l 336 951 l 739 951 l 715 842 z "},"":{"ha":1046,"x_min":-68,"x_max":987,"o":"m 297 326 l 229 201 q 209 157 216 176 q 203 123 203 138 q 222 86 203 98 q 281 74 241 74 l 309 74 l 293 0 l -68 0 l -53 74 l -24 74 q 10 78 -5 74 q 38 95 24 83 q 66 128 52 107 q 100 182 81 149 l 571 991 l 761 991 l 878 174 q 887 134 881 152 q 902 102 892 115 q 926 81 911 89 q 962 74 941 74 l 987 74 l 972 0 l 514 0 l 529 74 l 561 74 q 632 88 606 74 q 659 132 659 102 q 658 155 659 144 q 656 176 657 166 l 635 326 l 297 326 m 600 644 q 594 702 597 675 q 588 753 591 728 q 584 802 586 779 q 582 851 583 826 q 562 805 572 826 q 540 761 551 783 q 514 714 528 739 q 482 657 500 690 l 345 411 l 625 411 l 600 644 m 672 1071 q 591 1086 626 1071 q 533 1131 557 1102 q 496 1200 509 1160 q 479 1289 482 1240 l 571 1289 q 608 1217 576 1240 q 688 1194 639 1194 q 775 1216 738 1194 q 833 1289 812 1238 l 920 1289 q 888 1210 909 1249 q 836 1140 867 1171 q 763 1090 804 1109 q 672 1071 722 1071 z "},"":{"ha":924,"x_min":56,"x_max":876,"o":"m 657 -14 q 558 15 595 -14 q 521 97 521 43 q 523 139 521 119 q 530 187 525 160 l 521 187 q 470 101 495 139 q 413 38 444 64 q 343 0 382 13 q 254 -14 305 -14 q 168 6 205 -14 q 105 59 130 25 q 68 139 81 93 q 56 240 56 186 q 68 354 56 294 q 106 471 81 413 q 168 581 131 528 q 253 672 205 633 q 361 735 302 711 q 492 758 421 758 q 547 754 519 758 q 601 743 575 749 q 649 727 627 736 q 688 710 672 719 l 761 743 l 835 743 l 743 310 q 736 279 741 298 q 729 239 732 260 q 722 198 725 218 q 720 164 720 178 q 733 113 720 130 q 768 96 747 96 q 806 104 788 96 q 846 125 824 113 l 876 69 q 836 41 859 56 q 786 14 814 26 q 727 -6 759 2 q 657 -14 694 -14 m 267 239 q 272 172 267 199 q 288 128 278 144 q 312 104 298 111 q 342 97 326 97 q 405 123 372 97 q 466 193 437 150 q 517 290 494 236 q 551 400 540 345 l 600 631 q 563 660 587 650 q 511 669 538 669 q 437 648 471 669 q 376 592 404 627 q 329 512 349 557 q 294 419 308 467 q 273 324 280 371 q 267 239 267 277 m 515 842 q 434 857 469 842 q 376 902 399 873 q 338 971 352 930 q 322 1060 325 1011 l 414 1060 q 450 988 419 1011 q 530 965 481 965 q 618 987 581 965 q 676 1060 655 1009 l 762 1060 q 731 981 752 1020 q 678 910 709 941 q 606 861 647 880 q 515 842 565 842 z "},"":{"ha":1046,"x_min":-68,"x_max":987,"o":"m 297 326 l 229 201 q 209 157 216 176 q 203 123 203 138 q 222 86 203 98 q 281 74 241 74 l 309 74 l 293 0 l -68 0 l -53 74 l -24 74 q 10 78 -5 74 q 38 95 24 83 q 66 128 52 107 q 100 182 81 149 l 571 991 l 761 991 l 878 174 q 887 134 881 152 q 902 102 892 115 q 926 81 911 89 q 962 74 941 74 l 987 74 l 972 0 l 514 0 l 529 74 l 561 74 q 632 88 606 74 q 659 132 659 102 q 658 155 659 144 q 656 176 657 166 l 635 326 l 297 326 m 600 644 q 594 702 597 675 q 588 753 591 728 q 584 802 586 779 q 582 851 583 826 q 562 805 572 826 q 540 761 551 783 q 514 714 528 739 q 482 657 500 690 l 345 411 l 625 411 l 600 644 m 717 -334 q 586 -297 633 -334 q 539 -192 539 -261 q 554 -124 539 -155 q 597 -69 570 -93 q 662 -27 624 -45 q 745 0 699 -10 l 852 0 q 799 -20 828 -7 q 745 -54 770 -34 q 703 -102 720 -75 q 686 -163 686 -129 q 708 -214 686 -195 q 766 -233 730 -233 q 807 -231 785 -233 q 856 -222 830 -228 l 838 -311 q 781 -328 812 -321 q 717 -334 749 -334 z "},"":{"ha":924,"x_min":56,"x_max":876,"o":"m 657 -14 q 558 15 595 -14 q 521 97 521 43 q 523 139 521 119 q 530 187 525 160 l 521 187 q 470 101 495 139 q 413 38 444 64 q 343 0 382 13 q 254 -14 305 -14 q 168 6 205 -14 q 105 59 130 25 q 68 139 81 93 q 56 240 56 186 q 68 354 56 294 q 106 471 81 413 q 168 581 131 528 q 253 672 205 633 q 361 735 302 711 q 492 758 421 758 q 547 754 519 758 q 601 743 575 749 q 649 727 627 736 q 688 710 672 719 l 761 743 l 835 743 l 743 310 q 736 279 741 298 q 729 239 732 260 q 722 198 725 218 q 720 164 720 178 q 733 113 720 130 q 768 96 747 96 q 806 104 788 96 q 846 125 824 113 l 876 69 q 836 41 859 56 q 786 14 814 26 q 727 -6 759 2 q 657 -14 694 -14 m 267 239 q 272 172 267 199 q 288 128 278 144 q 312 104 298 111 q 342 97 326 97 q 405 123 372 97 q 466 193 437 150 q 517 290 494 236 q 551 400 540 345 l 600 631 q 563 660 587 650 q 511 669 538 669 q 437 648 471 669 q 376 592 404 627 q 329 512 349 557 q 294 419 308 467 q 273 324 280 371 q 267 239 267 277 m 614 -334 q 483 -297 530 -334 q 436 -192 436 -261 q 451 -124 436 -155 q 494 -69 467 -93 q 558 -27 521 -45 q 642 0 596 -10 l 749 0 q 696 -20 725 -7 q 642 -54 667 -34 q 600 -102 617 -75 q 583 -163 583 -129 q 605 -214 583 -195 q 663 -233 627 -233 q 704 -231 682 -233 q 753 -222 727 -228 l 734 -311 q 677 -328 709 -321 q 614 -334 646 -334 z "},"":{"ha":928,"x_min":87,"x_max":1013,"o":"m 558 103 q 645 114 606 103 q 714 143 684 125 q 768 183 745 161 q 808 229 791 205 q 824 210 817 223 q 832 182 832 197 q 811 112 832 147 q 749 49 790 77 q 648 4 708 21 q 509 -14 587 -14 q 331 11 409 -14 q 198 84 252 36 q 116 201 144 132 q 87 359 87 271 q 107 524 87 443 q 164 677 127 604 q 255 810 201 749 q 377 916 309 871 q 527 986 446 961 q 701 1011 608 1011 q 822 999 770 1011 q 908 966 874 987 q 960 914 943 945 q 977 846 977 883 q 962 792 977 815 q 921 753 947 769 q 859 729 895 737 q 781 721 823 721 q 777 785 781 750 q 760 851 772 821 q 724 902 747 882 q 663 922 701 922 q 561 897 608 922 q 476 829 515 872 q 409 729 438 786 q 359 609 379 672 q 329 479 339 545 q 318 351 318 413 q 378 168 318 233 q 558 103 439 103 m 629 1089 q 671 1135 648 1109 q 715 1188 693 1160 q 758 1242 737 1215 q 795 1293 779 1270 l 1013 1293 l 1008 1279 q 979 1250 998 1267 q 936 1215 960 1234 q 884 1176 911 1196 q 828 1137 857 1156 q 772 1100 800 1118 q 720 1071 744 1083 l 625 1071 l 629 1089 z "},"":{"ha":733,"x_min":56,"x_max":833,"o":"m 421 92 q 487 101 458 92 q 541 127 517 111 q 583 164 564 144 q 615 205 601 184 q 630 181 624 197 q 636 144 636 165 q 620 89 636 117 q 571 38 604 61 q 486 1 537 16 q 363 -14 434 -14 q 244 4 300 -14 q 146 58 188 22 q 80 147 104 94 q 56 273 56 201 q 68 381 56 325 q 107 491 81 437 q 171 593 133 545 q 260 678 210 642 q 374 736 311 715 q 513 758 437 758 q 612 746 570 758 q 681 714 654 734 q 720 668 707 694 q 733 611 733 641 q 724 569 733 589 q 694 531 715 548 q 642 505 674 515 q 564 494 610 494 q 557 564 564 531 q 538 622 551 597 q 506 661 525 646 q 463 675 488 675 q 407 655 433 675 q 359 602 380 635 q 320 527 337 569 q 292 439 304 484 q 274 350 280 394 q 268 271 268 307 q 307 139 268 186 q 421 92 345 92 m 450 860 q 492 905 469 880 q 536 959 514 931 q 579 1013 558 986 q 616 1064 600 1040 l 833 1064 l 829 1050 q 800 1021 819 1038 q 756 985 781 1004 q 705 946 732 966 q 649 907 677 926 q 593 871 621 888 q 541 842 565 854 l 446 842 l 450 860 z "},"":{"ha":928,"x_min":87,"x_max":977,"o":"m 558 103 q 645 114 606 103 q 714 143 684 125 q 768 183 745 161 q 808 229 791 205 q 824 210 817 223 q 832 182 832 197 q 811 112 832 147 q 749 49 790 77 q 648 4 708 21 q 509 -14 587 -14 q 331 11 409 -14 q 198 84 252 36 q 116 201 144 132 q 87 359 87 271 q 107 524 87 443 q 164 677 127 604 q 255 810 201 749 q 377 916 309 871 q 527 986 446 961 q 701 1011 608 1011 q 822 999 770 1011 q 908 966 874 987 q 960 914 943 945 q 977 846 977 883 q 962 792 977 815 q 921 753 947 769 q 859 729 895 737 q 781 721 823 721 q 777 785 781 750 q 760 851 772 821 q 724 902 747 882 q 663 922 701 922 q 561 897 608 922 q 476 829 515 872 q 409 729 438 786 q 359 609 379 672 q 329 479 339 545 q 318 351 318 413 q 378 168 318 233 q 558 103 439 103 m 440 1089 q 486 1134 460 1109 q 539 1187 512 1160 q 592 1241 566 1214 q 637 1293 618 1269 l 825 1293 q 847 1244 833 1272 q 876 1190 861 1217 q 906 1135 891 1162 q 933 1089 921 1109 l 929 1071 l 842 1071 q 813 1098 829 1082 q 780 1131 797 1114 q 746 1164 763 1147 q 718 1196 730 1181 q 676 1164 699 1181 q 629 1131 653 1147 q 583 1098 606 1114 q 544 1071 561 1082 l 436 1071 l 440 1089 z "},"":{"ha":733,"x_min":56,"x_max":770,"o":"m 421 92 q 487 101 458 92 q 541 127 517 111 q 583 164 564 144 q 615 205 601 184 q 630 181 624 197 q 636 144 636 165 q 620 89 636 117 q 571 38 604 61 q 486 1 537 16 q 363 -14 434 -14 q 244 4 300 -14 q 146 58 188 22 q 80 147 104 94 q 56 273 56 201 q 68 381 56 325 q 107 491 81 437 q 171 593 133 545 q 260 678 210 642 q 374 736 311 715 q 513 758 437 758 q 612 746 570 758 q 681 714 654 734 q 720 668 707 694 q 733 611 733 641 q 724 569 733 589 q 694 531 715 548 q 642 505 674 515 q 564 494 610 494 q 557 564 564 531 q 538 622 551 597 q 506 661 525 646 q 463 675 488 675 q 407 655 433 675 q 359 602 380 635 q 320 527 337 569 q 292 439 304 484 q 274 350 280 394 q 268 271 268 307 q 307 139 268 186 q 421 92 345 92 m 277 860 q 323 905 297 880 q 376 958 349 930 q 429 1012 403 985 q 474 1064 454 1040 l 661 1064 q 684 1015 670 1042 q 712 960 697 988 q 743 906 728 932 q 770 860 758 880 l 766 842 l 678 842 q 650 869 666 853 q 616 901 633 884 q 583 935 600 918 q 554 966 566 952 q 513 935 536 952 q 466 901 490 918 q 420 869 442 884 q 380 842 397 853 l 273 842 l 277 860 z "},"":{"ha":928,"x_min":87,"x_max":977,"o":"m 558 103 q 645 114 606 103 q 714 143 684 125 q 768 183 745 161 q 808 229 791 205 q 824 210 817 223 q 832 182 832 197 q 811 112 832 147 q 749 49 790 77 q 648 4 708 21 q 509 -14 587 -14 q 331 11 409 -14 q 198 84 252 36 q 116 201 144 132 q 87 359 87 271 q 107 524 87 443 q 164 677 127 604 q 255 810 201 749 q 377 916 309 871 q 527 986 446 961 q 701 1011 608 1011 q 822 999 770 1011 q 908 966 874 987 q 960 914 943 945 q 977 846 977 883 q 962 792 977 815 q 921 753 947 769 q 859 729 895 737 q 781 721 823 721 q 777 785 781 750 q 760 851 772 821 q 724 902 747 882 q 663 922 701 922 q 561 897 608 922 q 476 829 515 872 q 409 729 438 786 q 359 609 379 672 q 329 479 339 545 q 318 351 318 413 q 378 168 318 233 q 558 103 439 103 m 712 1099 q 669 1104 689 1099 q 635 1120 650 1109 q 612 1147 621 1131 q 604 1185 604 1163 q 614 1237 604 1215 q 642 1272 625 1258 q 684 1292 660 1286 q 733 1299 707 1299 q 775 1294 755 1299 q 811 1278 795 1289 q 835 1251 826 1267 q 844 1211 844 1234 q 833 1161 844 1183 q 803 1126 822 1140 q 761 1105 785 1112 q 712 1099 737 1099 z "},"":{"ha":733,"x_min":56,"x_max":733,"o":"m 421 92 q 487 101 458 92 q 541 127 517 111 q 583 164 564 144 q 615 205 601 184 q 630 181 624 197 q 636 144 636 165 q 620 89 636 117 q 571 38 604 61 q 486 1 537 16 q 363 -14 434 -14 q 244 4 300 -14 q 146 58 188 22 q 80 147 104 94 q 56 273 56 201 q 68 381 56 325 q 107 491 81 437 q 171 593 133 545 q 260 678 210 642 q 374 736 311 715 q 513 758 437 758 q 612 746 570 758 q 681 714 654 734 q 720 668 707 694 q 733 611 733 641 q 724 569 733 589 q 694 531 715 548 q 642 505 674 515 q 564 494 610 494 q 557 564 564 531 q 538 622 551 597 q 506 661 525 646 q 463 675 488 675 q 407 655 433 675 q 359 602 380 635 q 320 527 337 569 q 292 439 304 484 q 274 350 280 394 q 268 271 268 307 q 307 139 268 186 q 421 92 345 92 m 530 869 q 488 874 507 869 q 453 890 468 880 q 430 918 439 901 q 422 956 422 934 q 432 1007 422 986 q 460 1043 443 1029 q 502 1063 478 1057 q 551 1069 526 1069 q 594 1065 574 1069 q 629 1049 614 1060 q 653 1022 644 1038 q 663 982 663 1005 q 651 932 663 954 q 622 897 640 911 q 579 876 603 883 q 530 869 555 869 z "},"":{"ha":928,"x_min":87,"x_max":993,"o":"m 558 103 q 645 114 606 103 q 714 143 684 125 q 768 183 745 161 q 808 229 791 205 q 824 210 817 223 q 832 182 832 197 q 811 112 832 147 q 749 49 790 77 q 648 4 708 21 q 509 -14 587 -14 q 331 11 409 -14 q 198 84 252 36 q 116 201 144 132 q 87 359 87 271 q 107 524 87 443 q 164 677 127 604 q 255 810 201 749 q 377 916 309 871 q 527 986 446 961 q 701 1011 608 1011 q 822 999 770 1011 q 908 966 874 987 q 960 914 943 945 q 977 846 977 883 q 962 792 977 815 q 921 753 947 769 q 859 729 895 737 q 781 721 823 721 q 777 785 781 750 q 760 851 772 821 q 724 902 747 882 q 663 922 701 922 q 561 897 608 922 q 476 829 515 872 q 409 729 438 786 q 359 609 379 672 q 329 479 339 545 q 318 351 318 413 q 378 168 318 233 q 558 103 439 103 m 989 1275 q 942 1230 968 1255 q 889 1177 916 1204 q 837 1123 863 1150 q 791 1071 811 1095 l 604 1071 q 582 1119 595 1092 q 553 1174 568 1146 q 523 1229 538 1202 q 496 1275 508 1255 l 500 1293 l 587 1293 q 615 1266 600 1282 q 648 1233 631 1251 q 682 1199 665 1216 q 711 1168 699 1182 q 753 1199 730 1182 q 799 1233 776 1216 q 845 1266 823 1251 q 884 1293 867 1282 l 993 1293 l 989 1275 z "},"":{"ha":733,"x_min":56,"x_max":793,"o":"m 421 92 q 487 101 458 92 q 541 127 517 111 q 583 164 564 144 q 615 205 601 184 q 630 181 624 197 q 636 144 636 165 q 620 89 636 117 q 571 38 604 61 q 486 1 537 16 q 363 -14 434 -14 q 244 4 300 -14 q 146 58 188 22 q 80 147 104 94 q 56 273 56 201 q 68 381 56 325 q 107 491 81 437 q 171 593 133 545 q 260 678 210 642 q 374 736 311 715 q 513 758 437 758 q 612 746 570 758 q 681 714 654 734 q 720 668 707 694 q 733 611 733 641 q 724 569 733 589 q 694 531 715 548 q 642 505 674 515 q 564 494 610 494 q 557 564 564 531 q 538 622 551 597 q 506 661 525 646 q 463 675 488 675 q 407 655 433 675 q 359 602 380 635 q 320 527 337 569 q 292 439 304 484 q 274 350 280 394 q 268 271 268 307 q 307 139 268 186 q 421 92 345 92 m 789 1046 q 742 1001 768 1026 q 689 948 716 975 q 637 893 663 921 q 591 842 611 866 l 404 842 q 382 890 395 863 q 353 945 368 917 q 323 1000 338 973 q 296 1046 308 1026 l 300 1064 l 387 1064 q 415 1037 399 1053 q 448 1004 431 1021 q 482 970 465 987 q 511 939 498 953 q 553 970 530 953 q 599 1004 576 987 q 645 1037 623 1021 q 684 1064 667 1053 l 793 1064 l 789 1046 z "},"":{"ha":1067,"x_min":-33,"x_max":1042,"o":"m -18 74 l 1 74 q 44 77 23 74 q 81 88 64 79 q 111 113 98 97 q 129 157 123 130 l 273 839 q 278 856 276 846 q 279 871 279 865 q 272 895 279 886 q 251 910 264 905 q 219 917 238 915 q 179 918 201 918 l 161 918 l 176 991 l 621 991 q 799 967 720 991 q 931 895 877 943 q 1013 777 985 847 q 1042 614 1042 706 q 1024 453 1042 531 q 974 308 1007 376 q 890 183 940 239 q 776 85 841 126 q 630 22 711 45 q 456 0 550 0 l -33 0 l -18 74 m 396 86 q 570 126 494 86 q 700 237 647 165 q 781 408 753 309 q 808 625 808 507 q 791 751 808 698 q 743 839 774 804 q 666 890 711 873 q 566 907 621 907 l 507 907 l 334 86 l 396 86 m 905 1275 q 859 1230 885 1255 q 806 1177 833 1204 q 753 1123 779 1150 q 708 1071 728 1095 l 521 1071 q 498 1119 512 1092 q 470 1174 485 1146 q 439 1229 454 1202 q 412 1275 425 1255 l 416 1293 l 504 1293 q 532 1266 516 1282 q 565 1233 548 1251 q 598 1199 582 1216 q 627 1168 615 1182 q 669 1199 646 1182 q 716 1233 692 1216 q 762 1266 739 1251 q 801 1293 784 1282 l 909 1293 l 905 1275 z "},"":{"ha":924,"x_min":62,"x_max":1194,"o":"m 273 239 q 279 172 273 199 q 295 129 285 145 q 318 104 304 112 q 349 97 332 97 q 411 123 379 97 q 472 193 444 150 q 523 290 500 235 q 558 400 546 344 l 607 631 q 566 660 592 650 q 515 669 541 669 q 443 648 476 669 q 383 592 410 627 q 335 512 356 557 q 301 419 315 467 q 280 324 288 371 q 273 239 273 277 m 747 298 q 742 270 745 288 q 734 231 738 251 q 729 191 731 210 q 726 158 726 171 q 741 111 726 125 q 775 96 756 96 q 814 105 793 96 q 852 125 836 115 l 883 71 q 842 41 865 56 q 791 14 819 26 q 732 -6 764 1 q 664 -14 700 -14 q 608 -6 633 -14 q 565 14 583 1 q 537 48 547 28 q 528 97 528 69 q 528 120 528 110 q 530 140 529 130 q 533 161 531 150 q 537 187 534 172 l 529 187 q 475 96 503 134 q 414 33 446 58 q 345 -2 382 9 q 265 -14 308 -14 q 173 7 212 -14 q 110 62 135 27 q 74 142 85 96 q 62 240 62 189 q 75 354 62 294 q 112 471 87 413 q 173 581 137 528 q 257 672 210 633 q 362 735 304 711 q 489 758 420 758 q 565 749 530 758 q 627 725 600 741 q 631 746 629 734 q 636 769 633 758 q 641 792 638 781 q 644 808 643 802 l 656 864 q 661 882 659 873 q 664 900 663 892 q 666 915 665 909 q 667 924 667 921 q 663 954 667 943 q 650 972 659 966 q 627 980 641 978 q 593 982 612 982 l 561 982 l 574 1055 l 908 1055 l 747 298 m 935 851 q 980 952 958 900 q 1019 1055 1002 1005 l 1194 1055 l 1190 1042 q 1156 994 1176 1020 q 1113 939 1136 967 q 1064 884 1089 911 q 1014 833 1038 857 l 930 833 l 935 851 z "},"":{"ha":1067,"x_min":-33,"x_max":1042,"o":"m -18 74 l 1 74 q 44 77 23 74 q 81 88 64 79 q 111 113 98 97 q 129 157 123 130 l 196 476 l 82 476 l 100 561 l 214 561 l 273 839 q 277 856 275 846 q 279 871 279 865 q 271 895 279 886 q 251 910 264 905 q 219 917 237 915 q 179 918 201 918 l 161 918 l 176 991 l 621 991 q 798 967 720 991 q 930 895 876 943 q 1013 777 985 847 q 1042 614 1042 706 q 1024 453 1042 531 q 974 308 1007 376 q 890 183 940 239 q 776 85 841 126 q 630 22 711 45 q 456 0 550 0 l -33 0 l -18 74 m 396 86 q 570 126 494 86 q 700 237 647 165 q 781 408 753 309 q 808 625 808 507 q 791 751 808 698 q 743 839 774 804 q 666 890 711 873 q 565 907 621 907 l 507 907 l 433 561 l 608 561 l 590 476 l 415 476 l 333 86 l 396 86 z "},"":{"ha":924,"x_min":56,"x_max":985,"o":"m 863 876 l 985 876 l 970 803 l 847 803 l 741 298 q 735 270 739 288 q 728 231 731 251 q 722 191 724 210 q 720 158 720 171 q 734 111 720 125 q 768 96 749 96 q 807 105 786 96 q 846 125 829 115 l 876 71 q 835 41 858 56 q 784 14 812 26 q 725 -6 757 1 q 657 -14 693 -14 q 602 -6 627 -14 q 558 14 576 1 q 531 48 541 28 q 521 97 521 69 q 522 120 521 110 q 523 140 522 130 q 526 161 524 150 q 530 187 528 172 l 522 187 q 468 96 496 134 q 407 33 439 58 q 338 -2 375 9 q 258 -14 301 -14 q 166 7 205 -14 q 103 62 128 27 q 67 142 79 96 q 56 240 56 189 q 68 344 56 290 q 104 452 80 399 q 164 553 128 505 q 245 637 199 601 q 349 695 292 674 q 472 717 406 717 q 548 708 513 717 q 611 684 584 699 q 616 712 612 696 q 623 744 619 728 q 630 777 626 761 q 636 803 633 792 l 422 803 l 437 876 l 653 876 q 658 905 656 891 q 660 924 660 920 q 656 954 660 943 q 643 972 652 966 q 620 980 634 978 q 586 982 606 982 l 554 982 l 567 1055 l 901 1055 l 863 876 m 267 239 q 272 172 267 199 q 288 129 278 145 q 312 104 298 112 q 342 97 326 97 q 405 123 372 97 q 465 193 437 150 q 516 290 494 235 q 551 400 539 344 l 590 589 q 550 618 576 608 q 498 628 524 628 q 429 609 461 628 q 372 557 397 589 q 326 485 346 526 q 293 401 307 444 q 273 315 280 357 q 267 239 267 273 z "},"":{"ha":879,"x_min":-32,"x_max":930,"o":"m -17 74 l 1 74 q 44 77 23 74 q 81 88 64 79 q 111 113 98 97 q 129 157 123 130 l 273 839 q 278 856 276 846 q 279 871 279 865 q 272 895 279 886 q 251 910 264 905 q 219 917 238 915 q 179 918 201 918 l 161 918 l 176 991 l 930 991 l 882 733 l 783 733 q 785 750 784 738 q 787 775 786 762 q 789 800 788 789 q 790 814 790 811 q 785 850 790 833 q 768 880 779 867 q 738 900 756 892 q 692 907 719 907 l 507 907 l 433 559 l 749 559 l 730 476 l 415 476 l 332 85 l 551 85 q 610 94 584 85 q 654 119 635 103 q 687 155 673 134 q 708 199 700 176 l 730 258 l 829 258 l 765 0 l -32 0 l -17 74 m 802 1071 l 399 1071 l 422 1181 l 825 1181 l 802 1071 z "},"":{"ha":743,"x_min":56,"x_max":740,"o":"m 419 92 q 484 101 453 92 q 540 127 514 111 q 587 163 566 143 q 623 204 608 183 q 635 178 631 194 q 640 144 640 162 q 624 92 640 119 q 574 40 608 64 q 489 2 541 17 q 366 -14 437 -14 q 245 4 302 -14 q 147 57 189 22 q 80 147 104 93 q 56 273 56 201 q 69 381 56 325 q 110 491 83 437 q 176 594 136 545 q 268 679 216 642 q 385 737 320 715 q 526 758 450 758 q 681 715 626 758 q 736 595 736 672 q 705 487 736 538 q 618 396 673 435 q 488 334 564 357 q 322 311 412 311 q 297 311 311 311 q 271 313 283 311 q 268 285 269 299 q 268 260 268 271 q 306 135 268 179 q 419 92 343 92 m 468 675 q 404 649 434 675 q 349 583 373 624 q 307 492 324 543 q 281 392 289 441 l 293 392 q 389 406 345 392 q 466 445 433 419 q 518 505 499 470 q 536 585 536 541 q 518 651 536 627 q 468 675 500 675 m 717 842 l 314 842 l 337 951 l 740 951 l 717 842 z "},"":{"ha":879,"x_min":-32,"x_max":930,"o":"m -17 74 l 1 74 q 44 77 23 74 q 81 88 64 79 q 111 113 98 97 q 129 157 123 130 l 273 839 q 278 856 276 846 q 279 871 279 865 q 272 895 279 886 q 251 910 264 905 q 219 917 238 915 q 179 918 201 918 l 161 918 l 176 991 l 930 991 l 882 733 l 783 733 q 785 750 784 738 q 787 775 786 762 q 789 800 788 789 q 790 814 790 811 q 785 850 790 833 q 768 880 779 867 q 738 900 756 892 q 692 907 719 907 l 507 907 l 433 559 l 749 559 l 730 476 l 415 476 l 332 85 l 551 85 q 610 94 584 85 q 654 119 635 103 q 687 155 673 134 q 708 199 700 176 l 730 258 l 829 258 l 765 0 l -32 0 l -17 74 m 585 1071 q 504 1086 538 1071 q 446 1131 469 1102 q 408 1200 422 1160 q 392 1289 395 1240 l 484 1289 q 520 1217 489 1240 q 600 1194 551 1194 q 688 1216 650 1194 q 746 1289 725 1238 l 832 1289 q 801 1210 822 1249 q 748 1140 779 1171 q 676 1090 717 1109 q 585 1071 635 1071 z "},"":{"ha":743,"x_min":56,"x_max":750,"o":"m 419 92 q 484 101 453 92 q 540 127 514 111 q 587 163 566 143 q 623 204 608 183 q 635 178 631 194 q 640 144 640 162 q 624 92 640 119 q 574 40 608 64 q 489 2 541 17 q 366 -14 437 -14 q 245 4 302 -14 q 147 57 189 22 q 80 147 104 93 q 56 273 56 201 q 69 381 56 325 q 110 491 83 437 q 176 594 136 545 q 268 679 216 642 q 385 737 320 715 q 526 758 450 758 q 681 715 626 758 q 736 595 736 672 q 705 487 736 538 q 618 396 673 435 q 488 334 564 357 q 322 311 412 311 q 297 311 311 311 q 271 313 283 311 q 268 285 269 299 q 268 260 268 271 q 306 135 268 179 q 419 92 343 92 m 468 675 q 404 649 434 675 q 349 583 373 624 q 307 492 324 543 q 281 392 289 441 l 293 392 q 389 406 345 392 q 466 445 433 419 q 518 505 499 470 q 536 585 536 541 q 518 651 536 627 q 468 675 500 675 m 503 842 q 422 857 456 842 q 363 902 387 873 q 326 971 340 930 q 310 1060 313 1011 l 401 1060 q 438 988 407 1011 q 518 965 469 965 q 606 987 568 965 q 664 1060 643 1009 l 750 1060 q 719 981 740 1020 q 666 910 697 941 q 594 861 635 880 q 503 842 553 842 z "},"":{"ha":879,"x_min":-32,"x_max":930,"o":"m -17 74 l 1 74 q 44 77 23 74 q 81 88 64 79 q 111 113 98 97 q 129 157 123 130 l 273 839 q 278 856 276 846 q 279 871 279 865 q 272 895 279 886 q 251 910 264 905 q 219 917 238 915 q 179 918 201 918 l 161 918 l 176 991 l 930 991 l 882 733 l 783 733 q 785 750 784 738 q 787 775 786 762 q 789 800 788 789 q 790 814 790 811 q 785 850 790 833 q 768 880 779 867 q 738 900 756 892 q 692 907 719 907 l 507 907 l 433 559 l 749 559 l 730 476 l 415 476 l 332 85 l 551 85 q 610 94 584 85 q 654 119 635 103 q 687 155 673 134 q 708 199 700 176 l 730 258 l 829 258 l 765 0 l -32 0 l -17 74 m 585 1079 q 542 1084 562 1079 q 508 1100 522 1089 q 485 1127 493 1111 q 476 1165 476 1143 q 487 1217 476 1196 q 515 1252 497 1238 q 556 1273 532 1266 q 606 1279 580 1279 q 648 1274 628 1279 q 683 1259 668 1270 q 708 1231 699 1248 q 717 1192 717 1215 q 706 1142 717 1163 q 676 1106 694 1120 q 633 1086 657 1093 q 585 1079 610 1079 z "},"":{"ha":743,"x_min":56,"x_max":736,"o":"m 419 92 q 484 101 453 92 q 540 127 514 111 q 587 163 566 143 q 623 204 608 183 q 635 178 631 194 q 640 144 640 162 q 624 92 640 119 q 574 40 608 64 q 489 2 541 17 q 366 -14 437 -14 q 245 4 302 -14 q 147 57 189 22 q 80 147 104 93 q 56 273 56 201 q 69 381 56 325 q 110 491 83 437 q 176 594 136 545 q 268 679 216 642 q 385 737 320 715 q 526 758 450 758 q 681 715 626 758 q 736 595 736 672 q 705 487 736 538 q 618 396 673 435 q 488 334 564 357 q 322 311 412 311 q 297 311 311 311 q 271 313 283 311 q 268 285 269 299 q 268 260 268 271 q 306 135 268 179 q 419 92 343 92 m 468 675 q 404 649 434 675 q 349 583 373 624 q 307 492 324 543 q 281 392 289 441 l 293 392 q 389 406 345 392 q 466 445 433 419 q 518 505 499 470 q 536 585 536 541 q 518 651 536 627 q 468 675 500 675 m 504 869 q 461 874 481 869 q 427 890 441 880 q 404 918 412 901 q 395 956 395 934 q 406 1007 395 986 q 434 1043 416 1029 q 475 1063 452 1057 q 525 1069 499 1069 q 567 1065 547 1069 q 603 1049 587 1060 q 627 1022 618 1038 q 636 982 636 1005 q 625 932 636 954 q 595 897 614 911 q 553 876 576 883 q 504 869 529 869 z "},"":{"ha":879,"x_min":-32,"x_max":930,"o":"m -17 74 l 1 74 q 44 77 23 74 q 81 88 64 79 q 111 113 98 97 q 129 157 123 130 l 273 839 q 278 856 276 846 q 279 871 279 865 q 272 895 279 886 q 251 910 264 905 q 219 917 238 915 q 179 918 201 918 l 161 918 l 176 991 l 930 991 l 882 733 l 783 733 q 785 750 784 738 q 787 775 786 762 q 789 800 788 789 q 790 814 790 811 q 785 850 790 833 q 768 880 779 867 q 738 900 756 892 q 692 907 719 907 l 507 907 l 433 559 l 749 559 l 730 476 l 415 476 l 332 85 l 551 85 q 610 94 584 85 q 654 119 635 103 q 687 155 673 134 q 708 199 700 176 l 730 258 l 829 258 l 765 0 l -32 0 l -17 74 m 590 -334 q 459 -297 506 -334 q 412 -192 412 -261 q 428 -124 412 -155 q 470 -69 443 -93 q 535 -27 497 -45 q 618 0 572 -10 l 725 0 q 672 -20 701 -7 q 618 -54 644 -34 q 576 -102 593 -75 q 559 -163 559 -129 q 581 -214 559 -195 q 639 -233 603 -233 q 681 -231 658 -233 q 729 -222 703 -228 l 711 -311 q 654 -328 685 -321 q 590 -334 623 -334 z "},"":{"ha":743,"x_min":56,"x_max":736,"o":"m 419 92 q 484 101 453 92 q 540 127 514 111 q 587 163 566 143 q 623 204 608 183 q 635 178 631 194 q 640 144 640 162 q 624 92 640 119 q 574 40 608 64 q 489 2 541 17 q 366 -14 437 -14 q 245 4 302 -14 q 147 57 189 22 q 80 147 104 93 q 56 273 56 201 q 69 381 56 325 q 110 491 83 437 q 176 594 136 545 q 268 679 216 642 q 385 737 320 715 q 526 758 450 758 q 681 715 626 758 q 736 595 736 672 q 705 487 736 538 q 618 396 673 435 q 488 334 564 357 q 322 311 412 311 q 297 311 311 311 q 271 313 283 311 q 268 285 269 299 q 268 260 268 271 q 306 135 268 179 q 419 92 343 92 m 468 675 q 404 649 434 675 q 349 583 373 624 q 307 492 324 543 q 281 392 289 441 l 293 392 q 389 406 345 392 q 466 445 433 419 q 518 505 499 470 q 536 585 536 541 q 518 651 536 627 q 468 675 500 675 m 406 -313 q 275 -276 321 -313 q 228 -171 228 -240 q 243 -103 228 -134 q 286 -48 258 -72 q 350 -6 313 -24 q 433 21 388 11 l 541 21 q 488 1 517 14 q 434 -33 459 -13 q 392 -81 409 -54 q 375 -142 375 -108 q 397 -193 375 -174 q 454 -212 418 -212 q 496 -210 473 -212 q 545 -201 519 -207 l 526 -290 q 469 -307 500 -300 q 406 -313 438 -313 z "},"":{"ha":879,"x_min":-32,"x_max":930,"o":"m -17 74 l 1 74 q 44 77 23 74 q 81 88 64 79 q 111 113 98 97 q 129 157 123 130 l 273 839 q 278 856 276 846 q 279 871 279 865 q 272 895 279 886 q 251 910 264 905 q 219 917 238 915 q 179 918 201 918 l 161 918 l 176 991 l 930 991 l 882 733 l 783 733 q 785 750 784 738 q 787 775 786 762 q 789 800 788 789 q 790 814 790 811 q 785 850 790 833 q 768 880 779 867 q 738 900 756 892 q 692 907 719 907 l 507 907 l 433 559 l 749 559 l 730 476 l 415 476 l 332 85 l 551 85 q 610 94 584 85 q 654 119 635 103 q 687 155 673 134 q 708 199 700 176 l 730 258 l 829 258 l 765 0 l -32 0 l -17 74 m 873 1275 q 827 1230 853 1255 q 774 1177 801 1204 q 722 1123 747 1150 q 676 1071 696 1095 l 489 1071 q 467 1119 480 1092 q 438 1174 453 1146 q 408 1229 422 1202 q 380 1275 393 1255 l 385 1293 l 472 1293 q 500 1266 484 1282 q 533 1233 516 1251 q 567 1199 550 1216 q 595 1168 583 1182 q 637 1199 614 1182 q 684 1233 661 1216 q 730 1266 707 1251 q 769 1293 752 1282 l 878 1293 l 873 1275 z "},"":{"ha":743,"x_min":56,"x_max":806,"o":"m 419 92 q 484 101 453 92 q 540 127 514 111 q 587 163 566 143 q 623 204 608 183 q 635 178 631 194 q 640 144 640 162 q 624 92 640 119 q 574 40 608 64 q 489 2 541 17 q 366 -14 437 -14 q 245 4 302 -14 q 147 57 189 22 q 80 147 104 93 q 56 273 56 201 q 69 381 56 325 q 110 491 83 437 q 176 594 136 545 q 268 679 216 642 q 385 737 320 715 q 526 758 450 758 q 681 715 626 758 q 736 595 736 672 q 705 487 736 538 q 618 396 673 435 q 488 334 564 357 q 322 311 412 311 q 297 311 311 311 q 271 313 283 311 q 268 285 269 299 q 268 260 268 271 q 306 135 268 179 q 419 92 343 92 m 468 675 q 404 649 434 675 q 349 583 373 624 q 307 492 324 543 q 281 392 289 441 l 293 392 q 389 406 345 392 q 466 445 433 419 q 518 505 499 470 q 536 585 536 541 q 518 651 536 627 q 468 675 500 675 m 802 1046 q 755 1001 781 1026 q 702 948 729 975 q 650 893 675 921 q 604 842 624 866 l 417 842 q 395 890 408 863 q 366 945 381 917 q 336 1000 351 973 q 309 1046 321 1026 l 313 1064 l 400 1064 q 428 1037 412 1053 q 461 1004 444 1021 q 495 970 478 987 q 524 939 511 953 q 566 970 543 953 q 612 1004 589 987 q 658 1037 635 1021 q 697 1064 680 1053 l 806 1064 l 802 1046 z "},"":{"ha":1105,"x_min":87,"x_max":1063,"o":"m 1047 400 l 1046 400 q 1001 397 1023 400 q 963 385 980 394 q 932 359 945 376 q 914 315 920 342 l 861 50 q 779 22 819 34 q 697 2 739 10 q 611 -10 655 -6 q 518 -14 567 -14 q 331 12 411 -14 q 196 86 250 38 q 115 203 142 134 q 87 358 87 272 q 109 531 87 448 q 169 686 130 614 q 265 817 208 758 q 393 918 322 876 q 550 983 465 960 q 730 1006 635 1006 q 869 991 810 1006 q 968 954 928 977 q 1026 901 1007 931 q 1046 840 1046 871 q 1030 790 1046 813 q 987 749 1014 766 q 923 722 960 732 q 844 711 886 711 q 835 792 844 755 q 807 858 826 830 q 758 901 787 886 q 688 917 728 917 q 587 895 635 917 q 497 835 538 873 q 422 743 456 796 q 365 625 389 689 q 328 489 341 562 q 315 342 315 417 q 327 236 315 283 q 364 153 338 188 q 429 100 389 119 q 525 81 469 81 q 590 86 557 81 q 648 100 623 92 l 694 306 q 703 353 703 342 q 695 377 703 368 q 674 392 688 387 q 643 398 661 397 q 603 400 625 400 l 585 400 l 600 473 l 1063 473 l 1047 400 m 449 1089 q 495 1134 469 1109 q 548 1187 521 1160 q 601 1241 575 1214 q 646 1293 627 1269 l 833 1293 q 856 1244 842 1272 q 885 1190 869 1217 q 915 1135 900 1162 q 942 1089 930 1109 l 938 1071 l 850 1071 q 822 1098 838 1082 q 789 1131 806 1114 q 755 1164 772 1147 q 726 1196 739 1181 q 685 1164 708 1181 q 638 1131 662 1147 q 592 1098 614 1114 q 553 1071 570 1082 l 445 1071 l 449 1089 z "},"":{"ha":806,"x_min":-81,"x_max":871,"o":"m 123 457 q 145 558 123 505 q 209 656 166 612 q 317 729 252 701 q 471 758 382 758 q 557 748 517 758 q 628 714 597 737 q 661 751 644 734 q 699 781 679 768 q 741 801 718 793 q 789 808 763 808 q 851 788 831 808 q 871 734 871 767 q 866 700 871 718 q 852 668 862 682 q 824 645 842 654 q 782 636 807 636 q 769 680 782 665 q 733 696 757 696 q 699 689 714 696 q 669 671 683 682 q 694 621 684 651 q 704 559 704 591 q 695 495 704 529 q 669 429 686 462 q 624 366 651 396 q 559 313 597 336 q 475 276 522 290 q 370 262 427 262 q 354 263 363 262 q 334 263 344 263 q 314 264 323 264 q 298 267 304 265 q 244 234 266 252 q 222 193 222 215 q 228 174 222 182 q 244 162 234 167 q 267 155 254 158 q 297 151 281 153 l 453 136 q 611 81 555 127 q 668 -53 668 35 q 639 -168 668 -116 q 555 -256 610 -220 q 419 -313 500 -293 q 236 -334 339 -334 q 91 -321 151 -334 q -7 -286 31 -309 q -63 -230 -45 -262 q -81 -157 -81 -197 q -62 -90 -81 -120 q -12 -38 -43 -60 q 59 -1 19 -16 q 142 21 99 14 q 115 40 128 28 q 93 67 102 52 q 77 99 83 82 q 71 135 71 117 q 79 176 71 157 q 106 213 88 195 q 153 250 125 231 q 221 290 182 269 q 149 355 175 312 q 123 457 123 397 m 489 -118 q 459 -58 489 -79 q 357 -31 429 -37 l 233 -20 q 176 -35 203 -24 q 129 -64 149 -47 q 97 -102 109 -81 q 85 -147 85 -123 q 93 -188 85 -169 q 120 -220 100 -206 q 173 -242 139 -234 q 257 -250 206 -250 q 362 -239 318 -250 q 434 -210 406 -229 q 475 -168 462 -192 q 489 -118 489 -144 m 374 347 q 418 359 398 347 q 455 389 439 370 q 484 432 471 408 q 504 482 496 456 q 515 533 511 508 q 519 578 519 557 q 500 649 519 627 q 444 672 481 672 q 381 648 408 672 q 336 589 354 625 q 308 514 317 554 q 298 443 298 475 q 318 370 298 392 q 374 347 338 347 m 227 860 q 273 905 247 880 q 326 958 298 930 q 378 1012 353 985 q 424 1064 404 1040 l 611 1064 q 633 1015 620 1042 q 662 960 647 988 q 692 906 677 932 q 720 860 707 880 l 715 842 l 628 842 q 600 869 616 853 q 566 901 583 884 q 533 935 549 918 q 504 966 516 952 q 463 935 486 952 q 416 901 439 918 q 370 869 392 884 q 330 842 347 853 l 222 842 l 227 860 z "},"":{"ha":1105,"x_min":87,"x_max":1063,"o":"m 1047 400 l 1046 400 q 1001 397 1023 400 q 963 385 980 394 q 932 359 945 376 q 914 315 920 342 l 861 50 q 779 22 819 34 q 697 2 739 10 q 611 -10 655 -6 q 518 -14 567 -14 q 331 12 411 -14 q 196 86 250 38 q 115 203 142 134 q 87 358 87 272 q 109 531 87 448 q 169 686 130 614 q 265 817 208 758 q 393 918 322 876 q 550 983 465 960 q 730 1006 635 1006 q 869 991 810 1006 q 968 954 928 977 q 1026 901 1007 931 q 1046 840 1046 871 q 1030 790 1046 813 q 987 749 1014 766 q 923 722 960 732 q 844 711 886 711 q 835 792 844 755 q 807 858 826 830 q 758 901 787 886 q 688 917 728 917 q 587 895 635 917 q 497 835 538 873 q 422 743 456 796 q 365 625 389 689 q 328 489 341 562 q 315 342 315 417 q 327 236 315 283 q 364 153 338 188 q 429 100 389 119 q 525 81 469 81 q 590 86 557 81 q 648 100 623 92 l 694 306 q 703 353 703 342 q 695 377 703 368 q 674 392 688 387 q 643 398 661 397 q 603 400 625 400 l 585 400 l 600 473 l 1063 473 l 1047 400 m 715 1071 q 634 1086 669 1071 q 576 1131 600 1102 q 538 1200 552 1160 q 522 1289 525 1240 l 614 1289 q 650 1217 619 1240 q 730 1194 682 1194 q 818 1216 781 1194 q 876 1289 855 1238 l 962 1289 q 931 1210 952 1249 q 878 1140 909 1171 q 806 1090 847 1109 q 715 1071 765 1071 z "},"":{"ha":806,"x_min":-81,"x_max":871,"o":"m 123 457 q 145 558 123 505 q 209 656 166 612 q 317 729 252 701 q 471 758 382 758 q 557 748 517 758 q 628 714 597 737 q 661 751 644 734 q 699 781 679 768 q 741 801 718 793 q 789 808 763 808 q 851 788 831 808 q 871 734 871 767 q 866 700 871 718 q 852 668 862 682 q 824 645 842 654 q 782 636 807 636 q 769 680 782 665 q 733 696 757 696 q 699 689 714 696 q 669 671 683 682 q 694 621 684 651 q 704 559 704 591 q 695 495 704 529 q 669 429 686 462 q 624 366 651 396 q 559 313 597 336 q 475 276 522 290 q 370 262 427 262 q 354 263 363 262 q 334 263 344 263 q 314 264 323 264 q 298 267 304 265 q 244 234 266 252 q 222 193 222 215 q 228 174 222 182 q 244 162 234 167 q 267 155 254 158 q 297 151 281 153 l 453 136 q 611 81 555 127 q 668 -53 668 35 q 639 -168 668 -116 q 555 -256 610 -220 q 419 -313 500 -293 q 236 -334 339 -334 q 91 -321 151 -334 q -7 -286 31 -309 q -63 -230 -45 -262 q -81 -157 -81 -197 q -62 -90 -81 -120 q -12 -38 -43 -60 q 59 -1 19 -16 q 142 21 99 14 q 115 40 128 28 q 93 67 102 52 q 77 99 83 82 q 71 135 71 117 q 79 176 71 157 q 106 213 88 195 q 153 250 125 231 q 221 290 182 269 q 149 355 175 312 q 123 457 123 397 m 489 -118 q 459 -58 489 -79 q 357 -31 429 -37 l 233 -20 q 176 -35 203 -24 q 129 -64 149 -47 q 97 -102 109 -81 q 85 -147 85 -123 q 93 -188 85 -169 q 120 -220 100 -206 q 173 -242 139 -234 q 257 -250 206 -250 q 362 -239 318 -250 q 434 -210 406 -229 q 475 -168 462 -192 q 489 -118 489 -144 m 374 347 q 418 359 398 347 q 455 389 439 370 q 484 432 471 408 q 504 482 496 456 q 515 533 511 508 q 519 578 519 557 q 500 649 519 627 q 444 672 481 672 q 381 648 408 672 q 336 589 354 625 q 308 514 317 554 q 298 443 298 475 q 318 370 298 392 q 374 347 338 347 m 479 842 q 398 857 433 842 q 340 902 363 873 q 302 971 316 930 q 286 1060 289 1011 l 378 1060 q 414 988 383 1011 q 494 965 446 965 q 582 987 545 965 q 640 1060 619 1009 l 726 1060 q 695 981 716 1020 q 642 910 673 941 q 570 861 611 880 q 479 842 529 842 z "},"":{"ha":1105,"x_min":87,"x_max":1063,"o":"m 1047 400 l 1046 400 q 1001 397 1023 400 q 963 385 980 394 q 932 359 945 376 q 914 315 920 342 l 861 50 q 779 22 819 34 q 697 2 739 10 q 611 -10 655 -6 q 518 -14 567 -14 q 331 12 411 -14 q 196 86 250 38 q 115 203 142 134 q 87 358 87 272 q 109 531 87 448 q 169 686 130 614 q 265 817 208 758 q 393 918 322 876 q 550 983 465 960 q 730 1006 635 1006 q 869 991 810 1006 q 968 954 928 977 q 1026 901 1007 931 q 1046 840 1046 871 q 1030 790 1046 813 q 987 749 1014 766 q 923 722 960 732 q 844 711 886 711 q 835 792 844 755 q 807 858 826 830 q 758 901 787 886 q 688 917 728 917 q 587 895 635 917 q 497 835 538 873 q 422 743 456 796 q 365 625 389 689 q 328 489 341 562 q 315 342 315 417 q 327 236 315 283 q 364 153 338 188 q 429 100 389 119 q 525 81 469 81 q 590 86 557 81 q 648 100 623 92 l 694 306 q 703 353 703 342 q 695 377 703 368 q 674 392 688 387 q 643 398 661 397 q 603 400 625 400 l 585 400 l 600 473 l 1063 473 l 1047 400 m 709 1099 q 667 1104 686 1099 q 632 1120 647 1109 q 609 1147 618 1131 q 601 1185 601 1163 q 611 1237 601 1215 q 640 1272 622 1258 q 681 1292 657 1286 q 730 1299 705 1299 q 773 1294 753 1299 q 808 1278 793 1289 q 832 1251 823 1267 q 842 1211 842 1234 q 830 1161 842 1183 q 801 1126 819 1140 q 758 1105 782 1112 q 709 1099 734 1099 z "},"":{"ha":806,"x_min":-81,"x_max":871,"o":"m 123 457 q 145 558 123 505 q 209 656 166 612 q 317 729 252 701 q 471 758 382 758 q 557 748 517 758 q 628 714 597 737 q 661 751 644 734 q 699 781 679 768 q 741 801 718 793 q 789 808 763 808 q 851 788 831 808 q 871 734 871 767 q 866 700 871 718 q 852 668 862 682 q 824 645 842 654 q 782 636 807 636 q 769 680 782 665 q 733 696 757 696 q 699 689 714 696 q 669 671 683 682 q 694 621 684 651 q 704 559 704 591 q 695 495 704 529 q 669 429 686 462 q 624 366 651 396 q 559 313 597 336 q 475 276 522 290 q 370 262 427 262 q 354 263 363 262 q 334 263 344 263 q 314 264 323 264 q 298 267 304 265 q 244 234 266 252 q 222 193 222 215 q 228 174 222 182 q 244 162 234 167 q 267 155 254 158 q 297 151 281 153 l 453 136 q 611 81 555 127 q 668 -53 668 35 q 639 -168 668 -116 q 555 -256 610 -220 q 419 -313 500 -293 q 236 -334 339 -334 q 91 -321 151 -334 q -7 -286 31 -309 q -63 -230 -45 -262 q -81 -157 -81 -197 q -62 -90 -81 -120 q -12 -38 -43 -60 q 59 -1 19 -16 q 142 21 99 14 q 115 40 128 28 q 93 67 102 52 q 77 99 83 82 q 71 135 71 117 q 79 176 71 157 q 106 213 88 195 q 153 250 125 231 q 221 290 182 269 q 149 355 175 312 q 123 457 123 397 m 489 -118 q 459 -58 489 -79 q 357 -31 429 -37 l 233 -20 q 176 -35 203 -24 q 129 -64 149 -47 q 97 -102 109 -81 q 85 -147 85 -123 q 93 -188 85 -169 q 120 -220 100 -206 q 173 -242 139 -234 q 257 -250 206 -250 q 362 -239 318 -250 q 434 -210 406 -229 q 475 -168 462 -192 q 489 -118 489 -144 m 374 347 q 418 359 398 347 q 455 389 439 370 q 484 432 471 408 q 504 482 496 456 q 515 533 511 508 q 519 578 519 557 q 500 649 519 627 q 444 672 481 672 q 381 648 408 672 q 336 589 354 625 q 308 514 317 554 q 298 443 298 475 q 318 370 298 392 q 374 347 338 347 m 503 869 q 460 874 479 869 q 426 890 440 880 q 402 918 411 901 q 394 956 394 934 q 405 1007 394 986 q 433 1043 415 1029 q 474 1063 450 1057 q 524 1069 498 1069 q 566 1065 546 1069 q 601 1049 586 1060 q 626 1022 616 1038 q 635 982 635 1005 q 624 932 635 954 q 594 897 612 911 q 551 876 575 883 q 503 869 528 869 z "},"":{"ha":1105,"x_min":87,"x_max":1063,"o":"m 1047 400 l 1046 400 q 1001 397 1023 400 q 963 385 980 394 q 932 359 945 376 q 914 315 920 342 l 861 50 q 779 22 819 34 q 697 2 739 10 q 611 -10 655 -6 q 518 -14 567 -14 q 331 12 411 -14 q 196 86 250 38 q 115 203 142 134 q 87 358 87 272 q 109 531 87 448 q 169 686 130 614 q 265 817 208 758 q 393 918 322 876 q 550 983 465 960 q 730 1006 635 1006 q 869 991 810 1006 q 968 954 928 977 q 1026 901 1007 931 q 1046 840 1046 871 q 1030 790 1046 813 q 987 749 1014 766 q 923 722 960 732 q 844 711 886 711 q 835 792 844 755 q 807 858 826 830 q 758 901 787 886 q 688 917 728 917 q 587 895 635 917 q 497 835 538 873 q 422 743 456 796 q 365 625 389 689 q 328 489 341 562 q 315 342 315 417 q 327 236 315 283 q 364 153 338 188 q 429 100 389 119 q 525 81 469 81 q 590 86 557 81 q 648 100 623 92 l 694 306 q 703 353 703 342 q 695 377 703 368 q 674 392 688 387 q 643 398 661 397 q 603 400 625 400 l 585 400 l 600 473 l 1063 473 l 1047 400 m 338 -289 q 383 -188 361 -241 q 422 -85 406 -135 l 597 -85 l 593 -98 q 559 -146 579 -120 q 516 -201 539 -173 q 467 -256 492 -229 q 417 -307 441 -283 l 334 -307 l 338 -289 z "},"":{"ha":806,"x_min":-81,"x_max":871,"o":"m 123 457 q 145 558 123 505 q 209 656 166 612 q 317 729 252 701 q 471 758 382 758 q 557 748 517 758 q 628 714 597 737 q 661 751 644 734 q 699 781 679 768 q 741 801 718 793 q 789 808 763 808 q 851 788 831 808 q 871 734 871 767 q 866 700 871 718 q 852 668 862 682 q 824 645 842 654 q 782 636 807 636 q 769 680 782 665 q 733 696 757 696 q 699 689 714 696 q 669 671 683 682 q 694 621 684 651 q 704 559 704 591 q 695 495 704 529 q 669 429 686 462 q 624 366 651 396 q 559 313 597 336 q 475 276 522 290 q 370 262 427 262 q 354 263 363 262 q 334 263 344 263 q 314 264 323 264 q 298 267 304 265 q 244 234 266 252 q 222 193 222 215 q 228 174 222 182 q 244 162 234 167 q 267 155 254 158 q 297 151 281 153 l 453 136 q 611 81 555 127 q 668 -53 668 35 q 639 -168 668 -116 q 555 -256 610 -220 q 419 -313 500 -293 q 236 -334 339 -334 q 91 -321 151 -334 q -7 -286 31 -309 q -63 -230 -45 -262 q -81 -157 -81 -197 q -62 -90 -81 -120 q -12 -38 -43 -60 q 59 -1 19 -16 q 142 21 99 14 q 115 40 128 28 q 93 67 102 52 q 77 99 83 82 q 71 135 71 117 q 79 176 71 157 q 106 213 88 195 q 153 250 125 231 q 221 290 182 269 q 149 355 175 312 q 123 457 123 397 m 489 -118 q 459 -58 489 -79 q 357 -31 429 -37 l 233 -20 q 176 -35 203 -24 q 129 -64 149 -47 q 97 -102 109 -81 q 85 -147 85 -123 q 93 -188 85 -169 q 120 -220 100 -206 q 173 -242 139 -234 q 257 -250 206 -250 q 362 -239 318 -250 q 434 -210 406 -229 q 475 -168 462 -192 q 489 -118 489 -144 m 374 347 q 418 359 398 347 q 455 389 439 370 q 484 432 471 408 q 504 482 496 456 q 515 533 511 508 q 519 578 519 557 q 500 649 519 627 q 444 672 481 672 q 381 648 408 672 q 336 589 354 625 q 308 514 317 554 q 298 443 298 475 q 318 370 298 392 q 374 347 338 347 m 663 1046 q 617 945 640 998 q 578 842 595 892 l 403 842 l 407 856 q 441 904 421 878 q 485 958 462 930 q 534 1013 509 986 q 584 1064 559 1040 l 667 1064 l 663 1046 z "},"":{"ha":1137,"x_min":-32,"x_max":1236,"o":"m 547 0 l 562 74 l 581 74 q 624 77 603 74 q 663 89 645 79 q 693 114 680 98 q 711 158 705 130 l 778 475 l 415 475 l 347 153 q 343 136 345 145 q 342 121 342 126 q 349 97 342 106 q 370 82 357 87 q 402 76 384 77 q 443 74 421 74 l 461 74 l 446 0 l -32 0 l -17 74 l 1 74 q 44 77 23 74 q 81 88 64 79 q 111 113 98 97 q 129 157 123 130 l 271 823 q 279 871 279 859 q 272 895 279 886 q 251 910 264 905 q 219 917 238 915 q 179 918 201 918 l 161 918 l 176 991 l 656 991 l 640 918 l 623 918 q 578 915 600 918 q 539 903 557 912 q 509 878 522 895 q 490 833 496 861 l 433 559 l 796 559 l 854 829 q 860 854 858 844 q 861 871 861 865 q 853 895 861 886 q 832 910 846 905 q 800 917 819 915 q 760 918 781 918 l 742 918 l 757 991 l 1236 991 l 1221 918 l 1203 918 q 1160 915 1181 918 q 1121 903 1139 912 q 1091 878 1103 895 q 1072 833 1078 861 l 929 153 q 925 136 927 145 q 924 121 924 126 q 931 97 924 106 q 952 82 939 87 q 983 76 965 77 q 1023 74 1002 74 l 1042 74 l 1026 0 l 547 0 m 461 1089 q 507 1134 481 1109 q 560 1187 533 1160 q 613 1241 587 1214 q 659 1293 639 1269 l 846 1293 q 868 1244 854 1272 q 897 1190 882 1217 q 927 1135 912 1162 q 954 1089 942 1109 l 950 1071 l 863 1071 q 834 1098 850 1082 q 801 1131 818 1114 q 767 1164 784 1147 q 739 1196 751 1181 q 697 1164 720 1181 q 650 1131 674 1147 q 604 1098 627 1114 q 565 1071 582 1082 l 457 1071 l 461 1089 z "},"":{"ha":911,"x_min":29,"x_max":889,"o":"m 511 129 q 516 200 511 159 q 533 294 522 241 l 557 404 q 565 437 560 418 q 573 478 569 457 q 579 521 576 500 q 582 559 582 543 q 579 587 582 572 q 571 612 577 601 q 553 631 565 624 q 524 639 542 639 q 476 623 500 639 q 431 581 453 607 q 390 521 410 555 q 355 452 371 488 q 328 383 339 417 q 310 322 316 349 l 237 0 l 29 0 l 212 864 q 216 882 214 873 q 220 900 218 892 q 222 915 221 909 q 222 924 222 921 q 218 954 222 943 q 205 972 214 966 q 182 980 197 978 q 149 982 168 982 l 119 982 l 132 1055 l 468 1055 l 403 750 q 391 703 397 729 q 378 652 385 676 q 364 596 371 625 l 372 596 q 427 668 399 637 q 488 719 455 699 q 558 748 520 739 q 643 758 597 758 q 718 745 687 758 q 767 710 748 732 q 793 660 785 688 q 802 599 802 631 q 799 561 802 581 q 792 521 796 541 q 784 480 789 500 q 777 441 780 460 l 745 293 q 730 222 736 255 q 725 160 725 189 q 738 113 725 130 q 774 97 751 97 q 813 105 795 97 q 856 129 831 113 l 889 82 q 851 47 872 64 q 804 16 830 30 q 746 -5 778 3 q 676 -14 714 -14 q 554 24 597 -14 q 511 129 511 62 m 314 1126 q 360 1172 334 1146 q 413 1224 386 1197 q 466 1279 440 1251 q 511 1331 492 1306 l 699 1331 q 721 1282 707 1309 q 750 1227 734 1255 q 780 1173 765 1199 q 807 1126 795 1146 l 803 1108 l 715 1108 q 687 1135 703 1120 q 654 1168 671 1151 q 620 1202 637 1185 q 591 1233 604 1219 q 550 1202 573 1219 q 503 1168 527 1185 q 457 1135 479 1151 q 418 1108 435 1120 l 310 1108 l 314 1126 z "}}}
